<?xml version="1.0" standalone="no"?>
<!DOCTYPE svg PUBLIC "-//W3C//DTD SVG 1.1//EN" "http://www.w3.org/Graphics/SVG/1.1/DTD/svg11.dtd" >
<svg xmlns="http://www.w3.org/2000/svg" xmlns:xlink="http://www.w3.org/1999/xlink" version="1.1">
<metadata>
Created by FontForge 20161003 at Wed May  8 07:57:55 2019
 By www-data
Copyright (c) 2009 by Jason Smith, Fontsmith Ltd. All rights reserved.
</metadata>
<defs>
<font id="FSAlbertPro" horiz-adv-x="550" >
  <font-face 
    font-family="FSAlbertPro"
    font-weight="400"
    font-stretch="normal"
    units-per-em="1000"
    panose-1="2 0 5 3 4 0 0 2 0 4"
    ascent="770"
    descent="-230"
    x-height="483"
    cap-height="689"
    bbox="-180.78 -220 1008 1053.14"
    underline-thickness="50"
    underline-position="-150"
    unicode-range="U+0020-FB04"
  />
<missing-glyph horiz-adv-x="535" 
d="M20 0v693h495v-693h-495zM268 391l168 253h-337zM297 347l169 -253v505zM99 50h337l-168 252zM70 599v-505l168 253z" />
    <glyph glyph-name="f_f" unicode="ff" horiz-adv-x="635" 
d="M467 483h123q15 0 15 -15v-30q0 -15 -15 -15h-123v-402q0 -21 -20 -21h-45q-20 0 -20 21v402h-205v-402q0 -21 -20 -21h-45q-20 0 -20 21v402h-57q-15 0 -15 15v30q0 15 15 15h57v13q0 40 4 76q8 67 48.5 103.5t109.5 36.5q44 0 73 -12q16 -7 12 -21l-10 -34
q-4 -14 -20 -9q-28 8 -50 8q-45 0 -63.5 -30.5t-18.5 -93.5v-37h205v19q0 44 4 80q9 66 49 102.5t109 36.5q51 0 92 -16q16 -7 12 -21l-10 -34q-5 -15 -20 -9q-32 12 -64 12q-49 0 -68 -30.5t-19 -92.5v-47z" />
    <glyph glyph-name="fi" unicode="fi" horiz-adv-x="508" 
d="M177 483h246q19 0 19 -20v-442q0 -21 -20 -21h-45q-20 0 -20 21v402h-180v-402q0 -21 -20 -21h-45q-20 0 -20 21v402h-57q-15 0 -15 15v30q0 15 15 15h57v19q0 90 38 146q49 73 155 73q76 0 119 -17q16 -7 12 -21l-9 -34q-4 -14 -20 -9q-42 14 -96 14q-114 0 -114 -148
v-23z" />
    <glyph glyph-name="fl" unicode="fl" horiz-adv-x="528" 
d="M461 695v-674q0 -21 -20 -21h-45q-20 0 -20 21v620q-43 13 -96 13q-61 0 -81.5 -36t-20.5 -107v-28h112q15 0 15 -15v-30q0 -15 -15 -15h-113v-402q0 -21 -20 -21h-45q-20 0 -20 21v402h-57q-15 0 -15 15v30q0 15 15 15h57v19q0 101 32 150q45 69 148 69q62 0 123 -19
l46 9q20 4 20 -16z" />
    <glyph glyph-name="f_f_i" unicode="ffi" horiz-adv-x="798" 
d="M467 483h246q19 0 19 -20v-442q0 -21 -20 -21h-45q-20 0 -20 21v402h-180v-402q0 -21 -20 -21h-45q-20 0 -20 21v402h-205v-402q0 -21 -20 -21h-45q-20 0 -20 21v402h-57q-15 0 -15 15v30q0 15 15 15h57v13q0 40 4 76q8 67 48.5 103.5t109.5 36.5q44 0 73 -12
q16 -7 12 -21l-10 -34q-4 -14 -20 -9q-28 8 -50 8q-45 0 -63.5 -30.5t-18.5 -93.5v-37h205v19q0 90 38 146q49 73 155 73q76 0 119 -17q16 -7 12 -21l-9 -34q-4 -14 -20 -9q-42 14 -96 14q-114 0 -114 -148v-23z" />
    <glyph glyph-name="f_f_l" unicode="ffl" horiz-adv-x="818" 
d="M751 695v-674q0 -21 -20 -21h-45q-20 0 -20 21v620q-43 13 -96 13q-61 0 -81.5 -36t-20.5 -107v-28h112q15 0 15 -15v-30q0 -15 -15 -15h-113v-402q0 -21 -20 -21h-45q-20 0 -20 21v402h-205v-402q0 -21 -20 -21h-45q-20 0 -20 21v402h-57q-15 0 -15 15v30q0 15 15 15h57
v13q0 40 4 76q8 67 48.5 103.5t109.5 36.5q44 0 73 -12q16 -7 12 -21l-10 -34q-4 -14 -20 -9q-28 8 -50 8q-45 0 -63.5 -30.5t-18.5 -93.5v-37h205v19q0 101 32 150q45 69 148 69q62 0 123 -19l46 9q20 4 20 -16z" />
    <glyph glyph-name="f_j" unicode="fj" horiz-adv-x="508" 
d="M357 423h-180v-402q0 -21 -20 -21h-45q-20 0 -20 21v402h-57q-15 0 -15 15v30q0 15 15 15h57v19q0 90 38 146q49 73 155 73q76 0 119 -17q16 -7 12 -21l-9 -34q-4 -14 -20 -9q-42 14 -96 14q-114 0 -114 -148v-23h246q19 0 19 -20v-439q0 -119 -40.5 -181.5t-145.5 -62.5
q-33 0 -56 6q-15 4 -12 17l6 37q3 15 16 11q22 -5 49 -5q26 0 44 9t28.5 23t16.5 37t7.5 44.5t1.5 51.5v412z" />
    <glyph glyph-name="f_f_j" unicode="ffj" horiz-adv-x="798" 
d="M467 423v-402q0 -21 -20 -21h-45q-20 0 -20 21v402h-205v-402q0 -21 -20 -21h-45q-20 0 -20 21v402h-57q-15 0 -15 15v30q0 15 15 15h57v13q0 40 4 76q8 67 48.5 103.5t109.5 36.5q44 0 73 -12q16 -7 12 -21l-10 -34q-4 -14 -20 -9q-28 8 -50 8q-45 0 -63.5 -30.5
t-18.5 -93.5v-37h205v19q0 90 38 146q49 73 155 73q76 0 119 -17q16 -7 12 -21l-9 -34q-4 -14 -20 -9q-42 14 -96 14q-114 0 -114 -148v-23h246q19 0 19 -20v-439q0 -119 -40.5 -181.5t-145.5 -62.5q-33 0 -56 6q-15 4 -12 17l6 37q3 15 16 11q22 -5 49 -5q26 0 44 9
t28.5 23t16.5 37t7.5 44.5t1.5 51.5v412h-180z" />
    <glyph glyph-name=".notdef" horiz-adv-x="535" 
d="M20 0v693h495v-693h-495zM268 391l168 253h-337zM297 347l169 -253v505zM99 50h337l-168 252zM70 599v-505l168 253z" />
    <glyph glyph-name=".null" horiz-adv-x="0" 
 />
    <glyph glyph-name=".null" horiz-adv-x="0" 
 />
    <glyph glyph-name="nonmarkingreturn" horiz-adv-x="333" 
 />
    <glyph glyph-name="space" unicode=" " horiz-adv-x="232" 
 />
    <glyph glyph-name="exclam" unicode="!" horiz-adv-x="247" 
d="M170 669l-10 -503q0 -17 -17 -17h-35q-18 0 -18 17l-9 503q0 20 19 20h50q20 0 20 -20zM124 99q23 0 40 -14.5t17 -39.5q0 -26 -17 -40.5t-41 -14.5q-23 0 -40 14.5t-17 39.5q0 26 17 40.5t41 14.5z" />
    <glyph glyph-name="quotedbl" unicode="&#x22;" horiz-adv-x="318" 
d="M55 701h50q17 0 16 -18l-6 -144q0 -18 -19 -18h-33q-18 0 -18 18l-6 144q-1 18 16 18zM213 701h50q17 0 16 -18l-6 -144q0 -18 -19 -18h-33q-18 0 -18 18l-6 144q-1 18 16 18z" />
    <glyph glyph-name="numbersign" unicode="#" 
d="M431 472h83q18 0 15 -15l-6 -38q-1 -6 -3 -9t-6 -4.5t-12 -1.5h-83l-21 -137h84q18 0 15 -15l-6 -38q-1 -6 -3 -9t-6 -4.5t-12 -1.5h-84l-28 -179q-2 -11 -6.5 -15.5t-17.5 -4.5h-40q-20 0 -17 20l30 179h-110l-30 -179q-2 -11 -6.5 -15.5t-17.5 -4.5h-41q-20 0 -17 20
l29 179h-79q-18 0 -15 15l6 38q1 6 3 9t6 4.5t12 1.5h81l21 137h-83q-18 0 -15 15l6 38q1 6 3 9t6 4.5t12 1.5h84l29 197q2 11 6.5 15.5t17.5 4.5h40q20 0 17 -20l-30 -197h106l31 197q2 11 6.5 15.5t17.5 4.5h40q20 0 17 -20zM317 267l22 137h-108l-22 -137h108z" />
    <glyph glyph-name="dollar" unicode="$" 
d="M312 782v-82q80 -3 138 -31q17 -8 11 -24l-15 -40q-6 -18 -26 -9q-56 25 -108 28v-229l44 -23q67 -35 101.5 -77.5t34.5 -107.5q0 -80 -50.5 -130t-129.5 -63v-81q0 -14 -14 -14h-25q-14 0 -14 14v77q-87 0 -167 28q-18 6 -13 25l13 45q6 18 26 10q71 -29 141 -29v253
l-74 40q-110 59 -110 162q0 75 53.5 121t130.5 54v83q0 14 14 14h25q14 0 14 -14zM400 180q0 40 -21.5 65t-66.5 49v-219q88 24 88 105zM171 532q0 -37 19 -59.5t59 -43.5l10 -6v199q-38 -7 -63 -29.5t-25 -60.5z" />
    <glyph glyph-name="percent" unicode="%" horiz-adv-x="758" 
d="M626 678l-417 -669q-11 -19 -34 -19h-29q-27 0 -13 23l417 669q8 12 14 15.5t20 3.5h28q29 0 14 -23zM177 389q59 0 59 127t-59 127t-59 -127t59 -127zM177 336q-63 0 -95 49.5t-32 130.5t32 130.5t95 49.5t95 -49.5t32 -130.5t-32 -130.5t-95 -49.5zM581 49q59 0 59 127
t-59 127t-59 -127t59 -127zM581 -4q-63 0 -95 49.5t-32 130.5t32 130.5t95 49.5t95 -49.5t32 -130.5t-32 -130.5t-95 -49.5z" />
    <glyph glyph-name="ampersand" unicode="&#x26;" horiz-adv-x="683" 
d="M475 81q-97 -91 -229 -91q-89 0 -148.5 52t-59.5 138q0 70 42 117.5t123 99.5l-31 37q-56 66 -56 126t45.5 100.5t112.5 40.5q68 0 112 -38t44 -101q0 -48 -32 -87.5t-88 -80.5l173 -204q68 95 78 222q1 15 15 15h42q14 0 14 -14q0 -67 -28.5 -145.5t-72.5 -129.5
q52 -51 128 -75q17 -6 11 -23l-12 -34q-6 -16 -25 -12q-91 20 -158 87zM270 443q82 61 82 117q0 35 -20.5 55.5t-55.5 20.5q-33 0 -54 -20t-21 -54q0 -39 43 -89zM428 130l-184 218q-115 -79 -115 -159q0 -58 38 -92t95 -34q97 0 166 67z" />
    <glyph glyph-name="quotesingle" unicode="'" horiz-adv-x="160" 
d="M55 701h50q17 0 16 -18l-6 -144q0 -18 -19 -18h-33q-18 0 -18 18l-6 144q-1 18 16 18z" />
    <glyph glyph-name="parenleft" unicode="(" horiz-adv-x="325" 
d="M270 715l28 -17q11 -6 1 -22q-66 -99 -95 -187t-29 -202q0 -201 121 -366q10 -13 -5 -24l-24 -16q-14 -9 -25 5q-151 199 -151 414q0 203 157 410q10 12 22 5z" />
    <glyph glyph-name="parenright" unicode=")" horiz-adv-x="324" 
d="M233 295q0 -205 -156 -410q-9 -12 -22 -5l-28 17q-12 7 -3 21q67 100 96.5 188t29.5 201q0 106 -28.5 191.5t-91.5 173.5q-11 15 3 25l25 17q14 10 24 -3q151 -201 151 -416z" />
    <glyph glyph-name="asterisk" unicode="*" horiz-adv-x="333" 
d="M181 594l79 48q19 12 25 -6l13 -41q5 -19 -12 -21l-91 -11l67 -68q11 -13 -4 -25l-28 -22q-18 -12 -24 5l-40 95l-38 -96q-8 -16 -21 -6l-35 25q-13 11 0 24l69 69l-98 10q-13 2 -9 15l16 50q4 16 20 6l83 -51l-19 93q-2 10 -2 14q0 10 12 10h43q15 0 15 -10q0 -3 -3 -17
z" />
    <glyph glyph-name="plus" unicode="+" 
d="M493 283v-42q0 -16 -18 -16h-160v-171q0 -17 -18 -17h-43q-18 0 -18 17v171h-161q-18 0 -18 16v42q0 16 18 16h161v173q0 17 18 17h43q18 0 18 -17v-173h160q18 0 18 -16z" />
    <glyph glyph-name="comma" unicode="," horiz-adv-x="201" 
d="M164 31q0 -44 -25 -89t-60 -65q-13 -7 -20 1l-10 11q-8 10 2 18q35 33 35 66q0 13 -17 35.5t-17 37.5q0 23 15.5 38t38.5 15q25 0 41.5 -21t16.5 -47z" />
    <glyph glyph-name="hyphen" unicode="-" horiz-adv-x="277" 
d="M60 301h157q19 0 19 -20v-39q0 -19 -19 -19h-157q-19 0 -19 19v39q0 20 19 20z" />
    <glyph glyph-name="period" unicode="." horiz-adv-x="204" 
d="M108 99q23 0 40 -14.5t17 -39.5q0 -26 -17 -40.5t-41 -14.5q-23 0 -40 14.5t-17 39.5q0 26 17 40.5t41 14.5z" />
    <glyph glyph-name="slash" unicode="/" horiz-adv-x="327" 
d="M32 10l202 674q5 17 23 17h40q19 0 13 -20l-200 -674q-5 -17 -23 -17h-42q-19 0 -13 20z" />
    <glyph glyph-name="zero" unicode="0" 
d="M512 347q0 -64 -12.5 -123.5t-38.5 -114t-74 -87t-113 -32.5q-52 0 -93.5 22t-68 57t-43.5 82t-24 94.5t-7 98.5q0 63 12.5 123t39 114t75 87t112.5 33q65 0 112.5 -32t73 -86t37.5 -113t12 -123zM415 346q0 49 -6.5 94t-21 88t-43 69t-68.5 26q-41 0 -70 -26
t-43.5 -69.5t-21 -88t-6.5 -93.5t6 -93.5t20.5 -88t43.5 -69.5t70 -26t70 26t43.5 69.5t20.5 88t6 93.5z" />
    <glyph glyph-name="one" unicode="1" 
d="M267 590l-147 -91q-18 -11 -27 7l-18 30q-10 17 7 28l180 112q21 13 42 13h34q19 0 19 -20v-649q0 -20 -19 -20h-51q-20 0 -20 20v570z" />
    <glyph glyph-name="two" unicode="2" 
d="M172 77h288q19 0 19 -16v-45q0 -16 -19 -16h-385q-19 0 -19 16v37q0 20 15 35q25 26 79.5 80t81.5 83q76 82 113.5 143t37.5 115q0 52 -33.5 82.5t-86.5 30.5q-70 0 -143 -42q-16 -8 -24 9l-15 32q-8 17 8 27q85 53 187 53q87 0 145 -48.5t58 -134.5q0 -74 -43.5 -145
t-142.5 -174q-20 -21 -121 -122z" />
    <glyph glyph-name="three" unicode="3" 
d="M334 375q61 -14 100 -62t39 -112q0 -93 -68 -152t-165 -59q-101 0 -170 35q-15 8 -9 24l14 36q6 16 28 6q60 -27 130 -27q65 0 105 37t40 100q0 67 -46.5 101t-117.5 34h-28q-18 0 -18 17v35q0 17 18 17h27q65 0 102 29.5t37 89.5q0 51 -33 78t-88 27q-63 0 -122 -34
q-15 -8 -21 6l-16 36q-4 11 7 19q73 45 168 45q81 0 140.5 -46t59.5 -125q0 -53 -32 -96.5t-81 -58.5z" />
    <glyph glyph-name="four" unicode="4" 
d="M389 160h-325q-21 0 -21 21v28q0 17 15 50l188 413q8 17 26 17h50q22 0 13 -22l-192 -430h246v159q0 20 19 20h51q20 0 20 -20v-376q0 -20 -19 -20h-51q-20 0 -20 20v140z" />
    <glyph glyph-name="five" unicode="5" 
d="M436 613h-241v-186h30q115 0 190 -53.5t75 -163.5q0 -102 -69.5 -161t-176.5 -59q-82 0 -163 42q-18 9 -10 26l16 37q7 17 27 6q65 -34 136 -34q62 0 103.5 36.5t41.5 102.5q0 152 -197 152h-63q-30 0 -30 30v278q0 23 21 23h310q19 0 19 -16v-44q0 -16 -19 -16z" />
    <glyph glyph-name="six" unicode="6" 
d="M503 227q0 -101 -58.5 -169t-155.5 -68q-62 0 -107.5 24t-70.5 67t-37 95.5t-12 116.5q0 172 57 275q73 133 230 133q45 0 84 -12q19 -6 16 -20l-9 -38q-4 -18 -21 -13q-33 9 -67 9q-112 0 -159 -108q-23 -54 -30 -144q59 58 143 58q86 0 141.5 -55t55.5 -151zM407 219
q0 59 -28 99t-85 40q-33 0 -70 -16t-65 -48q-1 -9 -1 -23q0 -97 32.5 -151.5t99.5 -54.5q60 0 88.5 47.5t28.5 106.5z" />
    <glyph glyph-name="seven" unicode="7" 
d="M404 611h-321q-19 0 -19 16v46q0 16 19 16h401q22 0 22 -21v-30q0 -19 -10 -41l-268 -577q-10 -20 -32 -20h-55q-24 0 -13 26z" />
    <glyph glyph-name="eight" unicode="8" 
d="M503 196q0 -92 -66.5 -149t-163.5 -57q-99 0 -163 51.5t-64 144.5q0 61 42 108t107 73q-54 24 -87 67t-33 95q0 75 58.5 123.5t143.5 48.5t140 -46t55 -123q0 -46 -34.5 -90t-85.5 -68q151 -63 151 -178zM277 405q100 50 100 126q0 46 -27.5 73.5t-76.5 27.5
q-44 0 -73.5 -28t-29.5 -71q0 -44 28.5 -73.5t78.5 -54.5zM267 335q-126 -53 -126 -145q0 -59 40.5 -95t94.5 -36q55 0 93.5 34t38.5 95q0 29 -11.5 52.5t-34 41t-43.5 29t-52 24.5z" />
    <glyph glyph-name="nine" unicode="9" 
d="M387 317q-59 -58 -143 -58q-86 0 -141.5 55t-55.5 151q0 101 58.5 168.5t155.5 67.5q82 0 134.5 -43t72.5 -107.5t20 -151.5q0 -171 -57 -275q-74 -134 -230 -134q-48 0 -85 11q-18 6 -15 22l9 37q4 18 21 13q33 -9 67 -9q111 0 159 109q23 54 30 144zM391 398q1 9 1 23
q0 96 -32.5 150.5t-99.5 54.5q-60 0 -88.5 -47t-28.5 -106t28 -99t85 -40q33 0 70 16t65 48z" />
    <glyph glyph-name="colon" unicode=":" horiz-adv-x="214" 
d="M114 102q23 0 40.5 -15t17.5 -40q0 -26 -17.5 -41.5t-41.5 -15.5t-41.5 15t-17.5 40q0 26 17.5 41.5t42.5 15.5zM114 494q23 0 40.5 -15t17.5 -40q0 -26 -17.5 -41.5t-41.5 -15.5t-41.5 15t-17.5 40q0 26 17.5 41.5t42.5 15.5z" />
    <glyph glyph-name="semicolon" unicode=";" horiz-adv-x="214" 
d="M172 437q0 -25 -18 -40.5t-41 -15.5t-41.5 15.5t-18.5 40.5q0 26 18 41.5t42 15.5t41.5 -15.5t17.5 -41.5zM167 31q0 -44 -25 -89t-60 -65q-13 -7 -20 1l-10 11q-8 10 2 18q35 33 35 66q0 13 -17 35.5t-17 37.5q0 23 15.5 38t38.5 15q25 0 41.5 -21t16.5 -47z" />
    <glyph glyph-name="less" unicode="&#x3c;" 
d="M181 262l256 -164q13 -8 5 -23l-25 -40q-10 -17 -29 -4l-295 196q-12 8 -12 22v26q0 13 13 22l298 195q16 13 27 -3l26 -39q8 -14 -5 -22z" />
    <glyph glyph-name="equal" unicode="=" 
d="M493 198v-42q0 -16 -18 -16h-400q-18 0 -18 16v42q0 16 18 16h400q18 0 18 -16zM493 374v-42q0 -16 -18 -16h-400q-18 0 -18 16v42q0 16 18 16h400q18 0 18 -16z" />
    <glyph glyph-name="greater" unicode="&#x3e;" 
d="M369 262l-256 164q-13 8 -5 23l25 40q10 17 29 4l295 -196q12 -8 12 -22v-26q0 -13 -13 -22l-298 -195q-16 -13 -27 3l-26 39q-8 14 5 22z" />
    <glyph glyph-name="question" unicode="?" horiz-adv-x="421" 
d="M379 544q0 -74 -61 -140l-73 -79q-50 -55 -50 -97q0 -9 3 -33q1 -16 -14 -16h-40q-12 0 -16 14q-5 20 -5 49q0 59 46 108l73 76q54 57 54 106q0 54 -32 77.5t-79 23.5q-54 0 -98 -25q-14 -8 -19 7l-13 33q-5 13 7 19q61 34 141 34q74 0 125 -42.5t51 -114.5zM170 99
q23 0 40 -14.5t17 -39.5q0 -26 -17 -40.5t-41 -14.5q-23 0 -40 14.5t-17 39.5q0 26 17 40.5t41 14.5z" />
    <glyph glyph-name="at" unicode="@" horiz-adv-x="820" 
d="M772 389q0 -57 -20 -111t-63.5 -93t-101.5 -39q-41 0 -70.5 20.5t-32.5 64.5h-1q-42 -67 -110 -67q-54 0 -81.5 40t-27.5 98q0 81 48 150t125 69q30 0 55 -15.5t33 -48.5l10 38q3 12 16 12h27q10 0 12.5 -3.5t0.5 -11.5l-46 -198q-7 -28 -7 -52q0 -56 51 -56q43 0 73 36
t41 80t11 89q0 114 -74 182t-191 68q-134 0 -218 -93.5t-84 -230.5q0 -127 75.5 -199.5t203.5 -72.5q81 0 165 38q14 7 18 -5l11 -26q5 -11 -8 -18q-87 -44 -196 -44q-160 0 -259.5 86.5t-99.5 237.5q0 166 113.5 276.5t280.5 110.5q141 0 231 -86t90 -226zM481 294l24 107
q-2 27 -16 48t-42 21q-36 0 -61.5 -31.5t-35 -68t-9.5 -69.5q0 -79 54 -79q53 0 86 72z" />
    <glyph glyph-name="A" unicode="A" horiz-adv-x="608" 
d="M170 204l-69 -188q-5 -16 -24 -16h-55q-20 0 -12 20l251 655q5 14 18 14h53q14 0 18 -12l247 -657q8 -20 -13 -20h-64q-19 0 -24 16l-67 188h-259zM194 273h211l-103 297h-1z" />
    <glyph glyph-name="B" unicode="B" horiz-adv-x="569" 
d="M351 369q75 -3 124 -49.5t49 -121.5q0 -198 -260 -198h-168q-21 0 -21 23v643q0 23 21 23h141q234 0 234 -168q0 -56 -31.5 -97.5t-88.5 -53.5v-1zM168 618v-223h68q144 0 144 120q0 59 -39.5 81t-108.5 22h-64zM168 71h87q38 0 66 5t54 17.5t40 39t15 65.5
q0 129 -178 129h-84v-256z" />
    <glyph glyph-name="C" unicode="C" horiz-adv-x="591" 
d="M369 64q82 0 154 36q18 8 25 -9l12 -30q7 -19 -11 -28q-86 -43 -193 -43q-150 0 -228.5 99.5t-78.5 254.5q0 97 36 177t108.5 130t169.5 50q102 0 184 -45q16 -9 9 -26l-17 -36q-7 -15 -22 -7q-69 39 -148 39q-106 0 -163.5 -81.5t-57.5 -192.5q0 -123 56 -205.5
t165 -82.5z" />
    <glyph glyph-name="D" unicode="D" horiz-adv-x="670" 
d="M624 341q0 -174 -103 -268q-82 -73 -246 -73h-178q-21 0 -21 23v643q0 23 21 23h134q97 0 153.5 -10.5t102.5 -39.5q65 -40 101 -117t36 -181zM525 342q0 156 -85 224q-59 48 -176 48h-95v-540h86q73 0 118.5 11.5t78.5 44.5q73 75 73 212z" />
    <glyph glyph-name="E" unicode="E" horiz-adv-x="510" 
d="M169 616v-219h236q19 0 19 -16v-40q0 -16 -19 -16h-236v-252h278q19 0 19 -16v-41q0 -16 -19 -16h-350q-21 0 -21 23v643q0 23 21 23h350q20 0 17 -17l-6 -40q-2 -16 -22 -16h-267z" />
    <glyph glyph-name="F" unicode="F" horiz-adv-x="501" 
d="M436 616h-267v-219h236q19 0 19 -16v-40q0 -16 -19 -16h-236v-305q0 -20 -19 -20h-54q-20 0 -20 20v646q0 23 21 23h350q20 0 17 -17l-6 -40q-2 -16 -22 -16z" />
    <glyph glyph-name="G" unicode="G" horiz-adv-x="658" 
d="M496 325h-104q-19 0 -19 16v40q0 16 19 16h177q20 0 20 -22v-301q0 -27 -22 -39q-82 -45 -196 -45q-158 0 -240 96.5t-82 257.5q0 156 90.5 256.5t244.5 100.5q93 0 166 -32q16 -7 10 -24l-14 -39q-6 -16 -23 -9q-64 27 -136 27q-114 0 -176.5 -79t-62.5 -199
q0 -122 55.5 -202.5t165.5 -80.5q79 0 127 24v238z" />
    <glyph glyph-name="H" unicode="H" horiz-adv-x="660" 
d="M491 397v272q0 20 19 20h54q20 0 20 -20v-649q0 -20 -19 -20h-54q-20 0 -20 20v305h-322v-305q0 -20 -19 -20h-54q-20 0 -20 20v649q0 20 19 20h54q20 0 20 -20v-272h322z" />
    <glyph glyph-name="I" unicode="I" horiz-adv-x="371" 
d="M231 627v-564h58q19 0 19 -16v-31q0 -16 -19 -16h-204q-19 0 -19 16v31q0 16 19 16h56v564h-60q-19 0 -19 16v30q0 16 19 16h209q19 0 19 -16v-30q0 -16 -19 -16h-59z" />
    <glyph glyph-name="J" unicode="J" horiz-adv-x="381" 
d="M219 627h-112q-19 0 -19 16v30q0 16 19 16h181q21 0 21 -23v-435q0 -125 -40 -183t-151 -58q-34 0 -61 8q-16 5 -13 20l9 39q4 14 21 11q24 -6 47 -6q26 0 44.5 7.5t29 19.5t16 33t7 40t1.5 49v416z" />
    <glyph glyph-name="K" unicode="K" horiz-adv-x="553" 
d="M502 669l-254 -311l283 -334q8 -8 6.5 -16t-13.5 -8h-66q-23 0 -36 16l-252 303h-1v-299q0 -20 -19 -20h-54q-20 0 -20 20v649q0 20 19 20h54q20 0 20 -20v-290h1l239 295q12 15 33 15h51q11 0 13 -7t-4 -13z" />
    <glyph glyph-name="L" unicode="L" horiz-adv-x="454" 
d="M169 74h251q19 0 19 -16v-42q0 -16 -19 -16h-323q-21 0 -21 23v646q0 20 19 20h54q20 0 20 -20v-595z" />
    <glyph glyph-name="M" unicode="M" horiz-adv-x="838" 
d="M652 512h-2l-191 -498q-5 -14 -20 -14h-34q-16 0 -22 14l-207 498h-1l-12 -494q0 -10 -4.5 -14t-15.5 -4h-49q-19 0 -18 19l23 651q1 19 19 19h43q19 0 26 -15l240 -550h1l222 549q7 16 22 16h47q17 0 17 -16l27 -653q2 -20 -18 -20h-57q-19 0 -19 20z" />
    <glyph glyph-name="N" unicode="N" horiz-adv-x="694" 
d="M530 152h2v517q0 20 19 20h47q20 0 20 -20v-649q0 -20 -19 -20h-44q-21 0 -34 20l-357 510h-2v-510q0 -20 -19 -20h-47q-20 0 -20 20v649q0 20 19 20h40q21 0 34 -20z" />
    <glyph glyph-name="O" unicode="O" horiz-adv-x="676" 
d="M627 349q0 -166 -82.5 -262.5t-211.5 -96.5q-134 0 -209 94t-75 258q0 162 81 260.5t212 98.5q135 0 210 -96t75 -256zM529 346q0 133 -49 205.5t-140 72.5q-86 0 -139.5 -77.5t-53.5 -201.5q0 -131 50 -205t140 -74q86 0 139 76t53 204z" />
    <glyph glyph-name="P" unicode="P" horiz-adv-x="519" 
d="M488 479q0 -110 -70 -164t-190 -54h-59v-241q0 -20 -19 -20h-54q-20 0 -20 20v646q0 23 21 23h129q121 0 191.5 -50.5t70.5 -159.5zM169 618v-286h62q78 0 120.5 33t42.5 112q0 141 -170 141h-55z" />
    <glyph glyph-name="Q" unicode="Q" horiz-adv-x="670" 
d="M476 27q18 -9 45.5 -25t48.5 -26q26 -13 66 -27q18 -5 13 -23l-11 -35q-3 -10 -9 -12.5t-18 0.5q-58 9 -136 67q-60 46 -107 46q-8 0 -22 -1t-22 -1q-69 0 -123.5 29t-86.5 79t-48.5 111.5t-16.5 131.5t18.5 133.5t53.5 114.5t92.5 81.5t129.5 30.5q73 0 129.5 -29.5
t89.5 -79.5t49.5 -112t16.5 -132q0 -103 -38 -189t-114 -132zM529 345q0 55 -9.5 102t-30 88t-59 65t-90.5 24q-64 0 -109.5 -44t-64 -105t-18.5 -130q0 -74 16 -134t60.5 -103.5t112.5 -43.5q65 0 110 43.5t63.5 105t18.5 132.5z" />
    <glyph glyph-name="R" unicode="R" horiz-adv-x="555" 
d="M169 280v-260q0 -20 -19 -20h-54q-20 0 -20 20v646q0 23 21 23h143q252 0 252 -202q0 -69 -39 -119.5t-101 -71.5l164 -274q5 -8 2 -15t-15 -7h-57q-21 0 -31 18l-150 262h-96zM169 618v-268h77q68 0 110 35.5t42 100.5q0 71 -42 101.5t-123 30.5h-64z" />
    <glyph glyph-name="S" unicode="S" horiz-adv-x="508" 
d="M235 69q57 0 98.5 28t41.5 83q0 40 -21.5 65t-66.5 49l-127 68q-110 59 -110 162q0 82 63.5 129.5t148.5 47.5q98 0 163 -32q17 -8 11 -24l-15 -40q-6 -18 -26 -9q-66 29 -128 29q-48 0 -84.5 -23.5t-36.5 -69.5q0 -37 19 -59.5t59 -43.5l107 -57q67 -35 101.5 -77.5
t34.5 -107.5q0 -94 -67 -145.5t-165 -51.5q-87 0 -168 28q-18 6 -13 25l13 45q6 18 26 10q72 -29 142 -29z" />
    <glyph glyph-name="T" unicode="T" 
d="M226 616h-190q-19 0 -19 16v41q0 16 19 16h484q20 0 17 -17l-6 -40q-2 -16 -22 -16h-190v-596q0 -20 -19 -20h-54q-20 0 -20 20v596z" />
    <glyph glyph-name="U" unicode="U" horiz-adv-x="695" 
d="M622 669v-368q0 -145 -66 -228t-208 -83q-154 0 -214.5 79.5t-60.5 237.5v362q0 20 19 20h54q20 0 20 -20v-353q0 -46 3 -78t14 -67t30 -56t53.5 -34.5t82.5 -13.5q46 0 80 14t53 36t30 56.5t14 67t3 76.5v352q0 20 19 20h54q20 0 20 -20z" />
    <glyph glyph-name="V" unicode="V" horiz-adv-x="610" 
d="M314 131h2l185 542q5 16 24 16h53q20 0 12 -20l-232 -653q-6 -16 -22 -16h-53q-15 0 -21 14l-241 652q-10 23 13 23h64q20 0 26 -18z" />
    <glyph glyph-name="W" unicode="W" horiz-adv-x="899" 
d="M638 142h2l143 528q5 19 25 19h55q21 0 14 -21l-193 -652q-5 -16 -23 -16h-50q-19 0 -24 17l-137 523h-1l-138 -523q-5 -17 -24 -17h-49q-19 0 -23 16l-191 648q-8 25 15 25h63q21 0 26 -19l141 -528h1l136 530q5 17 24 17h45q20 0 24 -17z" />
    <glyph glyph-name="X" unicode="X" horiz-adv-x="563" 
d="M330 365l210 -341q7 -9 4 -16.5t-15 -7.5h-63q-22 0 -32 18l-155 266h-1l-155 -265q-11 -19 -35 -19h-52q-10 0 -13.5 6.5t2.5 16.5l207 334l-189 311q-5 7 -2 14t14 7h59q22 0 31 -17l139 -236h1l138 237q9 16 30 16h57q10 0 13 -5.5t-2 -13.5z" />
    <glyph glyph-name="Y" unicode="Y" 
d="M234 20v250l-212 395q-6 10 -3 17t15 7h57q21 0 30 -17l164 -324h1l159 324q9 17 29 17h43q23 0 13 -21l-203 -396v-252q0 -20 -19 -20h-54q-20 0 -20 20z" />
    <glyph glyph-name="Z" unicode="Z" horiz-adv-x="541" 
d="M141 74v-1h350q19 0 19 -16v-41q0 -16 -19 -16h-444q-19 0 -19 16v28q0 15 11 31l347 540v1h-309q-19 0 -19 16v41q0 16 19 16h404q19 0 19 -16v-30q0 -15 -11 -31z" />
    <glyph glyph-name="bracketleft" unicode="[" horiz-adv-x="312" 
d="M180 -74h105q16 0 16 -16v-38q0 -16 -16 -16h-170q-21 0 -21 23v799q0 23 21 23h170q16 0 16 -16v-38q0 -16 -16 -16h-105v-705z" />
    <glyph glyph-name="backslash" unicode="\" horiz-adv-x="349" 
d="M119 684l196 -674q6 -20 -13 -20h-46q-18 0 -23 17l-197 674q-6 20 13 20h47q18 0 23 -17z" />
    <glyph glyph-name="bracketright" unicode="]" horiz-adv-x="312" 
d="M27 -74h105v705h-105q-16 0 -16 16v38q0 16 16 16h170q21 0 21 -23v-799q0 -23 -21 -23h-170q-16 0 -16 16v38q0 16 16 16z" />
    <glyph glyph-name="asciicircum" unicode="^" 
d="M449 372q-17 -11 -27 6l-149 214l-150 -210q-7 -9 -11.5 -10.5t-13.5 3.5l-36 25q-14 11 -4 27l183 248q11 14 25 14h24q14 0 23 -15l179 -261q9 -14 -4 -21z" />
    <glyph glyph-name="underscore" unicode="_" horiz-adv-x="510" 
d="M20 -83h471q14 0 14 -14v-29q0 -13 -14 -13h-471q-15 0 -15 13v29q0 14 15 14z" />
    <glyph glyph-name="grave" unicode="`" horiz-adv-x="325" 
d="M258 586l-12 -21q-8 -13 -25 -5l-151 76q-18 9 -6 26l21 32q10 16 29 4l139 -89q13 -9 5 -23z" />
    <glyph glyph-name="a" unicode="a" horiz-adv-x="543" 
d="M389 74h-2q-18 -34 -61.5 -59t-88.5 -25q-98 0 -148.5 70t-50.5 173q0 121 61.5 191t151.5 70q39 0 75.5 -16t58.5 -45l1 32q0 18 19 18h44q19 0 19 -19v-350q0 -31 3.5 -42.5t18.5 -11.5h4q17 0 17 -15v-30q0 -15 -17 -15h-40q-31 0 -48 21t-17 53zM383 162v192
q-18 33 -51 52.5t-70 19.5q-59 0 -97 -50t-38 -137q0 -81 34 -129.5t89 -48.5q45 0 81.5 30t51.5 71z" />
    <glyph glyph-name="b" unicode="b" horiz-adv-x="539" 
d="M152 694v-257q59 57 144 57q76 0 127 -45q76 -67 76 -206q0 -108 -55.5 -180.5t-153.5 -72.5q-45 0 -83.5 17t-60.5 45l-2 -36q-1 -16 -20 -16h-38q-19 0 -19 19v664q0 19 15 21l50 7q20 3 20 -17zM279 424q-33 0 -68 -17t-59 -43v-239q48 -66 126 -66q64 0 98 51.5
t34 128.5q0 85 -32 135t-99 50z" />
    <glyph glyph-name="c" unicode="c" horiz-adv-x="440" 
d="M417 444l-11 -31q-5 -15 -21 -8q-51 23 -102 23q-71 0 -113 -49.5t-42 -133.5q0 -83 37.5 -136.5t113.5 -53.5q59 0 111 23q15 6 20 -8l9 -28q5 -16 -11 -24q-60 -28 -135 -28q-114 0 -173.5 67.5t-59.5 183.5q0 112 64 182.5t175 70.5q73 0 129 -29q14 -8 9 -21z" />
    <glyph glyph-name="d" unicode="d" horiz-adv-x="540" 
d="M393 55q-24 -29 -64.5 -47t-82.5 -18q-102 0 -154 71t-52 178q0 112 60 183.5t158 71.5q36 0 72.5 -15t57.5 -40v244q0 19 15 21l50 7q20 3 20 -17v-673q0 -21 -20 -21h-38q-21 0 -21 20zM388 124v233q-16 29 -49 49t-69 20q-67 0 -104.5 -49.5t-37.5 -133.5
q0 -82 35.5 -133.5t98.5 -51.5q35 0 71 19.5t55 46.5z" />
    <glyph glyph-name="e" unicode="e" horiz-adv-x="499" 
d="M436 229h-307q2 -74 42.5 -121.5t111.5 -47.5q75 0 123 21q17 7 22 -7l12 -33q5 -14 -10 -22q-57 -29 -158 -29q-112 0 -172 68.5t-60 183.5q0 112 62 182t168 70q94 0 145 -60t51 -152v-25q0 -18 -5.5 -23t-24.5 -5zM131 287h251v18q0 54 -30 88.5t-86 34.5
q-59 0 -94 -40t-41 -101z" />
    <glyph glyph-name="f" unicode="f" horiz-adv-x="345" 
d="M177 483h123q15 0 15 -15v-30q0 -15 -15 -15h-123v-402q0 -21 -20 -21h-45q-20 0 -20 21v402h-57q-15 0 -15 15v30q0 15 15 15h57v19q0 44 4 80q9 66 49 102.5t109 36.5q53 0 94 -18q14 -6 10 -20l-10 -33q-4 -15 -21 -9q-32 12 -63 12q-49 0 -68 -30.5t-19 -92.5v-47z
" />
    <glyph glyph-name="g" unicode="g" horiz-adv-x="540" 
d="M391 435l1 31q0 17 20 17h44q18 0 18 -20v-437q0 -246 -225 -246q-77 0 -143 34q-17 9 -11 23l15 36q6 16 22 7q58 -30 115 -30q80 0 111 40t31 123v46q-23 -26 -64 -42.5t-79 -16.5q-101 0 -153.5 68t-52.5 173q0 106 58 179.5t161 73.5q37 0 74 -16t58 -43zM389 132
v225q-17 30 -50.5 49.5t-69.5 19.5q-71 0 -105.5 -52t-34.5 -128q0 -73 31.5 -125t99.5 -52q36 0 73 18t56 45z" />
    <glyph glyph-name="h" unicode="h" horiz-adv-x="538" 
d="M152 365v-344q0 -21 -20 -21h-45q-20 0 -20 21v662q0 19 15 21l50 7q20 3 20 -17v-259q67 59 164 59q157 0 157 -179v-294q0 -21 -20 -21h-45q-20 0 -20 21v280q0 59 -21 90.5t-76 31.5q-34 0 -73 -16.5t-66 -41.5z" />
    <glyph glyph-name="i" unicode="i" horiz-adv-x="235" 
d="M117 649q22 0 37 -13.5t15 -34.5t-14.5 -34.5t-36.5 -13.5t-37 13.5t-15 34.5t14.5 34.5t36.5 13.5zM160 463v-442q0 -21 -20 -21h-45q-20 0 -20 21v442q0 20 20 20h46q19 0 19 -20z" />
    <glyph glyph-name="j" unicode="j" horiz-adv-x="262" 
d="M186 464v-440q0 -119 -40.5 -181.5t-145.5 -62.5q-33 0 -56 6q-15 4 -12 17l6 37q3 15 16 11q22 -5 49 -5q26 0 44 9t28.5 23t16.5 37t7.5 44.5t1.5 51.5v453q0 19 19 19h48q18 0 18 -19zM144 649q22 0 37 -13.5t15 -34.5t-14.5 -34.5t-36.5 -13.5t-37 13.5t-15 34.5
t14.5 34.5t36.5 13.5z" />
    <glyph glyph-name="k" unicode="k" horiz-adv-x="443" 
d="M152 197v-176q0 -21 -20 -21h-45q-20 0 -20 21v662q0 19 15 21l50 7q20 3 20 -17v-404h2l153 179q11 14 28 14h47q13 0 16 -7t-5 -16l-151 -172l179 -263q7 -10 4.5 -17.5t-15.5 -7.5h-54q-22 0 -33 17l-141 212z" />
    <glyph glyph-name="l" unicode="l" horiz-adv-x="219" 
d="M152 694v-673q0 -21 -20 -21h-45q-20 0 -20 21v662q0 19 15 21l50 7q20 3 20 -17z" />
    <glyph glyph-name="m" unicode="m" horiz-adv-x="827" 
d="M152 365v-344q0 -21 -20 -21h-45q-20 0 -20 21v442q0 20 19 20h43q20 0 20 -18l1 -31q66 60 152 60q92 0 130 -62q70 62 166 62q164 0 164 -196v-277q0 -21 -20 -21h-45q-20 0 -20 21v280q0 61 -21 92t-78 31q-64 0 -125 -47q8 -25 8 -110v-246q0 -21 -20 -21h-45
q-20 0 -20 21v281q0 59 -19.5 90.5t-74.5 31.5q-66 0 -130 -59z" />
    <glyph glyph-name="n" unicode="n" horiz-adv-x="538" 
d="M152 365v-344q0 -21 -20 -21h-45q-20 0 -20 21v442q0 20 19 20h44q19 0 19 -18l1 -31q71 60 164 60q159 0 159 -179v-294q0 -21 -20 -21h-45q-20 0 -20 21v280q0 59 -21 90.5t-77 31.5q-34 0 -72.5 -16.5t-65.5 -41.5z" />
    <glyph glyph-name="o" unicode="o" horiz-adv-x="535" 
d="M495 242q0 -110 -61.5 -181t-169.5 -71q-111 0 -167.5 70t-56.5 183q0 110 61 180.5t169 70.5q112 0 168.5 -69t56.5 -183zM407 241q0 79 -33 133t-105 54q-74 0 -107.5 -53t-33.5 -130q0 -80 32 -134.5t105 -54.5t107.5 53.5t34.5 131.5z" />
    <glyph glyph-name="p" unicode="p" horiz-adv-x="541" 
d="M501 246q0 -107 -57 -181.5t-160 -74.5q-38 0 -74 14.5t-58 41.5v-240q0 -21 -20 -21h-45q-20 0 -20 21v657q0 20 19 20h41q19 0 19 -18l1 -35q24 29 65 46.5t84 17.5q101 0 153 -71.5t52 -176.5zM412 244q0 77 -31 129.5t-102 52.5q-35 0 -71.5 -18.5t-55.5 -45.5v-235
q16 -30 50.5 -50t70.5 -20q71 0 105 55t34 132z" />
    <glyph glyph-name="q" unicode="q" horiz-adv-x="539" 
d="M391 436l1 31q0 16 20 16h41q19 0 19 -20v-657q0 -21 -20 -21h-45q-20 0 -20 21v246q-26 -29 -64.5 -45.5t-79.5 -16.5q-102 0 -152.5 71t-50.5 180q0 108 56.5 180.5t160.5 72.5q38 0 75 -15t59 -43zM387 127v227q-18 30 -52 51t-69 21q-72 0 -105 -52.5t-33 -130.5
q0 -47 10.5 -85.5t41.5 -68t78 -29.5q36 0 72 19.5t57 47.5z" />
    <glyph glyph-name="r" unicode="r" horiz-adv-x="318" 
d="M152 362v-341q0 -21 -20 -21h-45q-20 0 -20 21v442q0 20 19 20h44q19 0 19 -18l1 -34q46 63 117 63q18 0 27 -4t8 -14l-7 -45q-2 -12 -14 -12q-1 0 -10.5 1.5t-18.5 1.5q-26 0 -53.5 -16t-46.5 -44z" />
    <glyph glyph-name="s" unicode="s" horiz-adv-x="401" 
d="M208 209l-67 26q-100 39 -100 126q0 63 48 98t118 35q71 0 129 -27q13 -6 9 -19l-12 -33q-4 -14 -20 -8q-55 24 -104 24q-42 0 -63.5 -18.5t-21.5 -45.5q0 -24 15.5 -38.5t49.5 -29.5l77 -33q101 -42 101 -127q0 -68 -51 -108.5t-132 -40.5q-75 0 -137 32q-14 8 -9 20
l13 34q5 15 19 9q68 -30 116 -30q44 0 70.5 20.5t26.5 55.5q0 28 -18.5 46t-56.5 32z" />
    <glyph glyph-name="t" unicode="t" horiz-adv-x="349" 
d="M88 483v113q0 18 15 21l50 7q20 3 20 -17v-124h117q15 0 15 -15v-30q0 -15 -15 -15h-117v-269q0 -52 14.5 -74.5t56.5 -22.5q30 0 61 11q17 7 21 -9l9 -30q4 -14 -13 -21q-46 -18 -94 -18q-82 0 -111 37.5t-29 120.5v275h-55q-15 0 -15 15v30q0 15 15 15h55z" />
    <glyph glyph-name="u" unicode="u" horiz-adv-x="534" 
d="M380 122v341q0 20 20 20h46q19 0 19 -20v-443q0 -20 -19 -20h-44q-19 0 -19 18l-1 32q-71 -60 -158 -60q-157 0 -157 181v292q0 20 20 20h46q19 0 19 -20v-279q0 -60 20 -90.5t76 -30.5q32 0 69.5 17.5t62.5 41.5z" />
    <glyph glyph-name="v" unicode="v" horiz-adv-x="454" 
d="M231 94h1l120 373q5 16 25 16h46q20 0 13 -20l-163 -447q-7 -16 -23 -16h-48q-18 0 -24 16l-162 449q-7 18 14 18h55q20 0 24 -14z" />
    <glyph glyph-name="w" unicode="w" horiz-adv-x="691" 
d="M494 98h2l94 368q5 17 24 17h47q18 0 12 -20l-132 -445q-6 -18 -24 -18h-54q-19 0 -24 18l-95 339h-1l-92 -340q-5 -17 -25 -17h-53q-19 0 -24 18l-132 445q-6 20 15 20h52q21 0 24 -14l95 -370h2l102 369q4 15 20 15h45q14 0 18 -12z" />
    <glyph glyph-name="x" unicode="x" horiz-adv-x="470" 
d="M240 317h1l103 152q10 14 26 14h53q11 0 13.5 -5.5t-4.5 -14.5l-149 -203l163 -238q6 -9 3 -15.5t-14 -6.5h-59q-22 0 -32 16l-112 179h-1l-117 -180q-9 -15 -29 -15h-57q-7 0 -9 6t3 13l167 232l-142 212q-5 7 -2 13.5t12 6.5h60q18 0 26 -14z" />
    <glyph glyph-name="y" unicode="y" horiz-adv-x="478" 
d="M253 96l126 371q5 16 25 16h48q20 0 13 -20l-193 -521q-33 -90 -77.5 -126t-124.5 -36q-24 0 -46 6q-14 4 -12 18l7 40q3 14 16 13q28 -4 38 -4q78 0 109 76l25 63l-179 473q-7 18 14 18h57q20 0 24 -14z" />
    <glyph glyph-name="z" unicode="z" horiz-adv-x="415" 
d="M129 62v-1h240q15 0 15 -15v-31q0 -15 -15 -15h-318q-17 0 -17 17v27q0 14 13 34l228 344v1h-210q-15 0 -15 15v30q0 15 15 15h290q17 0 17 -17v-24q0 -14 -13 -34z" />
    <glyph glyph-name="braceleft" unicode="{" horiz-adv-x="336" 
d="M112 287v-1q69 -5 73 -149l3 -127q2 -89 69 -89h44q14 0 17 -11l7 -29q2 -8 -2 -12t-16 -4h-58q-137 0 -140 142l-3 147q-1 51 -12.5 76t-40.5 29q-12 1 -14.5 4t-2.5 12v22q0 15 16 16q52 5 54 98l3 154q1 70 39 106t101 36h64q17 0 13 -14l-7 -29q-3 -13 -14 -13h-48
q-67 0 -69 -90l-3 -133q-1 -66 -21 -102.5t-52 -38.5z" />
    <glyph glyph-name="bar" unicode="|" horiz-adv-x="206" 
d="M63 1v689q0 21 20 21h40q20 0 20 -21v-689q0 -21 -20 -21h-40q-20 0 -20 21z" />
    <glyph glyph-name="braceright" unicode="}" horiz-adv-x="336" 
d="M224 285v1q-69 5 -73 149l-3 127q-2 89 -69 89h-44q-14 0 -17 11l-7 29q-2 8 2 12t16 4h58q137 0 140 -142l3 -147q1 -51 12.5 -76t40.5 -29q12 -1 14.5 -4t2.5 -12v-22q0 -15 -16 -16q-52 -5 -54 -98l-3 -154q-1 -70 -39 -106t-101 -36h-64q-17 0 -13 14l7 29
q3 13 14 13h48q67 0 69 90l3 133q1 66 21 102.5t52 38.5z" />
    <glyph glyph-name="asciitilde" unicode="~" 
d="M275 249l-35 20q-31 17 -56 17q-49 0 -69 -32q-11 -19 -27 -11l-26 13q-14 7 -6 26q18 38 55.5 58.5t79.5 20.5q39 0 81 -25l35 -20q29 -17 58 -17q45 0 66 35q8 17 26 9l28 -12q17 -7 8 -26q-42 -81 -137 -81q-37 0 -81 25z" />
    <glyph glyph-name="nbspace" unicode="&#xa0;" horiz-adv-x="232" 
 />
    <glyph glyph-name="exclamdown" unicode="&#xa1;" horiz-adv-x="247" 
d="M77 -185l10 503q0 17 17 17h35q18 0 18 -17l9 -503q0 -20 -19 -20h-50q-20 0 -20 20zM123 385q-23 0 -40 14.5t-17 39.5q0 26 17 40.5t41 14.5q23 0 40 -14.5t17 -39.5q0 -26 -17 -40.5t-41 -14.5z" />
    <glyph glyph-name="cent" unicode="&#xa2;" 
d="M458 444l-11 -31q-5 -15 -21 -8q-43 18 -78 22v-371q42 3 83 22q15 6 20 -8l9 -28q5 -16 -11 -24q-47 -21 -101 -26v-75q0 -14 -14 -14h-25q-14 0 -14 14v74q-105 6 -159.5 73t-54.5 177q0 105 57 174t157 77v82q0 14 14 14h25q14 0 14 -14v-81q57 -6 101 -28
q14 -8 9 -21zM169 245q0 -75 31.5 -127t94.5 -61v368q-59 -10 -92.5 -57.5t-33.5 -122.5z" />
    <glyph glyph-name="sterling" unicode="&#xa3;" 
d="M396 322h-156v-102q0 -105 -54 -144v-3h295q19 0 19 -16v-41q0 -16 -19 -16h-400q-19 0 -19 16v29q0 17 16 25q72 37 72 144v108h-50q-18 0 -18 15v36q0 15 18 15h50v94q0 102 49 160.5t147 58.5q76 0 133 -27q10 -5 6 -19l-12 -37q-4 -15 -18 -10q-52 19 -98 19
q-117 0 -117 -138v-101h156q18 0 18 -15v-36q0 -15 -18 -15z" />
    <glyph glyph-name="currency" unicode="&#xa4;" 
d="M49 421h51q11 125 85.5 202.5t185.5 77.5q80 0 149 -37q17 -9 9 -25l-18 -34q-7 -14 -22 -7q-59 28 -108 28q-70 0 -118 -46q-58 -58 -64 -159h219q16 0 12 -14l-8 -29q-4 -13 -19 -13h-210v-13q0 -18 2 -48h201q16 0 12 -14l-8 -29q-4 -13 -19 -13h-179q10 -86 57 -136
q44 -47 114 -47q50 0 118 28q19 7 25 -9l12 -29q4 -12 1.5 -17t-12.5 -11q-69 -37 -154 -37q-110 0 -178.5 69.5t-83.5 188.5h-52q-10 0 -13.5 3.5t-3.5 12.5v24q0 9 3.5 12.5t13.5 3.5h46q-1 13 -1 40v21h-45q-10 0 -13.5 3.5t-3.5 12.5v24q0 9 3.5 12.5t13.5 3.5z" />
    <glyph glyph-name="yen" unicode="&#xa5;" 
d="M354 323h87q10 0 13 -3.5t3 -13.5v-23q0 -11 -3.5 -14t-14.5 -3h-111v-50h113q10 0 13 -3.5t3 -13.5v-23q0 -11 -3.5 -14t-14.5 -3h-111v-139q0 -20 -19 -20h-54q-20 0 -20 20v139h-107q-11 0 -14 3.5t-3 15.5v20q0 11 3.5 14.5t14.5 3.5h106v50h-107q-11 0 -14 3.5
t-3 15.5v20q0 11 3.5 14.5t14.5 3.5h77l-183 342q-6 10 -3 17t15 7h57q21 0 30 -17l164 -324h1l159 324q8 17 29 17h43q24 0 13 -21z" />
    <glyph glyph-name="brokenbar" unicode="&#xa6;" horiz-adv-x="206" 
d="M63 1v231q0 21 20 21h40q20 0 20 -21v-231q0 -21 -20 -21h-40q-20 0 -20 21zM63 459v231q0 21 20 21h40q20 0 20 -21v-231q0 -21 -20 -21h-40q-20 0 -20 21z" />
    <glyph glyph-name="section" unicode="&#xa7;" horiz-adv-x="465" 
d="M354 234q47 -40 47 -95q0 -68 -51 -108.5t-131 -40.5q-79 0 -137 26q-15 6 -10 21l12 34q6 16 19 9q58 -25 118 -25q43 0 70.5 20.5t27.5 54.5q0 28 -18.5 45.5t-56.5 33.5l-68 28q-103 43 -103 126q0 68 61 105q-56 40 -56 100q0 63 49.5 98t120.5 35q70 0 127 -23
q12 -4 9 -16l-12 -38q-4 -13 -20 -7q-49 20 -100 20q-39 0 -62.5 -18t-23.5 -44q0 -44 63 -71l77 -33q102 -43 102 -127q0 -67 -54 -110zM328 334q0 28 -19 45.5t-60 34.5l-45 19q-48 -21 -48 -61q0 -24 15.5 -40.5t48.5 -31.5l70 -30q38 25 38 64z" />
    <glyph glyph-name="dieresis" unicode="&#xa8;" horiz-adv-x="325" 
d="M75 701q21 0 35.5 -13t14.5 -35q0 -23 -15 -36t-36 -13t-36 13t-15 35q0 23 15 36t37 13zM252 701q21 0 35.5 -13t14.5 -35q0 -23 -15 -36t-36 -13t-36 13t-15 35q0 23 15 36t37 13z" />
    <glyph glyph-name="copyright" unicode="&#xa9;" horiz-adv-x="832" 
d="M325 347q0 -59 27.5 -98.5t79.5 -39.5q44 0 77 17q11 5 15 -4l8 -20q5 -11 -8 -17q-41 -21 -99 -21q-77 0 -117 51t-40 130q0 76 43.5 129t117.5 53q53 0 94 -22q11 -6 6 -18l-8 -17q-5 -13 -17 -6q-34 18 -72 18q-52 0 -79.5 -39t-27.5 -96zM777 347q0 -156 -103 -256.5
t-258 -100.5q-156 0 -258.5 100.5t-102.5 256.5t102.5 255t258.5 99t258.5 -99t102.5 -255zM711 346q0 130 -83 211.5t-212 81.5t-212 -81.5t-83 -211.5t83 -212t212 -82t212 82t83 212z" />
    <glyph glyph-name="ordfeminine" unicode="&#xaa;" horiz-adv-x="299" 
d="M201 352l-3 15q-31 -31 -79 -31q-38 0 -64.5 22.5t-26.5 61.5q0 93 167 86v3q0 27 -12 41t-42 14q-32 0 -68 -13q-15 -6 -19 5l-7 19q-6 15 7 21q41 19 92 19q61 0 88 -28q26 -27 26 -86v-149q0 -12 -13 -12h-31q-12 0 -15 12zM195 410v57q-101 4 -101 -45
q0 -16 11.5 -26.5t31.5 -10.5q35 0 58 25z" />
    <glyph glyph-name="guillemotleft" unicode="&#xab;" horiz-adv-x="463" 
d="M135 229l82 -135q9 -14 -4 -21l-24 -14q-13 -7 -22 4l-110 147q-6 9 -6 16q0 12 7 20l108 142q9 12 21 6l27 -15q12 -7 4 -20zM311 229l82 -135q9 -14 -4 -21l-24 -14q-13 -7 -22 4l-110 147q-6 9 -6 16q0 12 7 20l108 142q9 12 21 6l27 -15q12 -7 4 -20z" />
    <glyph glyph-name="logicalnot" unicode="&#xac;" 
d="M394 289h-322q-18 0 -18 16v42q0 16 18 16h374q15 0 20 -5t5 -17v-178q0 -17 -18 -17h-41q-18 0 -18 17v126z" />
    <glyph glyph-name="uni00AD" unicode="&#xad;" horiz-adv-x="277" 
d="M60 301h157q19 0 19 -20v-39q0 -19 -19 -19h-157q-19 0 -19 19v39q0 20 19 20z" />
    <glyph glyph-name="registered" unicode="&#xae;" horiz-adv-x="832" 
d="M777 347q0 -156 -103 -256.5t-258 -100.5q-156 0 -258.5 100.5t-102.5 256.5t102.5 255t258.5 99t258.5 -99t102.5 -255zM711 346q0 130 -83 211.5t-212 81.5t-212 -81.5t-83 -211.5t83 -212t212 -82t212 82t83 212zM368 308v-127q0 -13 -12 -13h-30q-12 0 -12 13v327
q0 13 13 13h73q130 0 130 -105q0 -35 -19 -60.5t-50 -37.5l82 -137q7 -13 -7 -13h-34q-12 0 -17 9l-75 131h-42zM368 351h35q32 0 52 16.5t20 47.5q0 62 -79 62h-28v-126z" />
    <glyph glyph-name="macron" unicode="&#xaf;" horiz-adv-x="325" 
d="M49 655h227q19 0 19 -20v-24q0 -19 -19 -19h-227q-19 0 -19 19v24q0 20 19 20z" />
    <glyph glyph-name="degree" unicode="&#xb0;" horiz-adv-x="291" 
d="M253 595q0 -50 -30.5 -78t-75.5 -28q-47 0 -78 28t-31 78t31.5 78t77.5 28q45 0 75.5 -28t30.5 -78zM197 595q0 25 -14 38t-36 13t-37 -13t-15 -38q0 -26 14.5 -39t37.5 -13q22 0 36 13t14 39z" />
    <glyph glyph-name="plusminus" unicode="&#xb1;" 
d="M483 58v-42q0 -16 -18 -16h-380q-18 0 -18 16v42q0 16 18 16h380q18 0 18 -16zM483 387v-42q0 -16 -18 -16h-150v-161q0 -17 -18 -17h-43q-18 0 -18 17v161h-151q-18 0 -18 16v42q0 16 18 16h151v163q0 17 18 17h43q18 0 18 -17v-163h150q18 0 18 -16z" />
    <glyph glyph-name="twosuperior" unicode="&#xb2;" horiz-adv-x="302" 
d="M33 457v13q0 13 4.5 21t22.5 26q76 76 103 111.5t27 69.5q0 24 -13.5 37.5t-38.5 13.5q-30 0 -70 -21q-10 -5 -16 6l-12 20q-7 12 4 19q48 29 101 29q51 0 82 -26.5t31 -71.5q0 -42 -32 -88.5t-112 -116.5h132q14 0 14 -13v-27q0 -13 -13 -13h-201q-13 0 -13 11z" />
    <glyph glyph-name="threesuperior" unicode="&#xb3;" horiz-adv-x="302" 
d="M90 622v22q0 12 12 12h11q39 0 55 16q13 13 13 33q0 21 -14.5 32.5t-38.5 11.5q-27 0 -62 -15q-11 -5 -15 4l-10 24q-6 13 6 19q44 21 90 21q57 0 87 -30q23 -23 23 -60q0 -51 -52 -75q30 -8 48.5 -31.5t18.5 -55.5q0 -47 -32 -76q-35 -32 -96 -32q-51 0 -95 22
q-12 6 -7 17l10 25q5 12 18 6q36 -16 69 -16q30 0 47.5 15t17.5 40q0 27 -15 40q-20 19 -68 19h-8q-13 0 -13 12z" />
    <glyph glyph-name="acute" unicode="&#xb4;" horiz-adv-x="325" 
d="M241 692l20 -33q13 -17 -6 -25l-153 -79q-15 -7 -24 6l-12 20q-9 15 5 24l141 91q18 12 29 -4z" />
    <glyph glyph-name="micro" unicode="&#xb5;" horiz-adv-x="558" 
d="M381 463q0 20 20 20h45q20 0 20 -20v-328q0 -40 4.5 -54t18.5 -14t25 7q4 4 12.5 2.5t11.5 -9.5l12 -26q7 -14 -9 -24q-33 -22 -75 -22q-62 0 -78 56q-61 -61 -142 -61q-67 0 -95 30v-169q0 -20 -20 -20h-44q-20 0 -20 20v612q0 20 20 20h45q20 0 20 -20v-282
q0 -69 25 -97q23 -26 73 -26q69 0 131 57v348z" />
    <glyph glyph-name="paragraph" unicode="&#xb6;" horiz-adv-x="521" 
d="M288 621v-741q0 -21 -20 -21h-43q-20 0 -20 21v486q-68 4 -113.5 49.5t-45.5 111.5q0 67 47.5 114.5t115.5 47.5h211q20 0 20 -21v-788q0 -21 -19 -21h-28q-19 0 -19 21v741h-86z" />
    <glyph glyph-name="periodcentered" unicode="&#xb7;" horiz-adv-x="204" 
d="M103 343q23 0 40 -14.5t17 -39.5q0 -26 -17 -40.5t-41 -14.5q-23 0 -40 14.5t-17 39.5q0 26 17 40.5t41 14.5z" />
    <glyph glyph-name="cedilla" unicode="&#xb8;" horiz-adv-x="325" 
d="M174 -43h12q88 0 88 -79q0 -36 -27 -59t-80 -23q-47 0 -73 13q-13 6 -9 18l8 23q5 15 20 8q21 -9 52 -9q36 0 36 28q0 29 -40 29h-29q-18 0 -23 7.5t-3 24.5l8 73h64z" />
    <glyph glyph-name="onesuperior" unicode="&#xb9;" horiz-adv-x="302" 
d="M165 798h27q13 0 13 -12v-328q0 -12 -13 -12h-40q-13 0 -13 12v272l-66 -39q-13 -7 -18 4l-15 24q-6 11 5 18l87 51q17 10 33 10z" />
    <glyph glyph-name="ordmasculine" unicode="&#xba;" horiz-adv-x="312" 
d="M290 475q0 -61 -36 -100t-98 -39t-98 39t-36 100t36 100.5t98 39.5t98 -39.5t36 -100.5zM223 475q0 42 -17.5 66t-49.5 24t-49.5 -24t-17.5 -66t17.5 -65.5t49.5 -23.5t49.5 23.5t17.5 65.5z" />
    <glyph glyph-name="guillemotright" unicode="&#xbb;" horiz-adv-x="463" 
d="M153 224l-82 135q-9 14 4 21l24 14q13 7 22 -4l110 -147q6 -9 6 -17q0 -11 -7 -19l-108 -143q-9 -12 -21 -6l-27 16q-12 7 -4 20zM328 224l-82 135q-9 14 4 21l24 14q13 7 22 -4l110 -147q6 -9 6 -17q0 -11 -7 -19l-108 -143q-9 -12 -21 -6l-27 16q-12 7 -4 20z" />
    <glyph glyph-name="onequarter" unicode="&#xbc;" horiz-adv-x="788" 
d="M186 692h27q13 0 13 -12v-328q0 -12 -13 -12h-40q-13 0 -13 12v272l-66 -39q-13 -7 -18 4l-15 24q-6 11 5 18l87 51q17 10 33 10zM635 678l-417 -669q-11 -19 -34 -19h-29q-27 0 -13 23l417 669q8 12 14 15.5t20 3.5h28q29 0 14 -23zM644 130v70q0 12 13 12h39
q13 0 13 -12v-188q0 -12 -13 -12h-39q-13 0 -13 12v65h-163q-14 0 -14 14v8q0 22 9 43l86 198q5 12 18 12h38q17 0 10 -16l-89 -206h105z" />
    <glyph glyph-name="onehalf" unicode="&#xbd;" horiz-adv-x="788" 
d="M186 692h27q13 0 13 -12v-328q0 -12 -13 -12h-40q-13 0 -13 12v272l-66 -39q-13 -7 -18 4l-15 24q-6 11 5 18l87 51q17 10 33 10zM635 678l-417 -669q-11 -19 -34 -19h-29q-27 0 -13 23l417 669q8 12 14 15.5t20 3.5h28q29 0 14 -23zM495 11v13q0 13 4.5 21t22.5 26
q76 76 103 111.5t27 69.5q0 24 -13.5 37.5t-38.5 13.5q-30 0 -70 -21q-10 -5 -16 6l-12 20q-7 12 4 19q48 29 101 29q51 0 82 -26.5t31 -71.5q0 -42 -32 -88.5t-112 -116.5h132q14 0 14 -13v-27q0 -13 -13 -13h-201q-13 0 -13 11z" />
    <glyph glyph-name="threequarters" unicode="&#xbe;" horiz-adv-x="788" 
d="M114 516v22q0 12 12 12h11q39 0 55 16q13 13 13 33q0 21 -14.5 32.5t-38.5 11.5q-27 0 -62 -15q-11 -5 -15 4l-10 24q-6 13 6 19q43 21 90 21q57 0 87 -30q23 -23 23 -60q0 -51 -52 -75q30 -8 48.5 -31.5t18.5 -55.5q0 -47 -32 -76q-35 -32 -96 -32q-51 0 -95 22
q-12 6 -7 17l10 25q5 12 18 6q36 -16 69 -16q30 0 47.5 15t17.5 40q0 27 -15 40q-20 19 -68 19h-8q-13 0 -13 12zM639 678l-417 -669q-11 -19 -34 -19h-29q-27 0 -13 23l417 669q8 12 14 15.5t20 3.5h28q29 0 14 -23zM644 130v70q0 12 13 12h39q13 0 13 -12v-188
q0 -12 -13 -12h-39q-13 0 -13 12v65h-163q-14 0 -14 14v8q0 22 9 43l86 198q5 12 18 12h38q17 0 10 -16l-89 -206h105z" />
    <glyph glyph-name="questiondown" unicode="&#xbf;" horiz-adv-x="421" 
d="M53 -63q0 74 61 140l73 79q50 55 50 97q0 9 -3 33q-1 16 14 16h40q12 0 16 -14q5 -20 5 -49q0 -59 -46 -108l-73 -76q-54 -57 -54 -106q0 -54 32 -77.5t79 -23.5q54 0 98 25q14 8 19 -7l13 -33q5 -13 -7 -19q-61 -34 -141 -34q-74 0 -125 42.5t-51 114.5zM262 385
q-23 0 -40 14.5t-17 39.5q0 26 17 40.5t41 14.5q23 0 40 -14.5t17 -39.5q0 -26 -17 -40.5t-41 -14.5z" />
    <glyph glyph-name="Agrave" unicode="&#xc0;" horiz-adv-x="608" 
d="M170 204l-69 -188q-5 -16 -24 -16h-55q-20 0 -12 20l251 655q5 14 18 14h53q14 0 18 -12l247 -657q8 -20 -13 -20h-64q-19 0 -24 16l-67 188h-259zM194 273h211l-103 297h-1zM397 786l-12 -21q-8 -13 -25 -5l-151 76q-18 9 -6 26l21 32q10 16 29 4l139 -89q13 -9 5 -23z
" />
    <glyph glyph-name="Aacute" unicode="&#xc1;" horiz-adv-x="608" 
d="M170 204l-69 -188q-5 -16 -24 -16h-55q-20 0 -12 20l251 655q5 14 18 14h53q14 0 18 -12l247 -657q8 -20 -13 -20h-64q-19 0 -24 16l-67 188h-259zM194 273h211l-103 297h-1zM386 895l20 -33q13 -17 -6 -25l-153 -79q-15 -8 -24 6l-12 20q-9 15 5 24l141 91q18 12 29 -4z
" />
    <glyph glyph-name="Acircumflex" unicode="&#xc2;" horiz-adv-x="608" 
d="M170 204l-69 -188q-5 -16 -24 -16h-55q-20 0 -12 20l251 655q5 14 18 14h53q14 0 18 -12l247 -657q8 -20 -13 -20h-64q-19 0 -24 16l-67 188h-259zM194 273h211l-103 297h-1zM300 835l-97 -76q-15 -12 -25 0l-14 15q-9 11 1 21l105 95q10 8 21 8h18q12 0 20 -7l110 -98
q10 -10 1 -21l-15 -16q-11 -11 -22 -2z" />
    <glyph glyph-name="Atilde" unicode="&#xc3;" horiz-adv-x="608" 
d="M170 204l-69 -188q-5 -16 -24 -16h-55q-20 0 -12 20l251 655q5 14 18 14h53q14 0 18 -12l247 -657q8 -20 -13 -20h-64q-19 0 -24 16l-67 188h-259zM194 273h211l-103 297h-1zM296 786l-23 11q-28 14 -44 14q-18 0 -26.5 -6t-16.5 -21q-9 -18 -26 -9l-20 10q-15 6 -8 24
q25 66 105 66q33 0 73 -20l24 -12q26 -13 47 -13q23 0 36 23q12 20 29 11l20 -10q11 -6 6 -21q-12 -34 -38.5 -51.5t-60.5 -17.5q-31 0 -77 22z" />
    <glyph glyph-name="Adieresis" unicode="&#xc4;" horiz-adv-x="608" 
d="M170 204l-69 -188q-5 -16 -24 -16h-55q-20 0 -12 20l251 655q5 14 18 14h53q14 0 18 -12l247 -657q8 -20 -13 -20h-64q-19 0 -24 16l-67 188h-259zM194 273h211l-103 297h-1zM215 865q21 0 35.5 -13t14.5 -35q0 -23 -15 -36t-36 -13t-36 13t-15 35q0 23 15 36t37 13z
M392 865q21 0 35.5 -13t14.5 -35q0 -23 -15 -36t-36 -13t-36 13t-15 35q0 23 15 36t37 13z" />
    <glyph glyph-name="Aring" unicode="&#xc5;" horiz-adv-x="608" 
d="M170 204l-69 -188q-5 -16 -24 -16h-55q-20 0 -12 20l251 655q5 14 18 14h53q14 0 18 -12l247 -657q8 -20 -13 -20h-64q-19 0 -24 16l-67 188h-259zM194 273h211l-103 297h-1zM397 820q0 -39 -27 -66.5t-68 -27.5q-40 0 -67.5 27.5t-27.5 66.5q0 38 27.5 66t67.5 28
q41 0 68 -27.5t27 -66.5zM340 820q0 16 -11 26.5t-27 10.5t-27 -10.5t-11 -26.5t11 -26.5t27 -10.5t27 10.5t11 26.5z" />
    <glyph glyph-name="AE" unicode="&#xc6;" horiz-adv-x="879" 
d="M538 616v-219h236q19 0 19 -16v-40q0 -16 -19 -16h-236v-252h278q19 0 19 -16v-41q0 -16 -19 -16h-350q-21 0 -21 23v182h-223l-120 -188q-11 -17 -30 -17h-56q-21 0 -8 21l416 648q13 20 39 20h353q20 0 17 -17l-6 -40q-2 -16 -22 -16h-267zM261 274h184v290z" />
    <glyph glyph-name="Ccedilla" unicode="&#xc7;" horiz-adv-x="591" 
d="M380 -43h12q88 0 88 -79q0 -36 -27 -59t-80 -23q-47 0 -73 13q-13 6 -9 18l8 23q5 15 20 8q21 -9 52 -9q36 0 36 28q0 29 -40 29h-29q-18 0 -23 7.5t-3 24.5l6 54q-132 13 -200.5 110t-68.5 242q0 97 36 177t108.5 130t169.5 50q102 0 184 -45q16 -9 9 -26l-17 -36
q-7 -15 -22 -7q-69 39 -148 39q-106 0 -163.5 -81.5t-57.5 -192.5q0 -123 56 -205.5t165 -82.5q82 0 154 36q18 8 25 -9l12 -30q7 -19 -11 -28q-75 -37 -167 -42z" />
    <glyph glyph-name="Egrave" unicode="&#xc8;" horiz-adv-x="510" 
d="M169 616v-219h236q19 0 19 -16v-40q0 -16 -19 -16h-236v-252h278q19 0 19 -16v-41q0 -16 -19 -16h-350q-21 0 -21 23v643q0 23 21 23h350q20 0 17 -17l-6 -40q-2 -16 -22 -16h-267zM365 786l-12 -21q-8 -13 -25 -5l-151 76q-18 9 -6 26l21 32q10 16 29 4l139 -89
q13 -9 5 -23z" />
    <glyph glyph-name="Eacute" unicode="&#xc9;" horiz-adv-x="510" 
d="M169 616v-219h236q19 0 19 -16v-40q0 -16 -19 -16h-236v-252h278q19 0 19 -16v-41q0 -16 -19 -16h-350q-21 0 -21 23v643q0 23 21 23h350q20 0 17 -17l-6 -40q-2 -16 -22 -16h-267zM360 895l20 -33q13 -17 -6 -25l-153 -79q-15 -8 -24 6l-12 20q-9 15 5 24l141 91
q18 12 29 -4z" />
    <glyph glyph-name="Ecircumflex" unicode="&#xca;" horiz-adv-x="510" 
d="M169 616v-219h236q19 0 19 -16v-40q0 -16 -19 -16h-236v-252h278q19 0 19 -16v-41q0 -16 -19 -16h-350q-21 0 -21 23v643q0 23 21 23h350q20 0 17 -17l-6 -40q-2 -16 -22 -16h-267zM276 835l-97 -76q-15 -12 -25 0l-14 15q-9 11 1 21l105 95q10 8 21 8h18q12 0 20 -7
l110 -98q10 -10 1 -21l-15 -16q-11 -11 -22 -2z" />
    <glyph glyph-name="Edieresis" unicode="&#xcb;" horiz-adv-x="510" 
d="M169 616v-219h236q19 0 19 -16v-40q0 -16 -19 -16h-236v-252h278q19 0 19 -16v-41q0 -16 -19 -16h-350q-21 0 -21 23v643q0 23 21 23h350q20 0 17 -17l-6 -40q-2 -16 -22 -16h-267zM191 865q21 0 35.5 -13t14.5 -35q0 -23 -15 -36t-36 -13t-36 13t-15 35q0 23 15 36
t37 13zM368 865q21 0 35.5 -13t14.5 -35q0 -23 -15 -36t-36 -13t-36 13t-15 35q0 23 15 36t37 13z" />
    <glyph glyph-name="Igrave" unicode="&#xcc;" horiz-adv-x="371" 
d="M231 627v-564h58q19 0 19 -16v-31q0 -16 -19 -16h-204q-19 0 -19 16v31q0 16 19 16h56v564h-60q-19 0 -19 16v30q0 16 19 16h209q19 0 19 -16v-30q0 -16 -19 -16h-59zM280 786l-12 -21q-8 -13 -25 -5l-151 76q-18 9 -6 26l21 32q10 16 29 4l139 -89q13 -9 5 -23z" />
    <glyph glyph-name="Iacute" unicode="&#xcd;" horiz-adv-x="371" 
d="M231 627v-564h58q19 0 19 -16v-31q0 -16 -19 -16h-204q-19 0 -19 16v31q0 16 19 16h56v564h-60q-19 0 -19 16v30q0 16 19 16h209q19 0 19 -16v-30q0 -16 -19 -16h-59zM280 895l20 -33q13 -17 -6 -25l-153 -79q-15 -8 -24 6l-12 20q-9 15 5 24l141 91q18 12 29 -4z" />
    <glyph glyph-name="Icircumflex" unicode="&#xce;" horiz-adv-x="371" 
d="M231 627v-564h58q19 0 19 -16v-31q0 -16 -19 -16h-204q-19 0 -19 16v31q0 16 19 16h56v564h-60q-19 0 -19 16v30q0 16 19 16h209q19 0 19 -16v-30q0 -16 -19 -16h-59zM185 835l-97 -76q-15 -12 -25 0l-14 15q-9 11 1 21l105 95q10 8 21 8h18q12 0 20 -7l110 -98
q10 -10 1 -21l-15 -16q-11 -11 -22 -2z" />
    <glyph glyph-name="Idieresis" unicode="&#xcf;" horiz-adv-x="371" 
d="M231 627v-564h58q19 0 19 -16v-31q0 -16 -19 -16h-204q-19 0 -19 16v31q0 16 19 16h56v564h-60q-19 0 -19 16v30q0 16 19 16h209q19 0 19 -16v-30q0 -16 -19 -16h-59zM100 865q21 0 35.5 -13t14.5 -35q0 -23 -15 -36t-36 -13t-36 13t-15 35q0 23 15 36t37 13zM277 865
q21 0 35.5 -13t14.5 -35q0 -23 -15 -36t-36 -13t-36 13t-15 35q0 23 15 36t37 13z" />
    <glyph glyph-name="Eth" unicode="&#xd0;" horiz-adv-x="686" 
d="M92 375v291q0 23 21 23h134q97 0 153.5 -10.5t102.5 -39.5q65 -40 101 -117t36 -181q0 -174 -103 -268q-82 -73 -246 -73h-178q-21 0 -21 23v281h-68q-21 0 -21 21v28q0 13 4.5 17.5t16.5 4.5h68zM541 342q0 156 -85 224q-59 48 -176 48h-95v-239h124q12 0 16.5 -4.5
t4.5 -17.5v-28q0 -21 -21 -21h-124v-230h86q73 0 118.5 11.5t78.5 44.5q73 75 73 212z" />
    <glyph glyph-name="Ntilde" unicode="&#xd1;" horiz-adv-x="694" 
d="M530 152h2v517q0 20 19 20h47q20 0 20 -20v-649q0 -20 -19 -20h-44q-21 0 -34 20l-357 510h-2v-510q0 -20 -19 -20h-47q-20 0 -20 20v649q0 20 19 20h40q21 0 34 -20zM347 786l-23 11q-28 14 -44 14q-18 0 -26.5 -6t-16.5 -21q-9 -18 -26 -9l-20 10q-15 6 -8 24
q25 66 105 66q33 0 73 -20l24 -12q26 -13 47 -13q23 0 36 23q12 20 29 11l20 -10q11 -6 6 -21q-12 -34 -38.5 -51.5t-60.5 -17.5q-31 0 -77 22z" />
    <glyph glyph-name="Ograve" unicode="&#xd2;" horiz-adv-x="676" 
d="M627 349q0 -166 -82.5 -262.5t-211.5 -96.5q-134 0 -209 94t-75 258q0 162 81 260.5t212 98.5q135 0 210 -96t75 -256zM529 346q0 133 -49 205.5t-140 72.5q-86 0 -139.5 -77.5t-53.5 -201.5q0 -131 50 -205t140 -74q86 0 139 76t53 204zM432 786l-12 -21q-8 -13 -25 -5
l-151 76q-18 9 -6 26l21 32q10 16 29 4l139 -89q13 -9 5 -23z" />
    <glyph glyph-name="Oacute" unicode="&#xd3;" horiz-adv-x="676" 
d="M627 349q0 -166 -82.5 -262.5t-211.5 -96.5q-134 0 -209 94t-75 258q0 162 81 260.5t212 98.5q135 0 210 -96t75 -256zM529 346q0 133 -49 205.5t-140 72.5q-86 0 -139.5 -77.5t-53.5 -201.5q0 -131 50 -205t140 -74q86 0 139 76t53 204zM432 895l20 -33q13 -17 -6 -25
l-153 -79q-15 -8 -24 6l-12 20q-9 15 5 24l141 91q18 12 29 -4z" />
    <glyph glyph-name="Ocircumflex" unicode="&#xd4;" horiz-adv-x="676" 
d="M627 349q0 -166 -82.5 -262.5t-211.5 -96.5q-134 0 -209 94t-75 258q0 162 81 260.5t212 98.5q135 0 210 -96t75 -256zM529 346q0 133 -49 205.5t-140 72.5q-86 0 -139.5 -77.5t-53.5 -201.5q0 -131 50 -205t140 -74q86 0 139 76t53 204zM340 835l-97 -76q-15 -12 -25 0
l-14 15q-9 11 1 21l105 95q10 8 21 8h18q12 0 20 -7l110 -98q10 -10 1 -21l-15 -16q-11 -11 -22 -2z" />
    <glyph glyph-name="Otilde" unicode="&#xd5;" horiz-adv-x="676" 
d="M627 349q0 -166 -82.5 -262.5t-211.5 -96.5q-134 0 -209 94t-75 258q0 162 81 260.5t212 98.5q135 0 210 -96t75 -256zM529 346q0 133 -49 205.5t-140 72.5q-86 0 -139.5 -77.5t-53.5 -201.5q0 -131 50 -205t140 -74q86 0 139 76t53 204zM336 786l-23 11q-28 14 -44 14
q-18 0 -26.5 -6t-16.5 -21q-9 -18 -26 -9l-20 10q-15 6 -8 24q25 66 105 66q33 0 73 -20l24 -12q26 -13 47 -13q23 0 36 23q12 20 29 11l20 -10q11 -6 6 -21q-12 -34 -38.5 -51.5t-60.5 -17.5q-31 0 -77 22z" />
    <glyph glyph-name="Odieresis" unicode="&#xd6;" horiz-adv-x="676" 
d="M627 349q0 -166 -82.5 -262.5t-211.5 -96.5q-134 0 -209 94t-75 258q0 162 81 260.5t212 98.5q135 0 210 -96t75 -256zM529 346q0 133 -49 205.5t-140 72.5q-86 0 -139.5 -77.5t-53.5 -201.5q0 -131 50 -205t140 -74q86 0 139 76t53 204zM255 865q21 0 35.5 -13t14.5 -35
q0 -23 -15 -36t-36 -13t-36 13t-15 35q0 23 15 36t37 13zM432 865q21 0 35.5 -13t14.5 -35q0 -23 -15 -36t-36 -13t-36 13t-15 35q0 23 15 36t37 13z" />
    <glyph glyph-name="multiply" unicode="&#xd7;" 
d="M274 206l-128 -127q-13 -13 -26 0l-27 28q-11 13 1 25l127 127l-129 129q-12 12 -1 25l30 31q13 13 26 0l130 -129l126 126q13 13 26 0l28 -28q11 -13 -1 -25l-127 -127l128 -127q12 -12 1 -25l-30 -31q-13 -13 -26 0z" />
    <glyph glyph-name="Oslash" unicode="&#xd8;" horiz-adv-x="676" 
d="M627 349q0 -166 -82.5 -262.5t-211.5 -96.5q-90 0 -154 43l-41 -63q-11 -17 -26 -9l-26 17q-14 9 -3 25l48 73q-82 94 -82 266q0 162 81 260.5t212 98.5q96 0 164 -52l48 73q12 18 26 9l26 -17q14 -9 3 -25l-56 -86q74 -96 74 -254zM147 345q0 -116 38 -186l274 418
q-49 47 -119 47q-86 0 -139.5 -77.5t-53.5 -201.5zM529 346q0 103 -31 173l-271 -414q43 -39 110 -39q86 0 139 76t53 204z" />
    <glyph glyph-name="Ugrave" unicode="&#xd9;" horiz-adv-x="695" 
d="M622 669v-368q0 -145 -66 -228t-208 -83q-154 0 -214.5 79.5t-60.5 237.5v362q0 20 19 20h54q20 0 20 -20v-353q0 -46 3 -78t14 -67t30 -56t53.5 -34.5t82.5 -13.5q46 0 80 14t53 36t30 56.5t14 67t3 76.5v352q0 20 19 20h54q20 0 20 -20zM440 786l-12 -21q-8 -13 -25 -5
l-151 76q-18 9 -6 26l21 32q10 16 29 4l139 -89q13 -9 5 -23z" />
    <glyph glyph-name="Uacute" unicode="&#xda;" horiz-adv-x="695" 
d="M622 669v-368q0 -145 -66 -228t-208 -83q-154 0 -214.5 79.5t-60.5 237.5v362q0 20 19 20h54q20 0 20 -20v-353q0 -46 3 -78t14 -67t30 -56t53.5 -34.5t82.5 -13.5q46 0 80 14t53 36t30 56.5t14 67t3 76.5v352q0 20 19 20h54q20 0 20 -20zM439 895l20 -33q13 -17 -6 -25
l-153 -79q-15 -8 -24 6l-12 20q-9 15 5 24l141 91q18 12 29 -4z" />
    <glyph glyph-name="Ucircumflex" unicode="&#xdb;" horiz-adv-x="695" 
d="M622 669v-368q0 -145 -66 -228t-208 -83q-154 0 -214.5 79.5t-60.5 237.5v362q0 20 19 20h54q20 0 20 -20v-353q0 -46 3 -78t14 -67t30 -56t53.5 -34.5t82.5 -13.5q46 0 80 14t53 36t30 56.5t14 67t3 76.5v352q0 20 19 20h54q20 0 20 -20zM346 835l-97 -76q-15 -12 -25 0
l-14 15q-9 11 1 21l105 95q10 8 21 8h18q12 0 20 -7l110 -98q10 -10 1 -21l-15 -16q-11 -11 -22 -2z" />
    <glyph glyph-name="Udieresis" unicode="&#xdc;" horiz-adv-x="695" 
d="M622 669v-368q0 -145 -66 -228t-208 -83q-154 0 -214.5 79.5t-60.5 237.5v362q0 20 19 20h54q20 0 20 -20v-353q0 -46 3 -78t14 -67t30 -56t53.5 -34.5t82.5 -13.5q46 0 80 14t53 36t30 56.5t14 67t3 76.5v352q0 20 19 20h54q20 0 20 -20zM261 865q21 0 35.5 -13
t14.5 -35q0 -23 -15 -36t-36 -13t-36 13t-15 35q0 23 15 36t37 13zM438 865q21 0 35.5 -13t14.5 -35q0 -23 -15 -36t-36 -13t-36 13t-15 35q0 23 15 36t37 13z" />
    <glyph glyph-name="Yacute" unicode="&#xdd;" 
d="M234 20v250l-212 395q-6 10 -3 17t15 7h57q21 0 30 -17l164 -324h1l159 324q9 17 29 17h43q23 0 13 -21l-203 -396v-252q0 -20 -19 -20h-54q-20 0 -20 20zM375 895l20 -33q13 -17 -6 -25l-153 -79q-15 -8 -24 6l-12 20q-9 15 5 24l141 91q18 12 29 -4z" />
    <glyph glyph-name="Thorn" unicode="&#xde;" horiz-adv-x="519" 
d="M169 669v-85h57q121 0 191.5 -50.5t70.5 -159.5q0 -110 -70 -164t-190 -54h-59v-136q0 -20 -19 -20h-54q-20 0 -20 20v649q0 20 19 20h54q20 0 20 -20zM224 513h-55v-286h62q78 0 120.5 33t42.5 112q0 141 -170 141z" />
    <glyph glyph-name="germandbls" unicode="&#xdf;" horiz-adv-x="558" 
d="M524 205q0 -105 -66.5 -160t-164.5 -55q-35 0 -50 3q-12 3 -15.5 7t-3.5 14v28q0 11 4.5 14t15.5 3q3 0 19 -1.5t24 -1.5q75 0 112 43t37 108q0 68 -47 103t-111 35h-38q-16 0 -16 16v32q0 16 16 16h15q52 0 92.5 34.5t40.5 93.5q0 118 -122 118q-54 0 -84 -36.5
t-30 -106.5v-585q0 -21 -20 -21h-45q-20 0 -20 21v575q0 219 204 219q89 0 147 -43.5t58 -131.5q0 -53 -32 -99t-84 -59v-1q71 -8 117.5 -58.5t46.5 -123.5z" />
    <glyph glyph-name="agrave" unicode="&#xe0;" horiz-adv-x="543" 
d="M389 74h-2q-18 -34 -61.5 -59t-88.5 -25q-98 0 -148.5 70t-50.5 173q0 121 61.5 191t151.5 70q39 0 75.5 -16t58.5 -45l1 32q0 18 19 18h44q19 0 19 -19v-350q0 -31 3.5 -42.5t18.5 -11.5h4q17 0 17 -15v-30q0 -15 -17 -15h-40q-31 0 -48 21t-17 53zM383 162v192
q-18 33 -51 52.5t-70 19.5q-59 0 -97 -50t-38 -137q0 -81 34 -129.5t89 -48.5q45 0 81.5 30t51.5 71zM353 586l-12 -21q-8 -13 -25 -5l-151 76q-18 9 -6 26l21 32q10 16 29 4l139 -89q13 -9 5 -23z" />
    <glyph glyph-name="aacute" unicode="&#xe1;" horiz-adv-x="543" 
d="M389 74h-2q-18 -34 -61.5 -59t-88.5 -25q-98 0 -148.5 70t-50.5 173q0 121 61.5 191t151.5 70q39 0 75.5 -16t58.5 -45l1 32q0 18 19 18h44q19 0 19 -19v-350q0 -31 3.5 -42.5t18.5 -11.5h4q17 0 17 -15v-30q0 -15 -17 -15h-40q-31 0 -48 21t-17 53zM383 162v192
q-18 33 -51 52.5t-70 19.5q-59 0 -97 -50t-38 -137q0 -81 34 -129.5t89 -48.5q45 0 81.5 30t51.5 71zM353 695l20 -33q13 -17 -6 -25l-153 -79q-15 -8 -24 6l-12 20q-9 15 5 24l141 91q18 12 29 -4z" />
    <glyph glyph-name="acircumflex" unicode="&#xe2;" horiz-adv-x="543" 
d="M389 74h-2q-18 -34 -61.5 -59t-88.5 -25q-98 0 -148.5 70t-50.5 173q0 121 61.5 191t151.5 70q39 0 75.5 -16t58.5 -45l1 32q0 18 19 18h44q19 0 19 -19v-350q0 -31 3.5 -42.5t18.5 -11.5h4q17 0 17 -15v-30q0 -15 -17 -15h-40q-31 0 -48 21t-17 53zM383 162v192
q-18 33 -51 52.5t-70 19.5q-59 0 -97 -50t-38 -137q0 -81 34 -129.5t89 -48.5q45 0 81.5 30t51.5 71zM256 635l-97 -76q-15 -12 -25 0l-14 15q-9 11 1 21l105 95q10 8 21 8h18q12 0 20 -7l110 -98q10 -10 1 -21l-15 -16q-11 -11 -22 -2z" />
    <glyph glyph-name="atilde" unicode="&#xe3;" horiz-adv-x="543" 
d="M389 74h-2q-18 -34 -61.5 -59t-88.5 -25q-98 0 -148.5 70t-50.5 173q0 121 61.5 191t151.5 70q39 0 75.5 -16t58.5 -45l1 32q0 18 19 18h44q19 0 19 -19v-350q0 -31 3.5 -42.5t18.5 -11.5h4q17 0 17 -15v-30q0 -15 -17 -15h-40q-31 0 -48 21t-17 53zM383 162v192
q-18 33 -51 52.5t-70 19.5q-59 0 -97 -50t-38 -137q0 -81 34 -129.5t89 -48.5q45 0 81.5 30t51.5 71zM257 591l-23 11q-28 14 -44 14q-18 0 -26.5 -6t-16.5 -21q-9 -18 -26 -9l-20 10q-15 6 -8 24q25 66 105 66q33 0 73 -20l24 -12q26 -13 47 -13q23 0 36 23q12 20 29 11
l20 -10q11 -6 6 -21q-12 -34 -38.5 -51.5t-60.5 -17.5q-31 0 -77 22z" />
    <glyph glyph-name="adieresis" unicode="&#xe4;" horiz-adv-x="543" 
d="M389 74h-2q-18 -34 -61.5 -59t-88.5 -25q-98 0 -148.5 70t-50.5 173q0 121 61.5 191t151.5 70q39 0 75.5 -16t58.5 -45l1 32q0 18 19 18h44q19 0 19 -19v-350q0 -31 3.5 -42.5t18.5 -11.5h4q17 0 17 -15v-30q0 -15 -17 -15h-40q-31 0 -48 21t-17 53zM383 162v192
q-18 33 -51 52.5t-70 19.5q-59 0 -97 -50t-38 -137q0 -81 34 -129.5t89 -48.5q45 0 81.5 30t51.5 71zM168 680q21 0 35.5 -13t14.5 -35q0 -23 -15 -36t-36 -13t-36 13t-15 35q0 23 15 36t37 13zM345 680q21 0 35.5 -13t14.5 -35q0 -23 -15 -36t-36 -13t-36 13t-15 35
q0 23 15 36t37 13z" />
    <glyph glyph-name="aring" unicode="&#xe5;" horiz-adv-x="543" 
d="M389 74h-2q-18 -34 -61.5 -59t-88.5 -25q-98 0 -148.5 70t-50.5 173q0 121 61.5 191t151.5 70q39 0 75.5 -16t58.5 -45l1 32q0 18 19 18h44q19 0 19 -19v-350q0 -31 3.5 -42.5t18.5 -11.5h4q17 0 17 -15v-30q0 -15 -17 -15h-40q-31 0 -48 21t-17 53zM383 162v192
q-18 33 -51 52.5t-70 19.5q-59 0 -97 -50t-38 -137q0 -81 34 -129.5t89 -48.5q45 0 81.5 30t51.5 71zM354 620q0 -39 -27 -66.5t-68 -27.5q-40 0 -67.5 27.5t-27.5 66.5q0 38 28 66t67 28q41 0 68 -27.5t27 -66.5zM297 620q0 16 -11 26.5t-27 10.5t-27 -10.5t-11 -26.5
t11 -26.5t27 -10.5t27 10.5t11 26.5z" />
    <glyph glyph-name="ae" unicode="&#xe6;" horiz-adv-x="771" 
d="M708 229h-299q2 -74 41 -121.5t109 -47.5q73 0 119 21q17 7 22 -7l12 -33q5 -14 -10 -22q-57 -29 -155 -29q-115 0 -174 75q-68 -75 -187 -75q-63 0 -106.5 36.5t-43.5 102.5q0 48 24 83t64 52.5t81.5 25.5t87.5 8h31v28q0 103 -94 103q-69 0 -132 -32q-15 -7 -20 5
l-13 31q-5 14 9 21q76 40 164 40q100 0 142 -71q61 71 166 71q91 0 141.5 -60t50.5 -152v-25q0 -18 -5.5 -23t-24.5 -5zM320 239h-42q-40 0 -72 -8t-57 -32.5t-25 -64.5q0 -39 24.5 -58.5t59.5 -19.5q37 0 76 18.5t60 39.5q-24 54 -24 125zM411 287h243v18q0 54 -29 88.5
t-83 34.5q-58 0 -91.5 -40t-39.5 -101z" />
    <glyph glyph-name="ccedilla" unicode="&#xe7;" horiz-adv-x="440" 
d="M297 -43h12q88 0 88 -79q0 -36 -27 -59t-80 -23q-47 0 -73 13q-13 6 -9 18l8 23q5 15 20 8q21 -9 52 -9q36 0 36 28q0 29 -40 29h-29q-18 0 -23 7.5t-3 24.5l6 54q-96 11 -145.5 77t-49.5 172q0 112 64 182.5t175 70.5q73 0 129 -29q14 -8 9 -21l-11 -31q-5 -15 -21 -8
q-51 23 -102 23q-71 0 -113 -49.5t-42 -133.5q0 -83 37.5 -136.5t113.5 -53.5q59 0 111 23q15 6 20 -8l9 -28q5 -16 -11 -24q-48 -22 -109 -27z" />
    <glyph glyph-name="egrave" unicode="&#xe8;" horiz-adv-x="499" 
d="M436 229h-307q2 -74 42.5 -121.5t111.5 -47.5q75 0 123 21q17 7 22 -7l12 -33q5 -14 -10 -22q-57 -29 -158 -29q-112 0 -172 68.5t-60 183.5q0 112 62 182t168 70q94 0 145 -60t51 -152v-25q0 -18 -5.5 -23t-24.5 -5zM131 287h251v18q0 54 -30 88.5t-86 34.5
q-59 0 -94 -40t-41 -101zM356 586l-12 -21q-8 -13 -25 -5l-151 76q-18 9 -6 26l21 32q10 16 29 4l139 -89q13 -9 5 -23z" />
    <glyph glyph-name="eacute" unicode="&#xe9;" horiz-adv-x="499" 
d="M436 229h-307q2 -74 42.5 -121.5t111.5 -47.5q75 0 123 21q17 7 22 -7l12 -33q5 -14 -10 -22q-57 -29 -158 -29q-112 0 -172 68.5t-60 183.5q0 112 62 182t168 70q94 0 145 -60t51 -152v-25q0 -18 -5.5 -23t-24.5 -5zM131 287h251v18q0 54 -30 88.5t-86 34.5
q-59 0 -94 -40t-41 -101zM348 692l20 -33q13 -17 -6 -25l-153 -79q-15 -7 -24 6l-12 20q-9 15 5 24l141 91q18 12 29 -4z" />
    <glyph glyph-name="ecircumflex" unicode="&#xea;" horiz-adv-x="499" 
d="M436 229h-307q2 -74 42.5 -121.5t111.5 -47.5q75 0 123 21q17 7 22 -7l12 -33q5 -14 -10 -22q-57 -29 -158 -29q-112 0 -172 68.5t-60 183.5q0 112 62 182t168 70q94 0 145 -60t51 -152v-25q0 -18 -5.5 -23t-24.5 -5zM131 287h251v18q0 54 -30 88.5t-86 34.5
q-59 0 -94 -40t-41 -101zM263 635l-97 -76q-15 -12 -25 0l-14 15q-9 11 1 21l105 95q10 8 21 8h18q12 0 20 -7l110 -98q10 -10 1 -21l-15 -16q-11 -11 -22 -2z" />
    <glyph glyph-name="edieresis" unicode="&#xeb;" horiz-adv-x="499" 
d="M436 229h-307q2 -74 42.5 -121.5t111.5 -47.5q75 0 123 21q17 7 22 -7l12 -33q5 -14 -10 -22q-57 -29 -158 -29q-112 0 -172 68.5t-60 183.5q0 112 62 182t168 70q94 0 145 -60t51 -152v-25q0 -18 -5.5 -23t-24.5 -5zM131 287h251v18q0 54 -30 88.5t-86 34.5
q-59 0 -94 -40t-41 -101zM177 681q21 0 35.5 -13t14.5 -35q0 -23 -15 -36t-36 -13t-36 13t-15 35q0 23 15 36t37 13zM354 681q21 0 35.5 -13t14.5 -35q0 -23 -15 -36t-36 -13t-36 13t-15 35q0 23 15 36t37 13z" />
    <glyph glyph-name="igrave" unicode="&#xec;" horiz-adv-x="235" 
d="M212 586l-12 -21q-8 -13 -25 -5l-151 76q-18 9 -6 26l21 32q10 16 29 4l139 -89q13 -9 5 -23zM160 463v-442q0 -21 -20 -21h-45q-20 0 -20 21v442q0 20 20 20h46q19 0 19 -20z" />
    <glyph glyph-name="iacute" unicode="&#xed;" horiz-adv-x="235" 
d="M208 692l20 -33q13 -17 -6 -25l-153 -79q-15 -7 -24 6l-12 20q-9 15 5 24l141 91q18 12 29 -4zM160 463v-442q0 -21 -20 -21h-45q-20 0 -20 21v442q0 20 20 20h46q19 0 19 -20z" />
    <glyph glyph-name="icircumflex" unicode="&#xee;" horiz-adv-x="235" 
d="M116 635l-97 -76q-15 -12 -25 0l-14 15q-9 11 1 21l105 95q10 8 21 8h18q12 0 20 -7l110 -98q10 -10 1 -21l-15 -16q-11 -11 -22 -2zM160 463v-442q0 -21 -20 -21h-45q-20 0 -20 21v442q0 20 20 20h46q19 0 19 -20z" />
    <glyph glyph-name="idieresis" unicode="&#xef;" horiz-adv-x="235" 
d="M32 680q21 0 35.5 -13t14.5 -35q0 -23 -15 -36t-36 -13t-36 13t-15 35q0 23 15 36t37 13zM209 680q21 0 35.5 -13t14.5 -35q0 -23 -15 -36t-36 -13t-36 13t-15 35q0 23 15 36t37 13zM160 463v-442q0 -21 -20 -21h-45q-20 0 -20 21v442q0 20 20 20h46q19 0 19 -20z" />
    <glyph glyph-name="eth" unicode="&#xf0;" horiz-adv-x="537" 
d="M151 614l71 45q-29 21 -70 40q-15 7 -8 20l13 23q8 14 21 9q53 -20 102 -55l72 45q15 10 25 -5l9 -14q10 -14 -7 -24l-56 -36q72 -65 122 -177t50 -229q0 -115 -60 -190.5t-171 -75.5t-167.5 70t-56.5 183q0 110 61 180.5t169 70.5q70 0 112 -38q-16 41 -50.5 90
t-68.5 78l-84 -53q-9 -6 -14 -5.5t-11 9.5l-9 13q-10 15 6 26zM407 241q0 79 -33 133t-105 54q-74 0 -107.5 -53t-33.5 -130q0 -80 32 -134.5t105 -54.5t107.5 53.5t34.5 131.5z" />
    <glyph glyph-name="ntilde" unicode="&#xf1;" horiz-adv-x="538" 
d="M152 365v-344q0 -21 -20 -21h-45q-20 0 -20 21v442q0 20 19 20h44q19 0 19 -18l1 -31q71 60 164 60q159 0 159 -179v-294q0 -21 -20 -21h-45q-20 0 -20 21v280q0 59 -21 90.5t-77 31.5q-34 0 -72.5 -16.5t-65.5 -41.5zM268 590l-23 11q-28 14 -44 14q-18 0 -26.5 -6
t-16.5 -21q-9 -18 -26 -9l-20 10q-15 6 -8 24q25 66 105 66q33 0 73 -20l24 -12q26 -13 47 -13q23 0 36 23q12 20 29 11l20 -10q11 -6 6 -21q-12 -34 -38.5 -51.5t-60.5 -17.5q-31 0 -77 22z" />
    <glyph glyph-name="ograve" unicode="&#xf2;" horiz-adv-x="535" 
d="M495 242q0 -110 -61.5 -181t-169.5 -71q-111 0 -167.5 70t-56.5 183q0 110 61 180.5t169 70.5q112 0 168.5 -69t56.5 -183zM407 241q0 79 -33 133t-105 54q-74 0 -107.5 -53t-33.5 -130q0 -80 32 -134.5t105 -54.5t107.5 53.5t34.5 131.5zM361 586l-12 -21q-8 -13 -25 -5
l-151 76q-18 9 -6 26l21 32q10 16 29 4l139 -89q13 -9 5 -23z" />
    <glyph glyph-name="oacute" unicode="&#xf3;" horiz-adv-x="535" 
d="M495 242q0 -110 -61.5 -181t-169.5 -71q-111 0 -167.5 70t-56.5 183q0 110 61 180.5t169 70.5q112 0 168.5 -69t56.5 -183zM407 241q0 79 -33 133t-105 54q-74 0 -107.5 -53t-33.5 -130q0 -80 32 -134.5t105 -54.5t107.5 53.5t34.5 131.5zM363 692l20 -33q13 -17 -6 -25
l-153 -79q-15 -7 -24 6l-12 20q-9 15 5 24l141 91q18 12 29 -4z" />
    <glyph glyph-name="ocircumflex" unicode="&#xf4;" horiz-adv-x="535" 
d="M495 242q0 -110 -61.5 -181t-169.5 -71q-111 0 -167.5 70t-56.5 183q0 110 61 180.5t169 70.5q112 0 168.5 -69t56.5 -183zM407 241q0 79 -33 133t-105 54q-74 0 -107.5 -53t-33.5 -130q0 -80 32 -134.5t105 -54.5t107.5 53.5t34.5 131.5zM269 635l-97 -76q-15 -12 -25 0
l-14 15q-9 11 1 21l105 95q10 8 21 8h18q12 0 20 -7l110 -98q10 -10 1 -21l-15 -16q-11 -11 -22 -2z" />
    <glyph glyph-name="otilde" unicode="&#xf5;" horiz-adv-x="535" 
d="M495 242q0 -110 -61.5 -181t-169.5 -71q-111 0 -167.5 70t-56.5 183q0 110 61 180.5t169 70.5q112 0 168.5 -69t56.5 -183zM407 241q0 79 -33 133t-105 54q-74 0 -107.5 -53t-33.5 -130q0 -80 32 -134.5t105 -54.5t107.5 53.5t34.5 131.5zM264 590l-23 11q-28 14 -44 14
q-18 0 -26.5 -6t-16.5 -21q-9 -18 -26 -9l-20 10q-15 6 -8 24q25 66 105 66q33 0 73 -20l24 -12q26 -13 47 -13q23 0 36 23q12 20 29 11l20 -10q11 -6 6 -21q-12 -34 -38.5 -51.5t-60.5 -17.5q-31 0 -77 22z" />
    <glyph glyph-name="odieresis" unicode="&#xf6;" horiz-adv-x="535" 
d="M495 242q0 -110 -61.5 -181t-169.5 -71q-111 0 -167.5 70t-56.5 183q0 110 61 180.5t169 70.5q112 0 168.5 -69t56.5 -183zM407 241q0 79 -33 133t-105 54q-74 0 -107.5 -53t-33.5 -130q0 -80 32 -134.5t105 -54.5t107.5 53.5t34.5 131.5zM183 681q21 0 35.5 -13
t14.5 -35q0 -23 -15 -36t-36 -13t-36 13t-15 35q0 23 15 36t37 13zM360 681q21 0 35.5 -13t14.5 -35q0 -23 -15 -36t-36 -13t-36 13t-15 35q0 23 15 36t37 13z" />
    <glyph glyph-name="divide" unicode="&#xf7;" 
d="M493 283v-42q0 -16 -18 -16h-400q-18 0 -18 16v42q0 16 18 16h400q18 0 18 -16zM276 145q23 0 40 -14.5t17 -39.5q0 -26 -17 -40.5t-41 -14.5q-23 0 -40 14.5t-17 39.5q0 26 17 40.5t41 14.5zM276 492q23 0 40 -14.5t17 -39.5q0 -26 -17 -40.5t-41 -14.5q-23 0 -40 14.5
t-17 39.5q0 26 17 40.5t41 14.5z" />
    <glyph glyph-name="oslash" unicode="&#xf8;" horiz-adv-x="541" 
d="M370 476l20 33q10 18 27 8l27 -15q16 -9 6 -25l-23 -37q71 -67 71 -198q0 -110 -61.5 -181t-169.5 -71q-55 0 -103 20l-21 -35q-10 -15 -24 -7l-28 17q-18 10 -7 25l24 40q-65 68 -65 193q0 110 61 180.5t169 70.5q55 0 97 -18zM410 241q0 76 -28 125l-180 -294
q29 -16 66 -16q73 0 107.5 53.5t34.5 131.5zM131 245q0 -73 23 -120l178 290q-28 13 -60 13q-74 0 -107.5 -53t-33.5 -130z" />
    <glyph glyph-name="ugrave" unicode="&#xf9;" horiz-adv-x="534" 
d="M380 122v341q0 20 20 20h46q19 0 19 -20v-443q0 -20 -19 -20h-44q-19 0 -19 18l-1 32q-71 -60 -158 -60q-157 0 -157 181v292q0 20 20 20h46q19 0 19 -20v-279q0 -60 20 -90.5t76 -30.5q32 0 69.5 17.5t62.5 41.5zM354 586l-12 -21q-8 -13 -25 -5l-151 76q-18 9 -6 26
l21 32q10 16 29 4l139 -89q13 -9 5 -23z" />
    <glyph glyph-name="uacute" unicode="&#xfa;" horiz-adv-x="534" 
d="M380 122v341q0 20 20 20h46q19 0 19 -20v-443q0 -20 -19 -20h-44q-19 0 -19 18l-1 32q-71 -60 -158 -60q-157 0 -157 181v292q0 20 20 20h46q19 0 19 -20v-279q0 -60 20 -90.5t76 -30.5q32 0 69.5 17.5t62.5 41.5zM347 692l20 -33q13 -17 -6 -25l-153 -79q-15 -7 -24 6
l-12 20q-9 15 5 24l141 91q18 12 29 -4z" />
    <glyph glyph-name="ucircumflex" unicode="&#xfb;" horiz-adv-x="534" 
d="M380 122v341q0 20 20 20h46q19 0 19 -20v-443q0 -20 -19 -20h-44q-19 0 -19 18l-1 32q-71 -60 -158 -60q-157 0 -157 181v292q0 20 20 20h46q19 0 19 -20v-279q0 -60 20 -90.5t76 -30.5q32 0 69.5 17.5t62.5 41.5zM265 635l-97 -76q-15 -12 -25 0l-14 15q-9 11 1 21
l105 95q10 8 21 8h18q12 0 20 -7l110 -98q10 -10 1 -21l-15 -16q-11 -11 -22 -2z" />
    <glyph glyph-name="udieresis" unicode="&#xfc;" horiz-adv-x="534" 
d="M380 122v341q0 20 20 20h46q19 0 19 -20v-443q0 -20 -19 -20h-44q-19 0 -19 18l-1 32q-71 -60 -158 -60q-157 0 -157 181v292q0 20 20 20h46q19 0 19 -20v-279q0 -60 20 -90.5t76 -30.5q32 0 69.5 17.5t62.5 41.5zM175 679q21 0 35.5 -13t14.5 -35q0 -23 -15 -36t-36 -13
t-36 13t-15 35q0 23 15 36t37 13zM352 679q21 0 35.5 -13t14.5 -35q0 -23 -15 -36t-36 -13t-36 13t-15 35q0 23 15 36t37 13z" />
    <glyph glyph-name="yacute" unicode="&#xfd;" horiz-adv-x="478" 
d="M253 96l126 371q5 16 25 16h48q20 0 13 -20l-193 -521q-33 -90 -77.5 -126t-124.5 -36q-24 0 -46 6q-14 4 -12 18l7 40q3 14 16 13q28 -4 38 -4q78 0 109 76l25 63l-179 473q-7 18 14 18h57q20 0 24 -14zM342 692l20 -33q13 -17 -6 -25l-153 -79q-15 -7 -24 6l-12 20
q-9 15 5 24l141 91q18 12 29 -4z" />
    <glyph glyph-name="thorn" unicode="&#xfe;" horiz-adv-x="541" 
d="M501 246q0 -107 -57 -181.5t-160 -74.5q-38 0 -74 14.5t-58 41.5v-240q0 -21 -20 -21h-45q-20 0 -20 21v877q0 19 15 21l50 7q20 3 20 -17v-259q25 26 64.5 42.5t79.5 16.5q101 0 153 -71.5t52 -176.5zM412 244q0 77 -31 129.5t-102 52.5q-35 0 -71.5 -18.5t-55.5 -45.5
v-235q16 -30 50.5 -50t70.5 -20q71 0 105 55t34 132z" />
    <glyph glyph-name="ydieresis" unicode="&#xff;" horiz-adv-x="478" 
d="M253 96l126 371q5 16 25 16h48q20 0 13 -20l-193 -521q-33 -90 -77.5 -126t-124.5 -36q-24 0 -46 6q-14 4 -12 18l7 40q3 14 16 13q28 -4 38 -4q78 0 109 76l25 63l-179 473q-7 18 14 18h57q20 0 24 -14zM167 680q21 0 35.5 -13t14.5 -35q0 -23 -15 -36t-36 -13t-36 13
t-15 35q0 23 15 36t37 13zM344 680q21 0 35.5 -13t14.5 -35q0 -23 -15 -36t-36 -13t-36 13t-15 35q0 23 15 36t37 13z" />
    <glyph glyph-name="Amacron" unicode="&#x100;" horiz-adv-x="608" 
d="M170 204l-69 -188q-5 -16 -24 -16h-55q-20 0 -12 20l251 655q5 14 18 14h53q14 0 18 -12l247 -657q8 -20 -13 -20h-64q-19 0 -24 16l-67 188h-259zM194 273h211l-103 297h-1zM189 847h227q19 0 19 -20v-24q0 -19 -19 -19h-227q-19 0 -19 19v24q0 20 19 20z" />
    <glyph glyph-name="amacron" unicode="&#x101;" horiz-adv-x="543" 
d="M389 74h-2q-18 -34 -61.5 -59t-88.5 -25q-98 0 -148.5 70t-50.5 173q0 121 61.5 191t151.5 70q39 0 75.5 -16t58.5 -45l1 32q0 18 19 18h44q19 0 19 -19v-350q0 -31 3.5 -42.5t18.5 -11.5h4q17 0 17 -15v-30q0 -15 -17 -15h-40q-31 0 -48 21t-17 53zM383 162v192
q-18 33 -51 52.5t-70 19.5q-59 0 -97 -50t-38 -137q0 -81 34 -129.5t89 -48.5q45 0 81.5 30t51.5 71zM146 655h227q19 0 19 -20v-24q0 -19 -19 -19h-227q-19 0 -19 19v24q0 20 19 20z" />
    <glyph glyph-name="Abreve" unicode="&#x102;" horiz-adv-x="608" 
d="M170 204l-69 -188q-5 -16 -24 -16h-55q-20 0 -12 20l251 655q5 14 18 14h53q14 0 18 -12l247 -657q8 -20 -13 -20h-64q-19 0 -24 16l-67 188h-259zM194 273h211l-103 297h-1zM431 861q0 -46 -35.5 -74.5t-91.5 -28.5q-58 0 -94.5 27.5t-36.5 75.5q0 14 19 14h29
q18 0 19 -16q5 -44 64 -44q56 0 62 44q2 16 22 16h26q17 0 17 -14z" />
    <glyph glyph-name="abreve" unicode="&#x103;" horiz-adv-x="543" 
d="M389 74h-2q-18 -34 -61.5 -59t-88.5 -25q-98 0 -148.5 70t-50.5 173q0 121 61.5 191t151.5 70q39 0 75.5 -16t58.5 -45l1 32q0 18 19 18h44q19 0 19 -19v-350q0 -31 3.5 -42.5t18.5 -11.5h4q17 0 17 -15v-30q0 -15 -17 -15h-40q-31 0 -48 21t-17 53zM383 162v192
q-18 33 -51 52.5t-70 19.5q-59 0 -97 -50t-38 -137q0 -81 34 -129.5t89 -48.5q45 0 81.5 30t51.5 71zM385 661q0 -46 -35.5 -74.5t-91.5 -28.5q-58 0 -94.5 27.5t-36.5 75.5q0 14 19 14h29q18 0 19 -16q5 -44 64 -44q56 0 62 44q2 16 22 16h26q17 0 17 -14z" />
    <glyph glyph-name="Aogonek" unicode="&#x104;" horiz-adv-x="608" 
d="M170 204l-69 -188q-5 -16 -24 -16h-55q-20 0 -12 20l251 655q5 14 18 14h53q14 0 18 -12l243 -646q7 -19 -15 -31q-100 -52 -100 -111q0 -35 43 -35q25 0 53 10q16 5 19 -8l8 -30q2 -11 -11 -17q-39 -15 -86 -15q-55 0 -81 23t-26 60q0 41 27.5 74t75.5 53l-71 200h-259z
M194 273h211l-103 297h-1z" />
    <glyph glyph-name="aogonek" unicode="&#x105;" horiz-adv-x="543" 
d="M389 74h-2q-18 -34 -61.5 -59t-88.5 -25q-98 0 -148.5 70t-50.5 173q0 121 61.5 191t151.5 70q39 0 75.5 -16t58.5 -45l1 32q0 18 19 18h44q19 0 19 -19v-350q0 -31 3.5 -42.5t18.5 -11.5h4q17 0 17 -15v-24q0 -15 -18 -26q-75 -46 -75 -106q0 -35 43 -35q25 0 53 10
q16 5 19 -8l8 -30q2 -11 -11 -17q-39 -15 -86 -15q-55 0 -81 23t-26 60q0 40 26 73.5t65 53.5q-39 16 -39 70zM383 162v192q-18 33 -51 52.5t-70 19.5q-59 0 -97 -50t-38 -137q0 -81 34 -129.5t89 -48.5q45 0 81.5 30t51.5 71z" />
    <glyph glyph-name="Cacute" unicode="&#x106;" horiz-adv-x="591" 
d="M369 64q82 0 154 36q18 8 25 -9l12 -30q7 -19 -11 -28q-86 -43 -193 -43q-150 0 -228.5 99.5t-78.5 254.5q0 97 36 177t108.5 130t169.5 50q102 0 184 -45q16 -9 9 -26l-17 -36q-7 -15 -22 -7q-69 39 -148 39q-106 0 -163.5 -81.5t-57.5 -192.5q0 -123 56 -205.5
t165 -82.5zM457 895l20 -33q13 -17 -6 -25l-153 -79q-15 -8 -24 6l-12 20q-9 15 5 24l141 91q18 12 29 -4z" />
    <glyph glyph-name="cacute" unicode="&#x107;" horiz-adv-x="440" 
d="M417 444l-11 -31q-5 -15 -21 -8q-51 23 -102 23q-71 0 -113 -49.5t-42 -133.5q0 -83 37.5 -136.5t113.5 -53.5q59 0 111 23q15 6 20 -8l9 -28q5 -16 -11 -24q-60 -28 -135 -28q-114 0 -173.5 67.5t-59.5 183.5q0 112 64 182.5t175 70.5q73 0 129 -29q14 -8 9 -21z
M362 692l20 -33q13 -17 -6 -25l-153 -79q-15 -7 -24 6l-12 20q-9 15 5 24l141 91q18 12 29 -4z" />
    <glyph glyph-name="Ccircumflex" unicode="&#x108;" horiz-adv-x="591" 
d="M369 64q82 0 154 36q18 8 25 -9l12 -30q7 -19 -11 -28q-86 -43 -193 -43q-150 0 -228.5 99.5t-78.5 254.5q0 97 36 177t108.5 130t169.5 50q102 0 184 -45q16 -9 9 -26l-17 -36q-7 -15 -22 -7q-69 39 -148 39q-106 0 -163.5 -81.5t-57.5 -192.5q0 -123 56 -205.5
t165 -82.5zM356 835l-97 -76q-15 -12 -25 0l-14 15q-9 11 1 21l105 95q10 8 21 8h18q12 0 20 -7l110 -98q10 -10 1 -21l-15 -16q-11 -11 -22 -2z" />
    <glyph glyph-name="ccircumflex" unicode="&#x109;" horiz-adv-x="440" 
d="M417 444l-11 -31q-5 -15 -21 -8q-51 23 -102 23q-71 0 -113 -49.5t-42 -133.5q0 -83 37.5 -136.5t113.5 -53.5q59 0 111 23q15 6 20 -8l9 -28q5 -16 -11 -24q-60 -28 -135 -28q-114 0 -173.5 67.5t-59.5 183.5q0 112 64 182.5t175 70.5q73 0 129 -29q14 -8 9 -21z
M269 635l-97 -76q-15 -12 -25 0l-14 15q-9 11 1 21l105 95q10 8 21 8h18q12 0 20 -7l110 -98q10 -10 1 -21l-15 -16q-11 -11 -22 -2z" />
    <glyph glyph-name="Cdotaccent" unicode="&#x10a;" horiz-adv-x="591" 
d="M369 64q82 0 154 36q18 8 25 -9l12 -30q7 -19 -11 -28q-86 -43 -193 -43q-150 0 -228.5 99.5t-78.5 254.5q0 97 36 177t108.5 130t169.5 50q102 0 184 -45q16 -9 9 -26l-17 -36q-7 -15 -22 -7q-69 39 -148 39q-106 0 -163.5 -81.5t-57.5 -192.5q0 -123 56 -205.5
t165 -82.5zM358 891q24 0 40.5 -15t16.5 -40q0 -26 -17 -41t-41 -15t-41 15t-17 40q0 26 17 41t42 15z" />
    <glyph glyph-name="cdotaccent" unicode="&#x10b;" horiz-adv-x="440" 
d="M417 444l-11 -31q-5 -15 -21 -8q-51 23 -102 23q-71 0 -113 -49.5t-42 -133.5q0 -83 37.5 -136.5t113.5 -53.5q59 0 111 23q15 6 20 -8l9 -28q5 -16 -11 -24q-60 -28 -135 -28q-114 0 -173.5 67.5t-59.5 183.5q0 112 64 182.5t175 70.5q73 0 129 -29q14 -8 9 -21z
M262 694q24 0 40.5 -15t16.5 -40q0 -26 -17 -41t-41 -15t-41 15t-17 40q0 26 17 41t42 15z" />
    <glyph glyph-name="Ccaron" unicode="&#x10c;" horiz-adv-x="591" 
d="M369 64q82 0 154 36q18 8 25 -9l12 -30q7 -19 -11 -28q-86 -43 -193 -43q-150 0 -228.5 99.5t-78.5 254.5q0 97 36 177t108.5 130t169.5 50q102 0 184 -45q16 -9 9 -26l-17 -36q-7 -15 -22 -7q-69 39 -148 39q-106 0 -163.5 -81.5t-57.5 -192.5q0 -123 56 -205.5
t165 -82.5zM357 815l101 79q14 11 24 0l13 -14q11 -12 -1 -24l-108 -98q-10 -9 -22 -9h-14q-11 0 -23 10l-104 95q-12 12 -2 23l12 13q12 12 28 1z" />
    <glyph glyph-name="ccaron" unicode="&#x10d;" horiz-adv-x="440" 
d="M417 444l-11 -31q-5 -15 -21 -8q-51 23 -102 23q-71 0 -113 -49.5t-42 -133.5q0 -83 37.5 -136.5t113.5 -53.5q59 0 111 23q15 6 20 -8l9 -28q5 -16 -11 -24q-60 -28 -135 -28q-114 0 -173.5 67.5t-59.5 183.5q0 112 64 182.5t175 70.5q73 0 129 -29q14 -8 9 -21z
M263 615l101 79q14 10 24 0l13 -14q11 -12 -1 -24l-108 -98q-10 -9 -22 -9h-14q-11 0 -23 10l-104 95q-12 12 -2 23l12 13q12 12 28 1z" />
    <glyph glyph-name="Dcaron" unicode="&#x10e;" horiz-adv-x="670" 
d="M624 341q0 -174 -103 -268q-82 -73 -246 -73h-178q-21 0 -21 23v643q0 23 21 23h134q97 0 153.5 -10.5t102.5 -39.5q65 -40 101 -117t36 -181zM525 342q0 156 -85 224q-59 48 -176 48h-95v-540h86q73 0 118.5 11.5t78.5 44.5q73 75 73 212zM300 815l101 79q14 11 24 0
l13 -14q12 -12 -1 -24l-108 -98q-11 -9 -22 -9h-14q-11 0 -23 10l-104 95q-12 12 -2 23l12 13q12 12 28 1z" />
    <glyph glyph-name="dcaron" unicode="&#x10f;" horiz-adv-x="540" 
d="M393 55q-24 -29 -64.5 -47t-82.5 -18q-102 0 -154 71t-52 178q0 112 60 183.5t158 71.5q36 0 72.5 -15t57.5 -40v244q0 19 15 21l50 7q20 3 20 -17v-673q0 -21 -20 -21h-38q-21 0 -21 20zM388 124v233q-16 29 -49 49t-69 20q-67 0 -104.5 -49.5t-37.5 -133.5
q0 -82 35.5 -133.5t98.5 -51.5q35 0 71 19.5t55 46.5zM624 656q0 -35 -20 -70.5t-49 -51.5q-9 -6 -15 1l-8 8q-7 8 2 15q27 24 27 52q0 11 -13.5 28.5t-13.5 30.5q0 18 12.5 30t31.5 12q20 0 33 -17t13 -38z" />
    <glyph glyph-name="Dcroat" unicode="&#x110;" horiz-adv-x="686" 
d="M92 375v291q0 23 21 23h134q97 0 153.5 -10.5t102.5 -39.5q65 -40 101 -117t36 -181q0 -174 -103 -268q-82 -73 -246 -73h-178q-21 0 -21 23v281h-68q-21 0 -21 21v28q0 13 4.5 17.5t16.5 4.5h68zM541 342q0 156 -85 224q-59 48 -176 48h-95v-239h124q12 0 16.5 -4.5
t4.5 -17.5v-28q0 -21 -21 -21h-124v-230h86q73 0 118.5 11.5t78.5 44.5q73 75 73 212z" />
    <glyph glyph-name="dcroat" unicode="&#x111;" horiz-adv-x="540" 
d="M288 631h100v52q0 19 15 21l50 7q20 3 20 -17v-63h52q19 0 19 -20v-24q0 -19 -19 -19h-52v-547q0 -21 -20 -21h-38q-21 0 -21 20l-1 35q-24 -29 -64.5 -47t-82.5 -18q-102 0 -154 71t-52 178q0 112 60 183.5t158 71.5q36 0 72.5 -15t57.5 -40v129h-100q-19 0 -19 19v24
q0 20 19 20zM388 124v233q-16 29 -49 49t-69 20q-67 0 -104.5 -49.5t-37.5 -133.5q0 -82 35.5 -133.5t98.5 -51.5q35 0 71 19.5t55 46.5z" />
    <glyph glyph-name="Emacron" unicode="&#x112;" horiz-adv-x="510" 
d="M169 616v-219h236q19 0 19 -16v-40q0 -16 -19 -16h-236v-252h278q19 0 19 -16v-41q0 -16 -19 -16h-350q-21 0 -21 23v643q0 23 21 23h350q20 0 17 -17l-6 -40q-2 -16 -22 -16h-267zM164 847h227q19 0 19 -20v-24q0 -19 -19 -19h-227q-19 0 -19 19v24q0 20 19 20z" />
    <glyph glyph-name="emacron" unicode="&#x113;" horiz-adv-x="499" 
d="M436 229h-307q2 -74 42.5 -121.5t111.5 -47.5q75 0 123 21q17 7 22 -7l12 -33q5 -14 -10 -22q-57 -29 -158 -29q-112 0 -172 68.5t-60 183.5q0 112 62 182t168 70q94 0 145 -60t51 -152v-25q0 -18 -5.5 -23t-24.5 -5zM131 287h251v18q0 54 -30 88.5t-86 34.5
q-59 0 -94 -40t-41 -101zM150 655h227q19 0 19 -20v-24q0 -19 -19 -19h-227q-19 0 -19 19v24q0 20 19 20z" />
    <glyph glyph-name="Ebreve" unicode="&#x114;" horiz-adv-x="510" 
d="M169 616v-219h236q19 0 19 -16v-40q0 -16 -19 -16h-236v-252h278q19 0 19 -16v-41q0 -16 -19 -16h-350q-21 0 -21 23v643q0 23 21 23h350q20 0 17 -17l-6 -40q-2 -16 -22 -16h-267zM407 861q0 -46 -35.5 -74.5t-91.5 -28.5q-58 0 -94.5 27.5t-36.5 75.5q0 14 19 14h29
q18 0 19 -16q5 -44 64 -44q56 0 62 44q2 16 22 16h26q17 0 17 -14z" />
    <glyph glyph-name="ebreve" unicode="&#x115;" horiz-adv-x="499" 
d="M436 229h-307q2 -74 42.5 -121.5t111.5 -47.5q75 0 123 21q17 7 22 -7l12 -33q5 -14 -10 -22q-57 -29 -158 -29q-112 0 -172 68.5t-60 183.5q0 112 62 182t168 70q94 0 145 -60t51 -152v-25q0 -18 -5.5 -23t-24.5 -5zM131 287h251v18q0 54 -30 88.5t-86 34.5
q-59 0 -94 -40t-41 -101zM392 661q0 -46 -35.5 -74.5t-91.5 -28.5q-58 0 -94.5 27.5t-36.5 75.5q0 14 19 14h29q18 0 19 -16q5 -44 64 -44q56 0 62 44q2 16 22 16h26q17 0 17 -14z" />
    <glyph glyph-name="Edotaccent" unicode="&#x116;" horiz-adv-x="510" 
d="M169 616v-219h236q19 0 19 -16v-40q0 -16 -19 -16h-236v-252h278q19 0 19 -16v-41q0 -16 -19 -16h-350q-21 0 -21 23v643q0 23 21 23h350q20 0 17 -17l-6 -40q-2 -16 -22 -16h-267zM279 891q24 0 40.5 -15t16.5 -40q0 -26 -17 -41t-41 -15t-41 15t-17 40q0 26 17 41
t42 15z" />
    <glyph glyph-name="edotaccent" unicode="&#x117;" horiz-adv-x="499" 
d="M436 229h-307q2 -74 42.5 -121.5t111.5 -47.5q75 0 123 21q17 7 22 -7l12 -33q5 -14 -10 -22q-57 -29 -158 -29q-112 0 -172 68.5t-60 183.5q0 112 62 182t168 70q94 0 145 -60t51 -152v-25q0 -18 -5.5 -23t-24.5 -5zM131 287h251v18q0 54 -30 88.5t-86 34.5
q-59 0 -94 -40t-41 -101zM265 694q24 0 40.5 -15t16.5 -40q0 -26 -17 -41t-41 -15t-41 15t-17 40q0 26 17 41t42 15z" />
    <glyph glyph-name="Eogonek" unicode="&#x118;" horiz-adv-x="510" 
d="M169 616v-219h236q19 0 19 -16v-40q0 -16 -19 -16h-236v-252h278q19 0 19 -16v-41q0 -16 -19 -16h-24q-78 -59 -78 -111q0 -35 43 -35q25 0 53 10q16 5 19 -8l8 -30q2 -11 -11 -17q-39 -15 -86 -15q-55 0 -81 23t-26 60q0 74 83 123h-250q-21 0 -21 23v643q0 23 21 23
h350q20 0 17 -17l-6 -40q-2 -16 -22 -16h-267z" />
    <glyph glyph-name="eogonek" unicode="&#x119;" horiz-adv-x="499" 
d="M436 229h-307q2 -74 42.5 -121.5t111.5 -47.5q75 0 123 21q17 7 22 -7l12 -33q5 -14 -10 -22q-23 -12 -67 -23q-137 -36 -137 -107q0 -35 43 -35q25 0 53 10q16 5 19 -8l8 -30q2 -11 -11 -17q-39 -15 -86 -15q-55 0 -81 23t-26 60q0 84 94 115q-98 12 -148.5 77.5
t-50.5 172.5q0 112 62 182t168 70q94 0 145 -60t51 -152v-25q0 -18 -5.5 -23t-24.5 -5zM131 287h251v18q0 54 -30 88.5t-86 34.5q-59 0 -94 -40t-41 -101z" />
    <glyph glyph-name="Ecaron" unicode="&#x11a;" horiz-adv-x="510" 
d="M169 616v-219h236q19 0 19 -16v-40q0 -16 -19 -16h-236v-252h278q19 0 19 -16v-41q0 -16 -19 -16h-350q-21 0 -21 23v643q0 23 21 23h350q20 0 17 -17l-6 -40q-2 -16 -22 -16h-267zM278 815l101 79q14 11 24 0l13 -14q12 -12 -1 -24l-108 -98q-11 -9 -22 -9h-14
q-11 0 -23 10l-104 95q-12 12 -2 23l12 13q12 12 28 1z" />
    <glyph glyph-name="ecaron" unicode="&#x11b;" horiz-adv-x="499" 
d="M436 229h-307q2 -74 42.5 -121.5t111.5 -47.5q75 0 123 21q17 7 22 -7l12 -33q5 -14 -10 -22q-57 -29 -158 -29q-112 0 -172 68.5t-60 183.5q0 112 62 182t168 70q94 0 145 -60t51 -152v-25q0 -18 -5.5 -23t-24.5 -5zM131 287h251v18q0 54 -30 88.5t-86 34.5
q-59 0 -94 -40t-41 -101zM263 615l101 79q14 10 24 0l13 -14q11 -12 -1 -24l-108 -98q-10 -9 -22 -9h-14q-11 0 -23 10l-104 95q-12 12 -2 23l12 13q12 12 28 1z" />
    <glyph glyph-name="Gcircumflex" unicode="&#x11c;" horiz-adv-x="658" 
d="M496 325h-104q-19 0 -19 16v40q0 16 19 16h177q20 0 20 -22v-301q0 -27 -22 -39q-82 -45 -196 -45q-158 0 -240 96.5t-82 257.5q0 156 90.5 256.5t244.5 100.5q93 0 166 -32q16 -7 10 -24l-14 -39q-6 -16 -23 -9q-64 27 -136 27q-114 0 -176.5 -79t-62.5 -199
q0 -122 55.5 -202.5t165.5 -80.5q79 0 127 24v238zM371 835l-97 -76q-15 -12 -25 0l-14 15q-9 11 1 21l105 95q10 8 21 8h18q12 0 20 -7l110 -98q10 -10 1 -21l-15 -16q-11 -11 -22 -2z" />
    <glyph glyph-name="gcircumflex" unicode="&#x11d;" horiz-adv-x="540" 
d="M391 435l1 31q0 17 20 17h44q18 0 18 -20v-437q0 -246 -225 -246q-77 0 -143 34q-17 9 -11 23l15 36q6 16 22 7q58 -30 115 -30q80 0 111 40t31 123v46q-23 -26 -64 -42.5t-79 -16.5q-101 0 -153.5 68t-52.5 173q0 106 58 179.5t161 73.5q37 0 74 -16t58 -43zM389 132
v225q-17 30 -50.5 49.5t-69.5 19.5q-71 0 -105.5 -52t-34.5 -128q0 -73 31.5 -125t99.5 -52q36 0 73 18t56 45zM261 635l-97 -76q-15 -12 -25 0l-14 15q-9 11 1 21l105 95q10 8 21 8h18q12 0 20 -7l110 -98q10 -10 1 -21l-15 -16q-11 -11 -22 -2z" />
    <glyph glyph-name="Gbreve" unicode="&#x11e;" horiz-adv-x="658" 
d="M496 325h-104q-19 0 -19 16v40q0 16 19 16h177q20 0 20 -22v-301q0 -27 -22 -39q-82 -45 -196 -45q-158 0 -240 96.5t-82 257.5q0 156 90.5 256.5t244.5 100.5q93 0 166 -32q16 -7 10 -24l-14 -39q-6 -16 -23 -9q-64 27 -136 27q-114 0 -176.5 -79t-62.5 -199
q0 -122 55.5 -202.5t165.5 -80.5q79 0 127 24v238zM502 861q0 -46 -35.5 -74.5t-91.5 -28.5q-58 0 -94.5 27.5t-36.5 75.5q0 14 19 14h29q18 0 19 -16q5 -44 64 -44q56 0 62 44q2 16 22 16h26q17 0 17 -14z" />
    <glyph glyph-name="gbreve" unicode="&#x11f;" horiz-adv-x="540" 
d="M391 435l1 31q0 17 20 17h44q18 0 18 -20v-437q0 -246 -225 -246q-77 0 -143 34q-17 9 -11 23l15 36q6 16 22 7q58 -30 115 -30q80 0 111 40t31 123v46q-23 -26 -64 -42.5t-79 -16.5q-101 0 -153.5 68t-52.5 173q0 106 58 179.5t161 73.5q37 0 74 -16t58 -43zM389 132
v225q-17 30 -50.5 49.5t-69.5 19.5q-71 0 -105.5 -52t-34.5 -128q0 -73 31.5 -125t99.5 -52q36 0 73 18t56 45zM392 661q0 -46 -35.5 -74.5t-91.5 -28.5q-58 0 -94.5 27.5t-36.5 75.5q0 14 19 14h29q18 0 19 -16q5 -44 64 -44q56 0 62 44q2 16 22 16h26q17 0 17 -14z" />
    <glyph glyph-name="Gdotaccent" unicode="&#x120;" horiz-adv-x="658" 
d="M496 325h-104q-19 0 -19 16v40q0 16 19 16h177q20 0 20 -22v-301q0 -27 -22 -39q-82 -45 -196 -45q-158 0 -240 96.5t-82 257.5q0 156 90.5 256.5t244.5 100.5q93 0 166 -32q16 -7 10 -24l-14 -39q-6 -16 -23 -9q-64 27 -136 27q-114 0 -176.5 -79t-62.5 -199
q0 -122 55.5 -202.5t165.5 -80.5q79 0 127 24v238zM371 891q24 0 40.5 -15t16.5 -40q0 -26 -17 -41t-41 -15t-41 15t-17 40q0 26 17 41t42 15z" />
    <glyph glyph-name="gdotaccent" unicode="&#x121;" horiz-adv-x="540" 
d="M391 435l1 31q0 17 20 17h44q18 0 18 -20v-437q0 -246 -225 -246q-77 0 -143 34q-17 9 -11 23l15 36q6 16 22 7q58 -30 115 -30q80 0 111 40t31 123v46q-23 -26 -64 -42.5t-79 -16.5q-101 0 -153.5 68t-52.5 173q0 106 58 179.5t161 73.5q37 0 74 -16t58 -43zM389 132
v225q-17 30 -50.5 49.5t-69.5 19.5q-71 0 -105.5 -52t-34.5 -128q0 -73 31.5 -125t99.5 -52q36 0 73 18t56 45zM265 694q24 0 40.5 -15t16.5 -40q0 -26 -17 -41t-41 -15t-41 15t-17 40q0 26 17 41t42 15z" />
    <glyph glyph-name="Gcommaaccent" unicode="&#x122;" horiz-adv-x="658" 
d="M496 325h-104q-19 0 -19 16v40q0 16 19 16h177q20 0 20 -22v-301q0 -27 -22 -39q-82 -45 -196 -45q-158 0 -240 96.5t-82 257.5q0 156 90.5 256.5t244.5 100.5q93 0 166 -32q16 -7 10 -24l-14 -39q-6 -16 -23 -9q-64 27 -136 27q-114 0 -176.5 -79t-62.5 -199
q0 -122 55.5 -202.5t165.5 -80.5q79 0 127 24v238zM407 -95q0 -35 -20 -70.5t-49 -51.5q-9 -6 -15 1l-8 8q-7 8 2 15q27 24 27 52q0 11 -13.5 28.5t-13.5 30.5q0 18 12.5 30t31.5 12q20 0 33 -17t13 -38z" />
    <glyph glyph-name="gcommaaccent" unicode="&#x123;" horiz-adv-x="540" 
d="M217 603q0 35 20 70.5t49 51.5q9 6 15 -1l8 -8q7 -8 -2 -15q-27 -24 -27 -52q0 -11 13.5 -28.5t13.5 -30.5q0 -18 -12.5 -30t-31.5 -12q-20 0 -33 17t-13 38zM391 435l1 31q0 17 20 17h44q18 0 18 -20v-437q0 -246 -225 -246q-77 0 -143 34q-17 9 -11 23l15 36q6 16 22 7
q58 -30 115 -30q80 0 111 40t31 123v46q-23 -26 -64 -42.5t-79 -16.5q-101 0 -153.5 68t-52.5 173q0 106 58 179.5t161 73.5q37 0 74 -16t58 -43zM389 132v225q-17 30 -50.5 49.5t-69.5 19.5q-71 0 -105.5 -52t-34.5 -128q0 -73 31.5 -125t99.5 -52q36 0 73 18t56 45z" />
    <glyph glyph-name="Hcircumflex" unicode="&#x124;" horiz-adv-x="660" 
d="M491 397v272q0 20 19 20h54q20 0 20 -20v-649q0 -20 -19 -20h-54q-20 0 -20 20v305h-322v-305q0 -20 -19 -20h-54q-20 0 -20 20v649q0 20 19 20h54q20 0 20 -20v-272h322zM328 835l-97 -76q-15 -12 -25 0l-14 15q-9 11 1 21l105 95q10 8 21 8h18q12 0 20 -7l110 -98
q10 -10 1 -21l-15 -16q-11 -11 -22 -2z" />
    <glyph glyph-name="hcircumflex" unicode="&#x125;" horiz-adv-x="538" 
d="M152 365v-344q0 -21 -20 -21h-45q-20 0 -20 21v662q0 19 15 21l50 7q20 3 20 -17v-259q67 59 164 59q157 0 157 -179v-294q0 -21 -20 -21h-45q-20 0 -20 21v280q0 59 -21 90.5t-76 31.5q-34 0 -73 -16.5t-66 -41.5zM109 797l-97 -76q-15 -12 -25 0l-14 15q-9 11 1 21
l105 95q10 8 21 8h18q12 0 20 -7l110 -98q10 -10 1 -21l-15 -16q-11 -11 -22 -2z" />
    <glyph glyph-name="Hbar" unicode="&#x126;" horiz-adv-x="676" 
d="M53 575h31v94q0 20 19 20h54q20 0 20 -20v-94h322v94q0 20 19 20h54q20 0 20 -20v-94h31q12 0 16.5 -4.5t4.5 -17.5v-25q0 -21 -21 -21h-31v-487q0 -20 -19 -20h-54q-20 0 -20 20v298h-322v-298q0 -20 -19 -20h-54q-20 0 -20 20v487h-31q-21 0 -21 21v25q0 13 4.5 17.5
t16.5 4.5zM499 390v117h-322v-117h322z" />
    <glyph glyph-name="hbar" unicode="&#x127;" horiz-adv-x="538" 
d="M152 365v-344q0 -21 -20 -21h-45q-20 0 -20 21v547h-42q-19 0 -19 19v24q0 20 19 20h42v52q0 19 15 21l50 7q20 3 20 -17v-63h148q19 0 19 -20v-24q0 -19 -19 -19h-148v-133q67 59 164 59q157 0 157 -179v-294q0 -21 -20 -21h-45q-20 0 -20 21v280q0 59 -21 90.5
t-76 31.5q-34 0 -73 -16.5t-66 -41.5z" />
    <glyph glyph-name="Itilde" unicode="&#x128;" horiz-adv-x="371" 
d="M231 627v-564h58q19 0 19 -16v-31q0 -16 -19 -16h-204q-19 0 -19 16v31q0 16 19 16h56v564h-60q-19 0 -19 16v30q0 16 19 16h209q19 0 19 -16v-30q0 -16 -19 -16h-59zM181 786l-23 11q-28 14 -44 14q-18 0 -26.5 -6t-16.5 -21q-9 -18 -26 -9l-20 10q-15 6 -8 24
q25 66 105 66q33 0 73 -20l24 -12q26 -13 47 -13q23 0 36 23q12 20 29 11l20 -10q11 -6 6 -21q-12 -34 -38.5 -51.5t-60.5 -17.5q-31 0 -77 22z" />
    <glyph glyph-name="itilde" unicode="&#x129;" horiz-adv-x="235" 
d="M160 463v-442q0 -21 -20 -21h-45q-20 0 -20 21v442q0 20 20 20h46q19 0 19 -20zM113 589l-23 11q-28 14 -44 14q-18 0 -26.5 -6t-16.5 -21q-9 -18 -26 -9l-20 10q-15 6 -8 24q25 66 105 66q33 0 73 -20l24 -12q26 -13 47 -13q23 0 36 23q12 20 29 11l20 -10q11 -6 6 -21
q-12 -34 -38.5 -51.5t-60.5 -17.5q-31 0 -77 22z" />
    <glyph glyph-name="Imacron" unicode="&#x12a;" horiz-adv-x="371" 
d="M231 627v-564h58q19 0 19 -16v-31q0 -16 -19 -16h-204q-19 0 -19 16v31q0 16 19 16h56v564h-60q-19 0 -19 16v30q0 16 19 16h209q19 0 19 -16v-30q0 -16 -19 -16h-59zM74 847h227q19 0 19 -20v-24q0 -19 -19 -19h-227q-19 0 -19 19v24q0 20 19 20z" />
    <glyph glyph-name="imacron" unicode="&#x12b;" horiz-adv-x="235" 
d="M160 463v-442q0 -21 -20 -21h-45q-20 0 -20 21v442q0 20 20 20h46q19 0 19 -20zM6 655h227q19 0 19 -20v-24q0 -19 -19 -19h-227q-19 0 -19 19v24q0 20 19 20z" />
    <glyph glyph-name="Ibreve" unicode="&#x12c;" horiz-adv-x="371" 
d="M231 627v-564h58q19 0 19 -16v-31q0 -16 -19 -16h-204q-19 0 -19 16v31q0 16 19 16h56v564h-60q-19 0 -19 16v30q0 16 19 16h209q19 0 19 -16v-30q0 -16 -19 -16h-59zM316 861q0 -46 -35.5 -74.5t-91.5 -28.5q-58 0 -94.5 27.5t-36.5 75.5q0 14 19 14h29q18 0 19 -16
q5 -44 64 -44q56 0 62 44q2 16 22 16h26q17 0 17 -14z" />
    <glyph glyph-name="ibreve" unicode="&#x12d;" horiz-adv-x="235" 
d="M160 463v-442q0 -21 -20 -21h-45q-20 0 -20 21v442q0 20 20 20h46q19 0 19 -20zM248 661q0 -46 -35.5 -74.5t-91.5 -28.5q-58 0 -94.5 27.5t-36.5 75.5q0 14 19 14h29q18 0 19 -16q5 -44 64 -44q56 0 62 44q2 16 22 16h26q17 0 17 -14z" />
    <glyph glyph-name="Iogonek" unicode="&#x12e;" horiz-adv-x="371" 
d="M231 627v-564h58q19 0 19 -16v-31q0 -16 -19 -16h-50q-78 -59 -78 -111q0 -35 43 -35q25 0 53 10q16 5 19 -8l8 -30q2 -11 -11 -17q-39 -15 -86 -15q-55 0 -81 23t-26 60q0 74 83 123h-78q-19 0 -19 16v31q0 16 19 16h56v564h-60q-19 0 -19 16v30q0 16 19 16h209
q19 0 19 -16v-30q0 -16 -19 -16h-59z" />
    <glyph glyph-name="iogonek" unicode="&#x12f;" horiz-adv-x="235" 
d="M160 463v-434q0 -18 -18 -29q-79 -53 -79 -111q0 -35 43 -35q25 0 53 10q16 5 19 -8l8 -30q2 -11 -11 -17q-39 -15 -86 -15q-55 0 -81 23t-26 60q0 43 26.5 76.5t66.5 54.5v455q0 20 20 20h46q19 0 19 -20zM117 649q22 0 37 -13.5t15 -34.5t-14.5 -34.5t-36.5 -13.5
t-37 13.5t-15 34.5t14.5 34.5t36.5 13.5z" />
    <glyph glyph-name="Idotaccent" unicode="&#x130;" horiz-adv-x="371" 
d="M231 627v-564h58q19 0 19 -16v-31q0 -16 -19 -16h-204q-19 0 -19 16v31q0 16 19 16h56v564h-60q-19 0 -19 16v30q0 16 19 16h209q19 0 19 -16v-30q0 -16 -19 -16h-59zM188 891q24 0 40.5 -15t16.5 -40q0 -26 -17 -41t-41 -15t-41 15t-17 40q0 26 17 41t42 15z" />
    <glyph glyph-name="dotlessi" unicode="&#x131;" horiz-adv-x="235" 
d="M160 463v-442q0 -21 -20 -21h-45q-20 0 -20 21v442q0 20 20 20h46q19 0 19 -20z" />
    <glyph glyph-name="IJ" unicode="&#x132;" horiz-adv-x="753" 
d="M231 627v-564h58q19 0 19 -16v-31q0 -16 -19 -16h-204q-19 0 -19 16v31q0 16 19 16h56v564h-60q-19 0 -19 16v30q0 16 19 16h209q19 0 19 -16v-30q0 -16 -19 -16h-59zM591 627h-112q-19 0 -19 16v30q0 16 19 16h181q21 0 21 -23v-435q0 -125 -40 -183t-151 -58
q-34 0 -61 8q-16 5 -13 20l9 39q4 14 21 11q24 -6 47 -6q26 0 44.5 7.5t29 19.5t16 33t7 40t1.5 49v416z" />
    <glyph glyph-name="ij" unicode="&#x133;" horiz-adv-x="498" 
d="M117 649q22 0 37 -13.5t15 -34.5t-14.5 -34.5t-36.5 -13.5t-37 13.5t-15 34.5t14.5 34.5t36.5 13.5zM160 463v-442q0 -21 -20 -21h-45q-20 0 -20 21v442q0 20 20 20h46q19 0 19 -20zM422 464v-440q0 -119 -40.5 -181.5t-145.5 -62.5q-33 0 -56 6q-15 4 -12 17l6 37
q3 15 16 11q23 -5 49 -5t44 9t28.5 23t16.5 37t7.5 44.5t1.5 51.5v453q0 19 19 19h48q18 0 18 -19zM380 649q22 0 37 -13.5t15 -34.5t-14.5 -34.5t-36.5 -13.5t-37 13.5t-15 34.5t14.5 34.5t36.5 13.5z" />
    <glyph glyph-name="Jcircumflex" unicode="&#x134;" horiz-adv-x="381" 
d="M219 627h-112q-19 0 -19 16v30q0 16 19 16h181q21 0 21 -23v-435q0 -125 -40 -183t-151 -58q-34 0 -61 8q-16 5 -13 20l9 39q4 14 21 11q24 -6 47 -6q26 0 44.5 7.5t29 19.5t16 33t7 40t1.5 49v416zM206 835l-97 -76q-15 -12 -25 0l-14 15q-9 11 1 21l105 95q10 8 21 8
h18q12 0 20 -7l110 -98q10 -10 1 -21l-15 -16q-11 -11 -22 -2z" />
    <glyph glyph-name="jcircumflex" unicode="&#x135;" horiz-adv-x="262" 
d="M186 464v-440q0 -119 -40.5 -181.5t-145.5 -62.5q-33 0 -56 6q-15 4 -12 17l6 37q3 15 16 11q22 -5 49 -5q26 0 44 9t28.5 23t16.5 37t7.5 44.5t1.5 51.5v453q0 19 19 19h48q18 0 18 -19zM140 635l-97 -76q-15 -12 -25 0l-14 15q-9 11 1 21l105 95q10 8 21 8h18
q12 0 20 -7l110 -98q10 -10 1 -21l-15 -16q-11 -11 -22 -2z" />
    <glyph glyph-name="Kcommaaccent" unicode="&#x136;" horiz-adv-x="553" 
d="M502 669l-254 -311l283 -334q8 -8 6.5 -16t-13.5 -8h-66q-23 0 -36 16l-252 303h-1v-299q0 -20 -19 -20h-54q-20 0 -20 20v649q0 20 19 20h54q20 0 20 -20v-290h1l239 295q12 15 33 15h51q11 0 13 -7t-4 -13zM345 -95q0 -35 -20 -70.5t-49 -51.5q-9 -6 -15 1l-8 8
q-7 8 2 15q27 24 27 52q0 11 -13.5 28.5t-13.5 30.5q0 18 12.5 30t31.5 12q20 0 33 -17t13 -38z" />
    <glyph glyph-name="kcommaaccent" unicode="&#x137;" horiz-adv-x="443" 
d="M152 197v-176q0 -21 -20 -21h-45q-20 0 -20 21v662q0 19 15 21l50 7q20 3 20 -17v-404h2l153 179q11 14 28 14h47q13 0 16 -7t-5 -16l-151 -172l179 -263q7 -10 4.5 -17.5t-15.5 -7.5h-54q-22 0 -33 17l-141 212zM294 -95q0 -35 -20 -70.5t-49 -51.5q-9 -6 -15 1l-8 8
q-7 8 2 15q27 24 27 52q0 11 -13.5 28.5t-13.5 30.5q0 18 12.5 30t31.5 12q20 0 33 -17t13 -38z" />
    <glyph glyph-name="kgreenlandic" unicode="&#x138;" horiz-adv-x="473" 
d="M152 463v-191l177 200q10 11 21 11h65q8 0 9 -5.5t-4 -9.5l-171 -189l192 -254q8 -10 5.5 -17.5t-16.5 -7.5h-55q-20 0 -32 17l-154 207l-37 -40v-162q0 -22 -20 -22h-47q-18 0 -18 20v443q0 20 20 20h46q19 0 19 -20z" />
    <glyph glyph-name="Lacute" unicode="&#x139;" horiz-adv-x="454" 
d="M169 74h251q19 0 19 -16v-42q0 -16 -19 -16h-323q-21 0 -21 23v646q0 20 19 20h54q20 0 20 -20v-595zM237 895l20 -33q13 -17 -6 -25l-153 -79q-15 -8 -24 6l-12 20q-9 15 5 24l141 91q18 12 29 -4z" />
    <glyph glyph-name="lacute" unicode="&#x13a;" horiz-adv-x="219" 
d="M152 694v-673q0 -21 -20 -21h-45q-20 0 -20 21v662q0 19 15 21l50 7q20 3 20 -17zM211 892l20 -33q13 -17 -6 -25l-153 -79q-15 -7 -24 6l-12 20q-9 15 5 24l141 91q18 12 29 -4z" />
    <glyph glyph-name="Lcommaaccent" unicode="&#x13b;" horiz-adv-x="454" 
d="M169 74h251q19 0 19 -16v-42q0 -16 -19 -16h-323q-21 0 -21 23v646q0 20 19 20h54q20 0 20 -20v-595zM318 -95q0 -35 -20 -70.5t-49 -51.5q-9 -6 -15 1l-8 8q-7 8 2 15q27 24 27 52q0 11 -13.5 28.5t-13.5 30.5q0 18 12.5 30t31.5 12q20 0 33 -17t13 -38z" />
    <glyph glyph-name="lcommaaccent" unicode="&#x13c;" horiz-adv-x="219" 
d="M152 694v-673q0 -21 -20 -21h-45q-20 0 -20 21v662q0 19 15 21l50 7q20 3 20 -17zM153 -95q0 -35 -20 -70.5t-49 -51.5q-9 -6 -15 1l-8 8q-7 8 2 15q27 24 27 52q0 11 -13.5 28.5t-13.5 30.5q0 18 12.5 30t31.5 12q20 0 33 -17t13 -38z" />
    <glyph glyph-name="Lcaron" unicode="&#x13d;" horiz-adv-x="454" 
d="M169 74h251q19 0 19 -16v-42q0 -16 -19 -16h-323q-21 0 -21 23v646q0 20 19 20h54q20 0 20 -20v-595zM371 636q0 -35 -20 -70.5t-49 -51.5q-9 -6 -15 1l-8 8q-7 8 2 15q27 24 27 52q0 11 -13.5 28.5t-13.5 30.5q0 18 12.5 30t31.5 12q20 0 33 -17t13 -38z" />
    <glyph glyph-name="lcaron" unicode="&#x13e;" horiz-adv-x="219" 
d="M152 694v-673q0 -21 -20 -21h-45q-20 0 -20 21v662q0 19 15 21l50 7q20 3 20 -17zM298 655q0 -35 -20 -70.5t-49 -51.5q-9 -6 -15 1l-8 8q-7 8 2 15q27 24 27 52q0 11 -13.5 28.5t-13.5 30.5q0 18 12.5 30t31.5 12q20 0 33 -17t13 -38z" />
    <glyph glyph-name="Ldot" unicode="&#x13f;" horiz-adv-x="454" 
d="M169 74h251q19 0 19 -16v-42q0 -16 -19 -16h-323q-21 0 -21 23v646q0 20 19 20h54q20 0 20 -20v-595zM350 429q24 0 40.5 -15t16.5 -40q0 -26 -17 -41t-41 -15t-41 15t-17 40q0 26 17 41t42 15z" />
    <glyph glyph-name="ldot" unicode="&#x140;" horiz-adv-x="304" 
d="M152 694v-673q0 -21 -20 -21h-45q-20 0 -20 21v662q0 19 15 21l50 7q20 3 20 -17zM259 424q24 0 40.5 -15t16.5 -40q0 -26 -17 -41t-41 -15t-41 15t-17 40q0 26 17 41t42 15z" />
    <glyph glyph-name="Lslash" unicode="&#x141;" horiz-adv-x="454" 
d="M169 74h251q19 0 19 -16v-42q0 -16 -19 -16h-323q-21 0 -21 23v235l-57 -47q-7 -6 -12 -3t-5 14v35q0 15 15 28l59 49v335q0 20 19 20h54q20 0 20 -20v-258l75 62q7 6 12 3t5 -14v-35q0 -15 -15 -28l-77 -64v-261z" />
    <glyph glyph-name="lslash" unicode="&#x142;" horiz-adv-x="242" 
d="M162 694v-284l65 54q11 9 16.5 5.5t5.5 -15.5v-32q0 -15 -20 -32l-67 -56v-313q0 -21 -20 -21h-45q-20 0 -20 21v243l-60 -50q-19 -15 -19 11v32q0 17 17 31l62 51v344q0 19 15 21l50 7q20 3 20 -17z" />
    <glyph glyph-name="Nacute" unicode="&#x143;" horiz-adv-x="694" 
d="M530 152h2v517q0 20 19 20h47q20 0 20 -20v-649q0 -20 -19 -20h-44q-21 0 -34 20l-357 510h-2v-510q0 -20 -19 -20h-47q-20 0 -20 20v649q0 20 19 20h40q21 0 34 -20zM440 895l20 -33q13 -17 -6 -25l-153 -79q-15 -8 -24 6l-12 20q-9 15 5 24l141 91q18 12 29 -4z" />
    <glyph glyph-name="nacute" unicode="&#x144;" horiz-adv-x="538" 
d="M152 365v-344q0 -21 -20 -21h-45q-20 0 -20 21v442q0 20 19 20h44q19 0 19 -18l1 -31q71 60 164 60q159 0 159 -179v-294q0 -21 -20 -21h-45q-20 0 -20 21v280q0 59 -21 90.5t-77 31.5q-34 0 -72.5 -16.5t-65.5 -41.5zM366 692l20 -33q13 -17 -6 -25l-153 -79
q-15 -7 -24 6l-12 20q-9 15 5 24l141 91q18 12 29 -4z" />
    <glyph glyph-name="Ncommaaccent" unicode="&#x145;" horiz-adv-x="694" 
d="M530 152h2v517q0 20 19 20h47q20 0 20 -20v-649q0 -20 -19 -20h-44q-21 0 -34 20l-357 510h-2v-510q0 -20 -19 -20h-47q-20 0 -20 20v649q0 20 19 20h40q21 0 34 -20zM394 -95q0 -35 -20 -70.5t-49 -51.5q-9 -6 -15 1l-8 8q-7 8 2 15q27 24 27 52q0 11 -13.5 28.5
t-13.5 30.5q0 18 12.5 30t31.5 12q20 0 33 -17t13 -38z" />
    <glyph glyph-name="ncommaaccent" unicode="&#x146;" horiz-adv-x="538" 
d="M152 365v-344q0 -21 -20 -21h-45q-20 0 -20 21v442q0 20 19 20h44q19 0 19 -18l1 -31q71 60 164 60q159 0 159 -179v-294q0 -21 -20 -21h-45q-20 0 -20 21v280q0 59 -21 90.5t-77 31.5q-34 0 -72.5 -16.5t-65.5 -41.5zM317 -95q0 -35 -20 -70.5t-49 -51.5q-9 -6 -15 1
l-8 8q-7 8 2 15q27 24 27 52q0 11 -13.5 28.5t-13.5 30.5q0 18 12.5 30t31.5 12q20 0 33 -17t13 -38z" />
    <glyph glyph-name="Ncaron" unicode="&#x147;" horiz-adv-x="694" 
d="M530 152h2v517q0 20 19 20h47q20 0 20 -20v-649q0 -20 -19 -20h-44q-21 0 -34 20l-357 510h-2v-510q0 -20 -19 -20h-47q-20 0 -20 20v649q0 20 19 20h40q21 0 34 -20zM352 815l101 79q13 11 24 0l13 -14q12 -12 -1 -24l-108 -98q-11 -9 -22 -9h-14q-11 0 -23 10l-104 95
q-12 12 -2 23l12 13q12 12 28 1z" />
    <glyph glyph-name="ncaron" unicode="&#x148;" horiz-adv-x="538" 
d="M152 365v-344q0 -21 -20 -21h-45q-20 0 -20 21v442q0 20 19 20h44q19 0 19 -18l1 -31q71 60 164 60q159 0 159 -179v-294q0 -21 -20 -21h-45q-20 0 -20 21v280q0 59 -21 90.5t-77 31.5q-34 0 -72.5 -16.5t-65.5 -41.5zM275 615l101 79q14 10 24 0l13 -14q11 -12 -1 -24
l-108 -98q-10 -9 -22 -9h-14q-11 0 -23 10l-104 95q-12 12 -2 23l12 13q12 12 28 1z" />
    <glyph glyph-name="napostrophe" unicode="&#x149;" horiz-adv-x="538" 
d="M152 365v-344q0 -21 -20 -21h-45q-20 0 -20 21v442q0 20 19 20h44q19 0 19 -18l1 -31q71 60 164 60q159 0 159 -179v-294q0 -21 -20 -21h-45q-20 0 -20 21v280q0 59 -21 90.5t-77 31.5q-34 0 -72.5 -16.5t-65.5 -41.5zM61 655q0 -35 -20 -70.5t-49 -51.5q-9 -6 -15 1
l-8 8q-7 8 2 15q27 24 27 52q0 11 -13.5 28.5t-13.5 30.5q0 18 12.5 30t31.5 12q20 0 33 -17t13 -38z" />
    <glyph glyph-name="Eng" unicode="&#x14a;" horiz-adv-x="694" 
d="M530 157h2v512q0 20 19 20h47q20 0 20 -20v-657q0 -103 -36.5 -156.5t-139.5 -53.5q-29 0 -57 7q-13 3 -10 19l7 41q2 13 16 10q25 -5 43 -5q53 0 70 29.5t17 85.5v26l-364 510h-2v-505q0 -20 -19 -20h-47q-20 0 -20 20v649q0 20 19 20h37q21 0 34 -20z" />
    <glyph glyph-name="eng" unicode="&#x14b;" horiz-adv-x="538" 
d="M388 301q0 59 -21 90.5t-77 31.5q-34 0 -72.5 -16.5t-65.5 -41.5v-344q0 -21 -20 -21h-45q-20 0 -20 21v442q0 20 19 20h44q19 0 19 -18l1 -31q71 60 164 60q159 0 159 -179v-250q0 -119 -36 -181.5t-129 -62.5q-30 0 -50 6q-14 4 -11 17l6 37q3 14 13 11q19 -5 41 -5
q26 0 43 12.5t25 37.5t10.5 51t2.5 64v249z" />
    <glyph glyph-name="Omacron" unicode="&#x14c;" horiz-adv-x="676" 
d="M627 349q0 -166 -82.5 -262.5t-211.5 -96.5q-134 0 -209 94t-75 258q0 162 81 260.5t212 98.5q135 0 210 -96t75 -256zM529 346q0 133 -49 205.5t-140 72.5q-86 0 -139.5 -77.5t-53.5 -201.5q0 -131 50 -205t140 -74q86 0 139 76t53 204zM230 847h227q19 0 19 -20v-24
q0 -19 -19 -19h-227q-19 0 -19 19v24q0 20 19 20z" />
    <glyph glyph-name="omacron" unicode="&#x14d;" horiz-adv-x="535" 
d="M495 242q0 -110 -61.5 -181t-169.5 -71q-111 0 -167.5 70t-56.5 183q0 110 61 180.5t169 70.5q112 0 168.5 -69t56.5 -183zM407 241q0 79 -33 133t-105 54q-74 0 -107.5 -53t-33.5 -130q0 -80 32 -134.5t105 -54.5t107.5 53.5t34.5 131.5zM157 655h227q19 0 19 -20v-24
q0 -19 -19 -19h-227q-19 0 -19 19v24q0 20 19 20z" />
    <glyph glyph-name="Obreve" unicode="&#x14e;" horiz-adv-x="676" 
d="M627 349q0 -166 -82.5 -262.5t-211.5 -96.5q-134 0 -209 94t-75 258q0 162 81 260.5t212 98.5q135 0 210 -96t75 -256zM529 346q0 133 -49 205.5t-140 72.5q-86 0 -139.5 -77.5t-53.5 -201.5q0 -131 50 -205t140 -74q86 0 139 76t53 204zM472 861q0 -46 -35.5 -74.5
t-91.5 -28.5q-58 0 -94.5 27.5t-36.5 75.5q0 14 19 14h29q18 0 19 -16q5 -44 64 -44q56 0 62 44q2 16 22 16h26q17 0 17 -14z" />
    <glyph glyph-name="obreve" unicode="&#x14f;" horiz-adv-x="535" 
d="M495 242q0 -110 -61.5 -181t-169.5 -71q-111 0 -167.5 70t-56.5 183q0 110 61 180.5t169 70.5q112 0 168.5 -69t56.5 -183zM407 241q0 79 -33 133t-105 54q-74 0 -107.5 -53t-33.5 -130q0 -80 32 -134.5t105 -54.5t107.5 53.5t34.5 131.5zM399 662q0 -46 -35.5 -74.5
t-91.5 -28.5q-58 0 -94.5 27.5t-36.5 75.5q0 14 19 14h29q18 0 19 -16q5 -44 64 -44q56 0 62 44q2 16 22 16h26q17 0 17 -14z" />
    <glyph glyph-name="Ohungarumlaut" unicode="&#x150;" horiz-adv-x="676" 
d="M627 349q0 -166 -82.5 -262.5t-211.5 -96.5q-134 0 -209 94t-75 258q0 162 81 260.5t212 98.5q135 0 210 -96t75 -256zM529 346q0 133 -49 205.5t-140 72.5q-86 0 -139.5 -77.5t-53.5 -201.5q0 -131 50 -205t140 -74q86 0 139 76t53 204zM198 804l140 92q18 13 28 -5
l18 -31q11 -17 -8 -26l-148 -74q-18 -8 -26 5l-9 16q-9 14 5 23zM421 804l140 92q18 13 28 -5l18 -31q11 -17 -8 -26l-148 -74q-18 -8 -26 5l-9 16q-9 14 5 23z" />
    <glyph glyph-name="ohungarumlaut" unicode="&#x151;" horiz-adv-x="535" 
d="M495 242q0 -110 -61.5 -181t-169.5 -71q-111 0 -167.5 70t-56.5 183q0 110 61 180.5t169 70.5q112 0 168.5 -69t56.5 -183zM407 241q0 79 -33 133t-105 54q-74 0 -107.5 -53t-33.5 -130q0 -80 32 -134.5t105 -54.5t107.5 53.5t34.5 131.5zM141 604l140 92q18 13 28 -5
l18 -31q11 -17 -8 -26l-148 -74q-18 -8 -26 5l-9 16q-9 14 5 23zM364 604l140 92q18 13 28 -5l18 -31q11 -17 -8 -26l-148 -74q-18 -8 -26 5l-9 16q-9 14 5 23z" />
    <glyph glyph-name="OE" unicode="&#x152;" horiz-adv-x="935" 
d="M594 616v-219h236q19 0 19 -16v-40q0 -16 -19 -16h-236v-252h278q19 0 19 -16v-41q0 -16 -19 -16h-350q-21 0 -21 23v29q-70 -62 -174 -62q-133 0 -205.5 93t-72.5 259q0 163 81.5 261t212.5 98q98 0 158 -60v25q0 23 21 23h350q20 0 17 -17l-6 -40q-2 -16 -22 -16h-267z
M335 66q101 0 166 68v429q-24 27 -65.5 44.5t-90.5 17.5q-80 0 -132 -63q-65 -78 -65 -217q0 -130 49 -204.5t138 -74.5z" />
    <glyph glyph-name="oe" unicode="&#x153;" horiz-adv-x="858" 
d="M795 229h-307q2 -74 42.5 -121.5t111.5 -47.5q75 0 123 21q17 7 22 -7l12 -33q5 -14 -10 -22q-57 -29 -158 -29q-129 0 -189 100q-59 -101 -177 -101q-111 0 -168 70t-57 183q0 109 61.5 180.5t169.5 71.5q124 0 176 -98q65 98 182 98q94 0 145 -60t51 -152v-25
q0 -18 -5.5 -23t-24.5 -5zM408 240q0 49 -12 89.5t-44.5 70.5t-81.5 30q-74 0 -108 -55t-34 -131q0 -50 11.5 -90.5t44 -70.5t82.5 -30q73 0 107.5 54.5t34.5 132.5zM490 287h251v18q0 54 -30 88.5t-86 34.5q-59 0 -94 -40t-41 -101z" />
    <glyph glyph-name="Racute" unicode="&#x154;" horiz-adv-x="555" 
d="M169 280v-260q0 -20 -19 -20h-54q-20 0 -20 20v646q0 23 21 23h143q252 0 252 -202q0 -69 -39 -119.5t-101 -71.5l164 -274q5 -8 2 -15t-15 -7h-57q-21 0 -31 18l-150 262h-96zM169 618v-268h77q68 0 110 35.5t42 100.5q0 71 -42 101.5t-123 30.5h-64zM354 895l20 -33
q13 -17 -6 -25l-153 -79q-15 -8 -24 6l-12 20q-9 15 5 24l141 91q18 12 29 -4z" />
    <glyph glyph-name="racute" unicode="&#x155;" horiz-adv-x="318" 
d="M152 362v-341q0 -21 -20 -21h-45q-20 0 -20 21v442q0 20 19 20h44q19 0 19 -18l1 -34q46 63 117 63q18 0 27 -4t8 -14l-7 -45q-2 -12 -14 -12q-1 0 -10.5 1.5t-18.5 1.5q-26 0 -53.5 -16t-46.5 -44zM288 692l20 -33q13 -17 -6 -25l-153 -79q-15 -7 -24 6l-12 20
q-9 15 5 24l141 91q18 12 29 -4z" />
    <glyph glyph-name="Rcommaaccent" unicode="&#x156;" horiz-adv-x="555" 
d="M169 280v-260q0 -20 -19 -20h-54q-20 0 -20 20v646q0 23 21 23h143q252 0 252 -202q0 -69 -39 -119.5t-101 -71.5l164 -274q5 -8 2 -15t-15 -7h-57q-21 0 -31 18l-150 262h-96zM169 618v-268h77q68 0 110 35.5t42 100.5q0 71 -42 101.5t-123 30.5h-64zM333 -95
q0 -35 -20 -70.5t-49 -51.5q-9 -6 -15 1l-8 8q-7 8 2 15q27 24 27 52q0 11 -13.5 28.5t-13.5 30.5q0 18 12.5 30t31.5 12q20 0 33 -17t13 -38z" />
    <glyph glyph-name="rcommaaccent" unicode="&#x157;" horiz-adv-x="318" 
d="M152 362v-341q0 -21 -20 -21h-45q-20 0 -20 21v442q0 20 19 20h44q19 0 19 -18l1 -34q46 63 117 63q18 0 27 -4t8 -14l-7 -45q-2 -12 -14 -12q-1 0 -10.5 1.5t-18.5 1.5q-26 0 -53.5 -16t-46.5 -44zM154 -95q0 -35 -20 -70.5t-49 -51.5q-9 -6 -15 1l-8 8q-7 8 2 15
q27 24 27 52q0 11 -13.5 28.5t-13.5 30.5q0 18 12.5 30t31.5 12q20 0 33 -17t13 -38z" />
    <glyph glyph-name="Rcaron" unicode="&#x158;" horiz-adv-x="555" 
d="M169 280v-260q0 -20 -19 -20h-54q-20 0 -20 20v646q0 23 21 23h143q252 0 252 -202q0 -69 -39 -119.5t-101 -71.5l164 -274q5 -8 2 -15t-15 -7h-57q-21 0 -31 18l-150 262h-96zM169 618v-268h77q68 0 110 35.5t42 100.5q0 71 -42 101.5t-123 30.5h-64zM265 815l101 79
q14 11 24 0l13 -14q11 -12 -1 -24l-108 -98q-10 -9 -22 -9h-14q-11 0 -23 10l-104 95q-12 12 -2 23l12 13q12 12 28 1z" />
    <glyph glyph-name="rcaron" unicode="&#x159;" horiz-adv-x="318" 
d="M152 362v-341q0 -21 -20 -21h-45q-20 0 -20 21v442q0 20 19 20h44q19 0 19 -18l1 -34q46 63 117 63q18 0 27 -4t8 -14l-7 -45q-2 -12 -14 -12q-1 0 -10.5 1.5t-18.5 1.5q-26 0 -53.5 -16t-46.5 -44zM194 615l101 79q13 10 24 0l13 -14q12 -12 -1 -24l-108 -98
q-11 -9 -22 -9h-14q-11 0 -23 10l-104 95q-12 12 -2 23l12 13q12 12 28 1z" />
    <glyph glyph-name="Sacute" unicode="&#x15a;" horiz-adv-x="508" 
d="M235 69q57 0 98.5 28t41.5 83q0 40 -21.5 65t-66.5 49l-127 68q-110 59 -110 162q0 82 63.5 129.5t148.5 47.5q98 0 163 -32q17 -8 11 -24l-15 -40q-6 -18 -26 -9q-66 29 -128 29q-48 0 -84.5 -23.5t-36.5 -69.5q0 -37 19 -59.5t59 -43.5l107 -57q67 -35 101.5 -77.5
t34.5 -107.5q0 -94 -67 -145.5t-165 -51.5q-87 0 -168 28q-18 6 -13 25l13 45q6 18 26 10q72 -29 142 -29zM345 895l20 -33q13 -17 -6 -25l-153 -79q-15 -8 -24 6l-12 20q-9 15 5 24l141 91q18 12 29 -4z" />
    <glyph glyph-name="sacute" unicode="&#x15b;" horiz-adv-x="401" 
d="M208 209l-67 26q-100 39 -100 126q0 63 48 98t118 35q71 0 129 -27q13 -6 9 -19l-12 -33q-4 -14 -20 -8q-55 24 -104 24q-42 0 -63.5 -18.5t-21.5 -45.5q0 -24 15.5 -38.5t49.5 -29.5l77 -33q101 -42 101 -127q0 -68 -51 -108.5t-132 -40.5q-75 0 -137 32q-14 8 -9 20
l13 34q5 15 19 9q68 -30 116 -30q44 0 70.5 20.5t26.5 55.5q0 28 -18.5 46t-56.5 32zM286 692l20 -33q13 -17 -6 -25l-153 -79q-15 -7 -24 6l-12 20q-9 15 5 24l141 91q18 12 29 -4z" />
    <glyph glyph-name="Scircumflex" unicode="&#x15c;" horiz-adv-x="508" 
d="M235 69q57 0 98.5 28t41.5 83q0 40 -21.5 65t-66.5 49l-127 68q-110 59 -110 162q0 82 63.5 129.5t148.5 47.5q98 0 163 -32q17 -8 11 -24l-15 -40q-6 -18 -26 -9q-66 29 -128 29q-48 0 -84.5 -23.5t-36.5 -69.5q0 -37 19 -59.5t59 -43.5l107 -57q67 -35 101.5 -77.5
t34.5 -107.5q0 -94 -67 -145.5t-165 -51.5q-87 0 -168 28q-18 6 -13 25l13 45q6 18 26 10q72 -29 142 -29zM255 835l-97 -76q-15 -12 -25 0l-14 15q-9 11 1 21l105 95q10 8 21 8h18q12 0 20 -7l110 -98q10 -10 1 -21l-15 -16q-11 -11 -22 -2z" />
    <glyph glyph-name="scircumflex" unicode="&#x15d;" horiz-adv-x="401" 
d="M208 209l-67 26q-100 39 -100 126q0 63 48 98t118 35q71 0 129 -27q13 -6 9 -19l-12 -33q-4 -14 -20 -8q-55 24 -104 24q-42 0 -63.5 -18.5t-21.5 -45.5q0 -24 15.5 -38.5t49.5 -29.5l77 -33q101 -42 101 -127q0 -68 -51 -108.5t-132 -40.5q-75 0 -137 32q-14 8 -9 20
l13 34q5 15 19 9q68 -30 116 -30q44 0 70.5 20.5t26.5 55.5q0 28 -18.5 46t-56.5 32zM197 635l-97 -76q-15 -12 -25 0l-14 15q-9 11 1 21l105 95q10 8 21 8h18q12 0 20 -7l110 -98q10 -10 1 -21l-15 -16q-11 -11 -22 -2z" />
    <glyph glyph-name="Scedilla" unicode="&#x15e;" horiz-adv-x="508" 
d="M257 -43h12q88 0 88 -79q0 -36 -27 -59t-80 -23q-47 0 -73 13q-13 6 -9 18l8 23q5 15 20 8q21 -9 52 -9q36 0 36 28q0 29 -40 29h-29q-18 0 -23 7.5t-3 24.5l6 54q-70 5 -128 26q-18 6 -13 25l13 45q6 18 26 10q72 -29 142 -29q57 0 98.5 28t41.5 83q0 40 -21.5 65
t-66.5 49l-127 68q-110 59 -110 162q0 82 63.5 129.5t148.5 47.5q98 0 163 -32q17 -8 11 -24l-15 -40q-6 -18 -26 -9q-66 29 -128 29q-48 0 -84.5 -23.5t-36.5 -69.5q0 -37 19 -59.5t59 -43.5l107 -57q67 -35 101.5 -77.5t34.5 -107.5q0 -88 -59 -139t-149 -57z" />
    <glyph glyph-name="scedilla" unicode="&#x15f;" horiz-adv-x="401" 
d="M215 -43h12q88 0 88 -79q0 -36 -27 -59t-80 -23q-47 0 -73 13q-13 6 -9 18l8 23q5 15 20 8q21 -9 52 -9q36 0 36 28q0 29 -40 29h-29q-18 0 -23 7.5t-3 24.5l6 54q-61 6 -106 30q-14 8 -9 20l13 34q5 15 19 9q68 -30 116 -30q44 0 70.5 20.5t26.5 55.5q0 28 -18.5 46
t-56.5 32l-67 26q-100 39 -100 126q0 63 48 98t118 35q71 0 129 -27q13 -6 9 -19l-12 -33q-4 -14 -20 -8q-55 24 -104 24q-42 0 -63.5 -18.5t-21.5 -45.5q0 -24 15.5 -38.5t49.5 -29.5l77 -33q101 -42 101 -127q0 -60 -41 -99.5t-109 -47.5z" />
    <glyph glyph-name="Scaron" unicode="&#x160;" horiz-adv-x="508" 
d="M235 69q57 0 98.5 28t41.5 83q0 40 -21.5 65t-66.5 49l-127 68q-110 59 -110 162q0 82 63.5 129.5t148.5 47.5q98 0 163 -32q17 -8 11 -24l-15 -40q-6 -18 -26 -9q-66 29 -128 29q-48 0 -84.5 -23.5t-36.5 -69.5q0 -37 19 -59.5t59 -43.5l107 -57q67 -35 101.5 -77.5
t34.5 -107.5q0 -94 -67 -145.5t-165 -51.5q-87 0 -168 28q-18 6 -13 25l13 45q6 18 26 10q72 -29 142 -29zM257 815l101 79q14 11 24 0l13 -14q11 -12 -1 -24l-108 -98q-10 -9 -22 -9h-14q-11 0 -23 10l-104 95q-12 12 -2 23l12 13q12 12 28 1z" />
    <glyph glyph-name="scaron" unicode="&#x161;" horiz-adv-x="401" 
d="M208 209l-67 26q-100 39 -100 126q0 63 48 98t118 35q71 0 129 -27q13 -6 9 -19l-12 -33q-4 -14 -20 -8q-55 24 -104 24q-42 0 -63.5 -18.5t-21.5 -45.5q0 -24 15.5 -38.5t49.5 -29.5l77 -33q101 -42 101 -127q0 -68 -51 -108.5t-132 -40.5q-75 0 -137 32q-14 8 -9 20
l13 34q5 15 19 9q68 -30 116 -30q44 0 70.5 20.5t26.5 55.5q0 28 -18.5 46t-56.5 32zM198 615l101 79q13 10 24 0l13 -14q12 -12 -1 -24l-108 -98q-11 -9 -22 -9h-14q-11 0 -23 10l-104 95q-12 12 -2 23l12 13q12 12 28 1z" />
    <glyph glyph-name="Tcommaaccent" unicode="&#x162;" 
d="M226 616h-190q-19 0 -19 16v41q0 16 19 16h484q20 0 17 -17l-6 -40q-2 -16 -22 -16h-190v-596q0 -20 -19 -20h-54q-20 0 -20 20v596zM317 -95q0 -35 -20 -70.5t-49 -51.5q-9 -6 -15 1l-8 8q-7 8 2 15q27 24 27 52q0 11 -13.5 28.5t-13.5 30.5q0 18 12.5 30t31.5 12
q20 0 33 -17t13 -38z" />
    <glyph glyph-name="tcommaaccent" unicode="&#x163;" horiz-adv-x="349" 
d="M88 483v113q0 18 15 21l50 7q20 3 20 -17v-124h117q15 0 15 -15v-30q0 -15 -15 -15h-117v-269q0 -52 14.5 -74.5t56.5 -22.5q30 0 61 11q17 7 21 -9l9 -30q4 -14 -13 -21q-46 -18 -94 -18q-82 0 -111 37.5t-29 120.5v275h-55q-15 0 -15 15v30q0 15 15 15h55zM270 -95
q0 -35 -20 -70.5t-49 -51.5q-9 -6 -15 1l-8 8q-7 8 2 15q27 24 27 52q0 11 -13.5 28.5t-13.5 30.5q0 18 12.5 30t31.5 12q20 0 33 -17t13 -38z" />
    <glyph glyph-name="Tcaron" unicode="&#x164;" 
d="M226 616h-190q-19 0 -19 16v41q0 16 19 16h484q20 0 17 -17l-6 -40q-2 -16 -22 -16h-190v-596q0 -20 -19 -20h-54q-20 0 -20 20v596zM271 815l101 79q14 11 24 0l13 -14q11 -12 -1 -24l-108 -98q-10 -9 -22 -9h-14q-11 0 -23 10l-104 95q-12 12 -2 23l12 13q12 12 28 1z
" />
    <glyph glyph-name="tcaron" unicode="&#x165;" horiz-adv-x="349" 
d="M88 483v113q0 18 15 21l50 7q20 3 20 -17v-124h117q15 0 15 -15v-30q0 -15 -15 -15h-117v-269q0 -52 14.5 -74.5t56.5 -22.5q30 0 61 11q17 7 21 -9l9 -30q4 -14 -13 -21q-46 -18 -94 -18q-82 0 -111 37.5t-29 120.5v275h-55q-15 0 -15 15v30q0 15 15 15h55zM348 645
q0 -35 -20 -70.5t-49 -51.5q-9 -6 -15 1l-8 8q-7 8 2 15q27 24 27 52q0 11 -13.5 28.5t-13.5 30.5q0 18 12.5 30t31.5 12q20 0 33 -17t13 -38z" />
    <glyph glyph-name="Tbar" unicode="&#x166;" 
d="M319 616v-224h96q13 0 17.5 -4t4.5 -16v-28q0 -12 -4 -17t-16 -5h-98v-302q0 -20 -18 -20h-57q-18 0 -18 20v302h-94q-13 0 -17.5 4.5t-4.5 14.5v33q0 10 4.5 14t15.5 4h96v224h-193q-16 0 -16 16v42q0 15 15 15h489q18 0 16 -16l-6 -41q-2 -16 -25 -16h-187z" />
    <glyph glyph-name="tbar" unicode="&#x167;" horiz-adv-x="349" 
d="M35 281h53v142h-55q-15 0 -15 15v30q0 15 15 15h55v113q0 18 15 21l50 7q20 3 20 -17v-124h117q15 0 15 -15v-30q0 -15 -15 -15h-117v-142h96q15 0 15 -15v-30q0 -15 -15 -15h-96v-67q0 -52 14.5 -74.5t56.5 -22.5q30 0 61 11q17 7 21 -9l9 -30q4 -14 -13 -21
q-46 -18 -94 -18q-82 0 -111 37.5t-29 120.5v73h-53q-15 0 -15 15v30q0 15 15 15z" />
    <glyph glyph-name="Utilde" unicode="&#x168;" horiz-adv-x="695" 
d="M622 669v-368q0 -145 -66 -228t-208 -83q-154 0 -214.5 79.5t-60.5 237.5v362q0 20 19 20h54q20 0 20 -20v-353q0 -46 3 -78t14 -67t30 -56t53.5 -34.5t82.5 -13.5q46 0 80 14t53 36t30 56.5t14 67t3 76.5v352q0 20 19 20h54q20 0 20 -20zM342 786l-23 11q-28 14 -44 14
q-18 0 -26.5 -6t-16.5 -21q-9 -18 -26 -9l-20 10q-15 6 -8 24q25 66 105 66q33 0 73 -20l24 -12q26 -13 47 -13q23 0 36 23q12 20 29 11l20 -10q11 -6 6 -21q-12 -34 -38.5 -51.5t-60.5 -17.5q-31 0 -77 22z" />
    <glyph glyph-name="utilde" unicode="&#x169;" horiz-adv-x="534" 
d="M380 122v341q0 20 20 20h46q19 0 19 -20v-443q0 -20 -19 -20h-44q-19 0 -19 18l-1 32q-71 -60 -158 -60q-157 0 -157 181v292q0 20 20 20h46q19 0 19 -20v-279q0 -60 20 -90.5t76 -30.5q32 0 69.5 17.5t62.5 41.5zM257 590l-23 11q-28 14 -44 14q-18 0 -26.5 -6
t-16.5 -21q-9 -18 -26 -9l-20 10q-15 6 -8 24q25 66 105 66q33 0 73 -20l24 -12q26 -13 47 -13q23 0 36 23q12 20 29 11l20 -10q11 -6 6 -21q-12 -34 -38.5 -51.5t-60.5 -17.5q-31 0 -77 22z" />
    <glyph glyph-name="Umacron" unicode="&#x16a;" horiz-adv-x="695" 
d="M622 669v-368q0 -145 -66 -228t-208 -83q-154 0 -214.5 79.5t-60.5 237.5v362q0 20 19 20h54q20 0 20 -20v-353q0 -46 3 -78t14 -67t30 -56t53.5 -34.5t82.5 -13.5q46 0 80 14t53 36t30 56.5t14 67t3 76.5v352q0 20 19 20h54q20 0 20 -20zM235 847h227q19 0 19 -20v-24
q0 -19 -19 -19h-227q-19 0 -19 19v24q0 20 19 20z" />
    <glyph glyph-name="umacron" unicode="&#x16b;" horiz-adv-x="534" 
d="M380 122v341q0 20 20 20h46q19 0 19 -20v-443q0 -20 -19 -20h-44q-19 0 -19 18l-1 32q-71 -60 -158 -60q-157 0 -157 181v292q0 20 20 20h46q19 0 19 -20v-279q0 -60 20 -90.5t76 -30.5q32 0 69.5 17.5t62.5 41.5zM154 655h227q19 0 19 -20v-24q0 -19 -19 -19h-227
q-19 0 -19 19v24q0 20 19 20z" />
    <glyph glyph-name="Ubreve" unicode="&#x16c;" horiz-adv-x="695" 
d="M622 669v-368q0 -145 -66 -228t-208 -83q-154 0 -214.5 79.5t-60.5 237.5v362q0 20 19 20h54q20 0 20 -20v-353q0 -46 3 -78t14 -67t30 -56t53.5 -34.5t82.5 -13.5q46 0 80 14t53 36t30 56.5t14 67t3 76.5v352q0 20 19 20h54q20 0 20 -20zM477 861q0 -46 -35.5 -74.5
t-91.5 -28.5q-58 0 -94.5 27.5t-36.5 75.5q0 14 19 14h29q18 0 19 -16q5 -44 64 -44q56 0 62 44q2 16 22 16h26q17 0 17 -14z" />
    <glyph glyph-name="ubreve" unicode="&#x16d;" horiz-adv-x="534" 
d="M380 122v341q0 20 20 20h46q19 0 19 -20v-443q0 -20 -19 -20h-44q-19 0 -19 18l-1 32q-71 -60 -158 -60q-157 0 -157 181v292q0 20 20 20h46q19 0 19 -20v-279q0 -60 20 -90.5t76 -30.5q32 0 69.5 17.5t62.5 41.5zM395 687q0 -46 -35.5 -74.5t-91.5 -28.5
q-58 0 -94.5 27.5t-36.5 75.5q0 14 19 14h29q18 0 19 -16q5 -44 64 -44q56 0 62 44q2 16 22 16h26q17 0 17 -14z" />
    <glyph glyph-name="Uring" unicode="&#x16e;" horiz-adv-x="695" 
d="M622 669v-368q0 -145 -66 -228t-208 -83q-154 0 -214.5 79.5t-60.5 237.5v362q0 20 19 20h54q20 0 20 -20v-353q0 -46 3 -78t14 -67t30 -56t53.5 -34.5t82.5 -13.5q46 0 80 14t53 36t30 56.5t14 67t3 76.5v352q0 20 19 20h54q20 0 20 -20zM443 820q0 -39 -27 -66.5
t-68 -27.5q-40 0 -67.5 27.5t-27.5 66.5q0 38 27.5 66t67.5 28q41 0 68 -27.5t27 -66.5zM386 820q0 16 -11 26.5t-27 10.5t-27 -10.5t-11 -26.5t11 -26.5t27 -10.5t27 10.5t11 26.5z" />
    <glyph glyph-name="uring" unicode="&#x16f;" horiz-adv-x="534" 
d="M380 122v341q0 20 20 20h46q19 0 19 -20v-443q0 -20 -19 -20h-44q-19 0 -19 18l-1 32q-71 -60 -158 -60q-157 0 -157 181v292q0 20 20 20h46q19 0 19 -20v-279q0 -60 20 -90.5t76 -30.5q32 0 69.5 17.5t62.5 41.5zM361 620q0 -39 -27 -66.5t-68 -27.5q-40 0 -67.5 27.5
t-27.5 66.5q0 38 27.5 66t67.5 28q41 0 68 -27.5t27 -66.5zM304 620q0 16 -11 26.5t-27 10.5t-27 -10.5t-11 -26.5t11 -26.5t27 -10.5t27 10.5t11 26.5z" />
    <glyph glyph-name="Uhungarumlaut" unicode="&#x170;" horiz-adv-x="695" 
d="M622 669v-368q0 -145 -66 -228t-208 -83q-154 0 -214.5 79.5t-60.5 237.5v362q0 20 19 20h54q20 0 20 -20v-353q0 -46 3 -78t14 -67t30 -56t53.5 -34.5t82.5 -13.5q46 0 80 14t53 36t30 56.5t14 67t3 76.5v352q0 20 19 20h54q20 0 20 -20zM212 804l140 92q18 13 28 -5
l18 -31q11 -17 -8 -26l-148 -74q-18 -8 -26 5l-9 16q-9 14 5 23zM435 804l140 92q18 13 28 -5l18 -31q11 -17 -8 -26l-148 -74q-18 -8 -26 5l-9 16q-9 14 5 23z" />
    <glyph glyph-name="uhungarumlaut" unicode="&#x171;" horiz-adv-x="534" 
d="M380 122v341q0 20 20 20h46q19 0 19 -20v-443q0 -20 -19 -20h-44q-19 0 -19 18l-1 32q-71 -60 -158 -60q-157 0 -157 181v292q0 20 20 20h46q19 0 19 -20v-279q0 -60 20 -90.5t76 -30.5q32 0 69.5 17.5t62.5 41.5zM123 604l140 92q18 13 28 -5l18 -31q11 -17 -8 -26
l-148 -74q-18 -8 -26 5l-9 16q-9 14 5 23zM346 604l140 92q18 13 28 -5l18 -31q11 -17 -8 -26l-148 -74q-18 -8 -26 5l-9 16q-9 14 5 23z" />
    <glyph glyph-name="Uogonek" unicode="&#x172;" horiz-adv-x="695" 
d="M622 669v-368q0 -209 -128 -278t-128 -134q0 -35 43 -35q25 0 53 10q16 5 19 -8l8 -30q2 -11 -11 -17q-39 -15 -86 -15q-55 0 -81 23t-26 60q0 72 77 113h-14q-154 0 -214.5 79.5t-60.5 237.5v362q0 20 19 20h54q20 0 20 -20v-353q0 -46 3 -78t14 -67t30 -56t53.5 -34.5
t82.5 -13.5q46 0 80 14t53 36t30 56.5t14 67t3 76.5v352q0 20 19 20h54q20 0 20 -20z" />
    <glyph glyph-name="uogonek" unicode="&#x173;" horiz-adv-x="534" 
d="M380 122v341q0 20 20 20h46q19 0 19 -20v-431q0 -18 -23 -35q-43 -33 -59 -57t-16 -51q0 -35 43 -35q25 0 53 10q16 5 19 -8l8 -30q2 -11 -11 -17q-39 -15 -86 -15q-55 0 -81 23t-26 60q0 41 27.5 75t68.5 55v43q-71 -60 -158 -60q-157 0 -157 181v292q0 20 20 20h46
q19 0 19 -20v-279q0 -60 20 -90.5t76 -30.5q32 0 69.5 17.5t62.5 41.5z" />
    <glyph glyph-name="Wcircumflex" unicode="&#x174;" horiz-adv-x="899" 
d="M638 142h2l143 528q5 19 25 19h55q21 0 14 -21l-193 -652q-5 -16 -23 -16h-50q-19 0 -24 17l-137 523h-1l-138 -523q-5 -17 -24 -17h-49q-19 0 -23 16l-191 648q-8 25 15 25h63q21 0 26 -19l141 -528h1l136 530q5 17 24 17h45q20 0 24 -17zM448 835l-97 -76
q-15 -12 -25 0l-14 15q-9 11 1 21l105 95q10 8 21 8h18q12 0 20 -7l110 -98q10 -10 1 -21l-15 -16q-11 -11 -22 -2z" />
    <glyph glyph-name="wcircumflex" unicode="&#x175;" horiz-adv-x="691" 
d="M494 98h2l94 368q5 17 24 17h47q18 0 12 -20l-132 -445q-6 -18 -24 -18h-54q-19 0 -24 18l-95 339h-1l-92 -340q-5 -17 -25 -17h-53q-19 0 -24 18l-132 445q-6 20 15 20h52q21 0 24 -14l95 -370h2l102 369q4 15 20 15h45q14 0 18 -12zM342 635l-97 -76q-15 -12 -25 0
l-14 15q-9 11 1 21l105 95q10 8 21 8h18q12 0 20 -7l110 -98q10 -10 1 -21l-15 -16q-11 -11 -22 -2z" />
    <glyph glyph-name="Ycircumflex" unicode="&#x176;" 
d="M234 20v250l-212 395q-6 10 -3 17t15 7h57q21 0 30 -17l164 -324h1l159 324q9 17 29 17h43q23 0 13 -21l-203 -396v-252q0 -20 -19 -20h-54q-20 0 -20 20zM284 835l-97 -76q-15 -12 -25 0l-14 15q-9 11 1 21l105 95q10 8 21 8h18q12 0 20 -7l110 -98q10 -10 1 -21
l-15 -16q-11 -11 -22 -2z" />
    <glyph glyph-name="ycircumflex" unicode="&#x177;" horiz-adv-x="478" 
d="M253 96l126 371q5 16 25 16h48q20 0 13 -20l-193 -521q-33 -90 -77.5 -126t-124.5 -36q-24 0 -46 6q-14 4 -12 18l7 40q3 14 16 13q28 -4 38 -4q78 0 109 76l25 63l-179 473q-7 18 14 18h57q20 0 24 -14zM250 635l-97 -76q-15 -12 -25 0l-14 15q-9 11 1 21l105 95
q10 8 21 8h18q12 0 20 -7l110 -98q10 -10 1 -21l-15 -16q-11 -11 -22 -2z" />
    <glyph glyph-name="Ydieresis" unicode="&#x178;" 
d="M234 20v250l-212 395q-6 10 -3 17t15 7h57q21 0 30 -17l164 -324h1l159 324q9 17 29 17h43q23 0 13 -21l-203 -396v-252q0 -20 -19 -20h-54q-20 0 -20 20zM199 865q21 0 35.5 -13t14.5 -35q0 -23 -15 -36t-36 -13t-36 13t-15 35q0 23 15 36t37 13zM376 865q21 0 35.5 -13
t14.5 -35q0 -23 -15 -36t-36 -13t-36 13t-15 35q0 23 15 36t37 13z" />
    <glyph glyph-name="Zacute" unicode="&#x179;" horiz-adv-x="541" 
d="M141 74v-1h350q19 0 19 -16v-41q0 -16 -19 -16h-444q-19 0 -19 16v28q0 15 11 31l347 540v1h-309q-19 0 -19 16v41q0 16 19 16h404q19 0 19 -16v-30q0 -15 -11 -31zM364 895l20 -33q13 -17 -6 -25l-153 -79q-15 -8 -24 6l-12 20q-9 15 5 24l141 91q18 12 29 -4z" />
    <glyph glyph-name="zacute" unicode="&#x17a;" horiz-adv-x="415" 
d="M129 62v-1h240q15 0 15 -15v-31q0 -15 -15 -15h-318q-17 0 -17 17v27q0 14 13 34l228 344v1h-210q-15 0 -15 15v30q0 15 15 15h290q17 0 17 -17v-24q0 -14 -13 -34zM304 692l20 -33q13 -17 -6 -25l-153 -79q-15 -7 -24 6l-12 20q-9 15 5 24l141 91q18 12 29 -4z" />
    <glyph glyph-name="Zdotaccent" unicode="&#x17b;" horiz-adv-x="541" 
d="M141 74v-1h350q19 0 19 -16v-41q0 -16 -19 -16h-444q-19 0 -19 16v28q0 15 11 31l347 540v1h-309q-19 0 -19 16v41q0 16 19 16h404q19 0 19 -16v-30q0 -15 -11 -31zM271 891q24 0 40.5 -15t16.5 -40q0 -26 -17 -41t-41 -15t-41 15t-17 40q0 26 17 41t42 15z" />
    <glyph glyph-name="zdotaccent" unicode="&#x17c;" horiz-adv-x="415" 
d="M129 62v-1h240q15 0 15 -15v-31q0 -15 -15 -15h-318q-17 0 -17 17v27q0 14 13 34l228 344v1h-210q-15 0 -15 15v30q0 15 15 15h290q17 0 17 -17v-24q0 -14 -13 -34zM211 694q24 0 40.5 -15t16.5 -40q0 -26 -17 -41t-41 -15t-41 15t-17 40q0 26 17 41t42 15z" />
    <glyph glyph-name="Zcaron" unicode="&#x17d;" horiz-adv-x="541" 
d="M141 74v-1h350q19 0 19 -16v-41q0 -16 -19 -16h-444q-19 0 -19 16v28q0 15 11 31l347 540v1h-309q-19 0 -19 16v41q0 16 19 16h404q19 0 19 -16v-30q0 -15 -11 -31zM268 815l101 79q13 11 24 0l13 -14q12 -12 -1 -24l-108 -98q-11 -9 -22 -9h-14q-11 0 -23 10l-104 95
q-12 12 -2 23l12 13q12 12 28 1z" />
    <glyph glyph-name="zcaron" unicode="&#x17e;" horiz-adv-x="415" 
d="M129 62v-1h240q15 0 15 -15v-31q0 -15 -15 -15h-318q-17 0 -17 17v27q0 14 13 34l228 344v1h-210q-15 0 -15 15v30q0 15 15 15h290q17 0 17 -17v-24q0 -14 -13 -34zM210 615l101 79q14 10 24 0l13 -14q12 -12 -1 -24l-108 -98q-11 -9 -22 -9h-14q-11 0 -23 10l-104 95
q-12 12 -2 23l12 13q12 12 28 1z" />
    <glyph glyph-name="longs" unicode="&#x17f;" horiz-adv-x="298" 
d="M92 483v19q0 44 4 80q9 66 49 102.5t109 36.5q53 0 94 -18q14 -6 10 -20l-10 -33q-4 -15 -21 -9q-32 12 -63 12q-49 0 -68 -30.5t-19 -92.5v-509q0 -21 -20 -21h-45q-20 0 -20 21v402h-57q-15 0 -15 15v30q0 15 15 15h57z" />
    <glyph glyph-name="florin" unicode="&#x192;" 
d="M125 380h100l20 102q20 106 66 162.5t140 56.5q50 0 86 -17q12 -5 7 -19l-12 -35q-5 -14 -22 -8q-34 12 -62 12q-54 0 -76.5 -34.5t-35.5 -102.5l-23 -117h136q16 0 12 -14l-7 -29q-3 -13 -19 -13h-133l-57 -300q-20 -104 -66.5 -158.5t-138.5 -54.5q-48 0 -85 17
q-13 6 -7 22l12 33q4 13 19 7q31 -13 63 -13q54 0 77 35.5t37 105.5l58 306h-103q-16 0 -12 14l7 29q3 13 19 13z" />
    <glyph glyph-name="Acaron" unicode="&#x1cd;" horiz-adv-x="608" 
d="M170 204l-69 -188q-5 -16 -24 -16h-55q-20 0 -12 20l251 655q5 14 18 14h53q14 0 18 -12l247 -657q8 -20 -13 -20h-64q-19 0 -24 16l-67 188h-259zM194 273h211l-103 297h-1zM303 815l101 79q14 11 24 0l13 -14q11 -12 -1 -24l-108 -98q-10 -9 -22 -9h-14q-11 0 -23 10
l-104 95q-12 12 -2 23l12 13q12 12 28 1z" />
    <glyph glyph-name="acaron" unicode="&#x1ce;" horiz-adv-x="543" 
d="M389 74h-2q-18 -34 -61.5 -59t-88.5 -25q-98 0 -148.5 70t-50.5 173q0 121 61.5 191t151.5 70q39 0 75.5 -16t58.5 -45l1 32q0 18 19 18h44q19 0 19 -19v-350q0 -31 3.5 -42.5t18.5 -11.5h4q17 0 17 -15v-30q0 -15 -17 -15h-40q-31 0 -48 21t-17 53zM383 162v192
q-18 33 -51 52.5t-70 19.5q-59 0 -97 -50t-38 -137q0 -81 34 -129.5t89 -48.5q45 0 81.5 30t51.5 71zM265 615l101 79q14 10 24 0l13 -14q11 -12 -1 -24l-108 -98q-10 -9 -22 -9h-14q-11 0 -23 10l-104 95q-12 12 -2 23l12 13q12 12 28 1z" />
    <glyph glyph-name="Aringacute" unicode="&#x1fa;" horiz-adv-x="608" 
d="M170 204l-69 -188q-5 -16 -24 -16h-55q-20 0 -12 20l251 655q5 14 18 14h53q14 0 18 -12l247 -657q8 -20 -13 -20h-64q-19 0 -24 16l-67 188h-259zM194 273h211l-103 297h-1zM397 806q0 -39 -27 -66.5t-68 -27.5q-40 0 -67.5 27.5t-27.5 66.5q0 38 27.5 66t67.5 28
q41 0 68 -27.5t27 -66.5zM340 806q0 16 -11 26.5t-27 10.5t-27 -10.5t-11 -26.5t11 -26.5t27 -10.5t27 10.5t11 26.5zM369 1044l20 -33q13 -17 -6 -25l-153 -79q-15 -7 -24 6l-12 20q-9 15 5 24l141 91q18 12 29 -4z" />
    <glyph glyph-name="aringacute" unicode="&#x1fb;" horiz-adv-x="543" 
d="M389 74h-2q-18 -34 -61.5 -59t-88.5 -25q-98 0 -148.5 70t-50.5 173q0 121 61.5 191t151.5 70q39 0 75.5 -16t58.5 -45l1 32q0 18 19 18h44q19 0 19 -19v-350q0 -31 3.5 -42.5t18.5 -11.5h4q17 0 17 -15v-30q0 -15 -17 -15h-40q-31 0 -48 21t-17 53zM383 162v192
q-18 33 -51 52.5t-70 19.5q-59 0 -97 -50t-38 -137q0 -81 34 -129.5t89 -48.5q45 0 81.5 30t51.5 71zM354 620q0 -39 -27 -66.5t-68 -27.5q-40 0 -67.5 27.5t-27.5 66.5q0 38 28 66t67 28q41 0 68 -27.5t27 -66.5zM297 620q0 16 -11 26.5t-27 10.5t-27 -10.5t-11 -26.5
t11 -26.5t27 -10.5t27 10.5t11 26.5zM332 869l20 -33q13 -17 -6 -25l-153 -79q-15 -8 -24 6l-12 20q-9 15 5 24l141 91q18 12 29 -4z" />
    <glyph glyph-name="AEacute" unicode="&#x1fc;" horiz-adv-x="879" 
d="M538 616v-219h236q19 0 19 -16v-40q0 -16 -19 -16h-236v-252h278q19 0 19 -16v-41q0 -16 -19 -16h-350q-21 0 -21 23v182h-223l-120 -188q-11 -17 -30 -17h-56q-21 0 -8 21l416 648q13 20 39 20h353q20 0 17 -17l-6 -40q-2 -16 -22 -16h-267zM261 274h184v290zM686 895
l20 -33q13 -17 -6 -25l-153 -79q-15 -8 -24 6l-12 20q-9 15 5 24l141 91q18 12 29 -4z" />
    <glyph glyph-name="aeacute" unicode="&#x1fd;" horiz-adv-x="771" 
d="M708 229h-299q2 -74 41 -121.5t109 -47.5q73 0 119 21q17 7 22 -7l12 -33q5 -14 -10 -22q-57 -29 -155 -29q-115 0 -174 75q-68 -75 -187 -75q-63 0 -106.5 36.5t-43.5 102.5q0 48 24 83t64 52.5t81.5 25.5t87.5 8h31v28q0 103 -94 103q-69 0 -132 -32q-15 -7 -20 5
l-13 31q-5 14 9 21q76 40 164 40q100 0 142 -71q61 71 166 71q91 0 141.5 -60t50.5 -152v-25q0 -18 -5.5 -23t-24.5 -5zM320 239h-42q-40 0 -72 -8t-57 -32.5t-25 -64.5q0 -39 24.5 -58.5t59.5 -19.5q37 0 76 18.5t60 39.5q-24 54 -24 125zM411 287h243v18q0 54 -29 88.5
t-83 34.5q-58 0 -91.5 -40t-39.5 -101zM468 692l20 -33q13 -17 -6 -25l-153 -79q-15 -7 -24 6l-12 20q-9 15 5 24l141 91q18 12 29 -4z" />
    <glyph glyph-name="Oslashacute" unicode="&#x1fe;" horiz-adv-x="676" 
d="M627 349q0 -166 -82.5 -262.5t-211.5 -96.5q-90 0 -154 43l-41 -63q-11 -17 -26 -9l-26 17q-14 9 -3 25l48 73q-82 94 -82 266q0 162 81 260.5t212 98.5q96 0 164 -52l48 73q12 18 26 9l26 -17q14 -9 3 -25l-56 -86q74 -96 74 -254zM147 345q0 -116 38 -186l274 418
q-49 47 -119 47q-86 0 -139.5 -77.5t-53.5 -201.5zM529 346q0 103 -31 173l-271 -414q43 -39 110 -39q86 0 139 76t53 204zM431 895l20 -33q13 -17 -6 -25l-153 -79q-15 -8 -24 6l-12 20q-9 15 5 24l141 91q18 12 29 -4z" />
    <glyph glyph-name="oslashacute" unicode="&#x1ff;" horiz-adv-x="541" 
d="M370 476l20 33q10 18 27 8l27 -15q16 -9 6 -25l-23 -37q71 -67 71 -198q0 -110 -61.5 -181t-169.5 -71q-55 0 -103 20l-21 -35q-10 -15 -24 -7l-28 17q-18 10 -7 25l24 40q-65 68 -65 193q0 110 61 180.5t169 70.5q55 0 97 -18zM410 241q0 76 -28 125l-180 -294
q29 -16 66 -16q73 0 107.5 53.5t34.5 131.5zM131 245q0 -73 23 -120l178 290q-28 13 -60 13q-74 0 -107.5 -53t-33.5 -130zM371 692l20 -33q13 -17 -6 -25l-153 -79q-15 -7 -24 6l-12 20q-9 15 5 24l141 91q18 12 29 -4z" />
    <glyph glyph-name="Scommaaccent" unicode="&#x218;" horiz-adv-x="508" 
d="M235 69q57 0 98.5 28t41.5 83q0 40 -21.5 65t-66.5 49l-127 68q-110 59 -110 162q0 82 63.5 129.5t148.5 47.5q98 0 163 -32q17 -8 11 -24l-15 -40q-6 -18 -26 -9q-66 29 -128 29q-48 0 -84.5 -23.5t-36.5 -69.5q0 -37 19 -59.5t59 -43.5l107 -57q67 -35 101.5 -77.5
t34.5 -107.5q0 -94 -67 -145.5t-165 -51.5q-87 0 -168 28q-18 6 -13 25l13 45q6 18 26 10q72 -29 142 -29zM299 -95q0 -35 -20 -70.5t-49 -51.5q-9 -6 -15 1l-8 8q-7 8 2 15q27 24 27 52q0 11 -13.5 28.5t-13.5 30.5q0 18 12.5 30t31.5 12q20 0 33 -17t13 -38z" />
    <glyph glyph-name="scommaaccent" unicode="&#x219;" horiz-adv-x="401" 
d="M208 209l-67 26q-100 39 -100 126q0 63 48 98t118 35q71 0 129 -27q13 -6 9 -19l-12 -33q-4 -14 -20 -8q-55 24 -104 24q-42 0 -63.5 -18.5t-21.5 -45.5q0 -24 15.5 -38.5t49.5 -29.5l77 -33q101 -42 101 -127q0 -68 -51 -108.5t-132 -40.5q-75 0 -137 32q-14 8 -9 20
l13 34q5 15 19 9q68 -30 116 -30q44 0 70.5 20.5t26.5 55.5q0 28 -18.5 46t-56.5 32zM243 -95q0 -35 -20 -70.5t-49 -51.5q-9 -6 -15 1l-8 8q-7 8 2 15q27 24 27 52q0 11 -13.5 28.5t-13.5 30.5q0 18 12.5 30t31.5 12q20 0 33 -17t13 -38z" />
    <glyph glyph-name="uni021A" unicode="&#x21a;" 
d="M226 616h-190q-19 0 -19 16v41q0 16 19 16h484q20 0 17 -17l-6 -40q-2 -16 -22 -16h-190v-596q0 -20 -19 -20h-54q-20 0 -20 20v596zM317 -95q0 -35 -20 -70.5t-49 -51.5q-9 -6 -15 1l-8 8q-7 8 2 15q27 24 27 52q0 11 -13.5 28.5t-13.5 30.5q0 18 12.5 30t31.5 12
q20 0 33 -17t13 -38z" />
    <glyph glyph-name="uni021B" unicode="&#x21b;" horiz-adv-x="349" 
d="M88 483v113q0 18 15 21l50 7q20 3 20 -17v-124h117q15 0 15 -15v-30q0 -15 -15 -15h-117v-269q0 -52 14.5 -74.5t56.5 -22.5q30 0 61 11q17 7 21 -9l9 -30q4 -14 -13 -21q-46 -18 -94 -18q-82 0 -111 37.5t-29 120.5v275h-55q-15 0 -15 15v30q0 15 15 15h55zM270 -95
q0 -35 -20 -70.5t-49 -51.5q-9 -6 -15 1l-8 8q-7 8 2 15q27 24 27 52q0 11 -13.5 28.5t-13.5 30.5q0 18 12.5 30t31.5 12q20 0 33 -17t13 -38z" />
    <glyph glyph-name="circumflex" unicode="&#x2c6;" horiz-adv-x="325" 
d="M160 635l-97 -76q-15 -12 -25 0l-14 15q-9 11 1 21l105 95q10 8 21 8h18q12 0 20 -7l110 -98q10 -10 1 -21l-15 -16q-11 -11 -22 -2z" />
    <glyph glyph-name="caron" unicode="&#x2c7;" horiz-adv-x="325" 
d="M161 615l101 79q14 10 24 0l13 -14q11 -12 -1 -24l-108 -98q-10 -9 -22 -9h-14q-11 0 -23 10l-104 95q-12 12 -2 23l12 13q12 12 28 1z" />
    <glyph glyph-name="breve" unicode="&#x2d8;" horiz-adv-x="325" 
d="M292 687q0 -46 -35.5 -74.5t-91.5 -28.5q-58 0 -94.5 27.5t-36.5 75.5q0 14 19 14h29q18 0 19 -16q5 -44 64 -44q56 0 62 44q2 16 22 16h26q17 0 17 -14z" />
    <glyph glyph-name="dotaccent" unicode="&#x2d9;" horiz-adv-x="325" 
d="M164 698q24 0 40.5 -15t16.5 -40q0 -26 -17 -41t-41 -15t-41 15t-17 40q0 26 17 41t42 15z" />
    <glyph glyph-name="ring" unicode="&#x2da;" horiz-adv-x="325" 
d="M258 620q0 -39 -27 -66.5t-68 -27.5q-40 0 -67.5 27.5t-27.5 66.5q0 38 28 66t67 28q41 0 68 -27.5t27 -66.5zM201 620q0 16 -11 26.5t-27 10.5t-27 -10.5t-11 -26.5t11 -26.5t27 -10.5t27 10.5t11 26.5z" />
    <glyph glyph-name="ogonek" unicode="&#x2db;" horiz-adv-x="325" 
d="M166 9h71q-90 -66 -90 -120q0 -35 43 -35q25 0 53 10q16 5 19 -8l8 -30q2 -11 -11 -17q-39 -15 -86 -15q-55 0 -81 23t-26 60q0 42 29 76.5t71 55.5z" />
    <glyph glyph-name="tilde" unicode="&#x2dc;" horiz-adv-x="325" 
d="M157 615l-23 11q-28 14 -44 14q-18 0 -26.5 -6t-16.5 -21q-9 -18 -26 -9l-20 10q-15 6 -8 24q25 66 105 66q33 0 73 -20l24 -12q26 -13 47 -13q23 0 36 23q12 20 29 11l20 -10q11 -6 6 -21q-12 -34 -38.5 -51.5t-60.5 -17.5q-31 0 -77 22z" />
    <glyph glyph-name="hungarumlaut" unicode="&#x2dd;" horiz-adv-x="325" 
d="M-24 604l140 92q18 13 28 -5l18 -31q11 -17 -8 -26l-148 -74q-18 -8 -26 5l-9 16q-9 14 5 23zM199 604l140 92q18 13 28 -5l18 -31q11 -17 -8 -26l-148 -74q-18 -8 -26 5l-9 16q-9 14 5 23z" />
    <glyph glyph-name="commaaccent" unicode="&#x326;" horiz-adv-x="325" 
d="M210 -95q0 -35 -20 -70.5t-49 -51.5q-9 -6 -15 1l-8 8q-7 8 2 15q27 24 27 52q0 11 -13.5 28.5t-13.5 30.5q0 18 12.5 30t31.5 12q20 0 33 -17t13 -38z" />
    <glyph glyph-name="uni0374" unicode="&#x374;" horiz-adv-x="301" 
d="M226 651l-103 -109q-12 -13 -25 -2l-22 19q-13 11 -2 24l90 121q6 8 15 9.5t17 -5.5l30 -28q14 -14 0 -29z" />
    <glyph glyph-name="uni0375" unicode="&#x375;" horiz-adv-x="301" 
d="M76 -116l103 109q12 13 25 2l22 -19q13 -11 2 -24l-90 -121q-6 -8 -15 -9.5t-17 5.5l-30 28q-14 14 0 29z" />
    <glyph glyph-name="uni037E" unicode="&#x37e;" horiz-adv-x="214" 
d="M172 437q0 -25 -18 -40.5t-41 -15.5t-41.5 15.5t-18.5 40.5q0 26 18 41.5t42 15.5t41.5 -15.5t17.5 -41.5zM167 31q0 -44 -25 -89t-60 -65q-13 -7 -20 1l-10 11q-8 10 2 18q35 33 35 66q0 13 -17 35.5t-17 37.5q0 23 15.5 38t38.5 15q25 0 41.5 -21t16.5 -47z" />
    <glyph glyph-name="tonos" unicode="&#x384;" horiz-adv-x="301" 
d="M227 661l-103 -109q-12 -13 -25 -2l-22 19q-13 11 -2 24l90 121q6 8 15 9.5t17 -5.5l30 -28q14 -14 0 -29z" />
    <glyph glyph-name="dieresistonos" unicode="&#x385;" horiz-adv-x="411" 
d="M280 685l-74 -134q-8 -15 -23 -9l-26 12q-15 7 -8 23l58 142q4 9 12 13t17 0l37 -19q17 -8 7 -28zM128 618q0 -20 -13 -31.5t-32 -11.5q-18 0 -31.5 12t-13.5 31q0 20 13 32t32 12q20 0 32.5 -12t12.5 -32zM374 617q0 -20 -13 -31.5t-32 -11.5q-18 0 -31.5 12t-13.5 31
q0 20 13 32t32 12q20 0 32.5 -12t12.5 -32z" />
    <glyph glyph-name="Alphatonos" unicode="&#x386;" horiz-adv-x="616" 
d="M171 645l-74 -134q-8 -15 -23 -9l-32 14q-15 7 -8 23l58 142q4 9 12 13t17 0l43 -21q17 -8 7 -28zM178 204l-69 -188q-5 -16 -24 -16h-55q-20 0 -12 20l251 655q5 14 18 14h53q14 0 18 -12l247 -657q8 -20 -13 -20h-64q-19 0 -24 16l-67 188h-259zM202 273h211l-103 297
h-1z" />
    <glyph glyph-name="anoteleia" unicode="&#x387;" horiz-adv-x="204" 
d="M103 343q23 0 40 -14.5t17 -39.5q0 -26 -17 -40.5t-41 -14.5q-23 0 -40 14.5t-17 39.5q0 26 17 40.5t41 14.5z" />
    <glyph glyph-name="Epsilontonos" unicode="&#x388;" horiz-adv-x="631" 
d="M144 645l-74 -134q-8 -15 -23 -9l-32 14q-15 7 -8 23l58 142q4 9 12 13t17 0l43 -21q17 -8 7 -28zM290 616v-219h236q19 0 19 -16v-40q0 -16 -19 -16h-236v-252h278q19 0 19 -16v-41q0 -16 -19 -16h-350q-21 0 -21 23v643q0 23 21 23h350q20 0 17 -17l-6 -40
q-2 -16 -22 -16h-267z" />
    <glyph glyph-name="Etatonos" unicode="&#x389;" horiz-adv-x="781" 
d="M144 645l-74 -134q-8 -15 -23 -9l-32 14q-15 7 -8 23l58 142q4 9 12 13t17 0l43 -21q17 -8 7 -28zM612 397v272q0 20 19 20h54q20 0 20 -20v-649q0 -20 -19 -20h-54q-20 0 -20 20v305h-322v-305q0 -20 -19 -20h-54q-20 0 -20 20v649q0 20 19 20h54q20 0 20 -20v-272h322z
" />
    <glyph glyph-name="Iotatonos" unicode="&#x38a;" horiz-adv-x="500" 
d="M144 645l-74 -134q-8 -15 -23 -9l-32 14q-15 7 -8 23l58 142q4 9 12 13t17 0l43 -21q17 -8 7 -28zM360 627v-564h58q19 0 19 -16v-31q0 -16 -19 -16h-204q-19 0 -19 16v31q0 16 19 16h56v564h-60q-19 0 -19 16v30q0 16 19 16h209q19 0 19 -16v-30q0 -16 -19 -16h-59z" />
    <glyph glyph-name="Omicrontonos" unicode="&#x38c;" horiz-adv-x="757" 
d="M151 645l-74 -134q-8 -15 -23 -9l-32 14q-15 7 -8 23l58 142q4 9 12 13t17 0l43 -21q17 -8 7 -28zM708 349q0 -166 -82.5 -262.5t-211.5 -96.5q-134 0 -209 94t-75 258q0 162 81 260.5t212 98.5q135 0 210 -96t75 -256zM610 346q0 133 -49 205.5t-140 72.5
q-86 0 -139.5 -77.5t-53.5 -201.5q0 -131 50 -205t140 -74q86 0 139 76t53 204z" />
    <glyph glyph-name="Upsilontonos" unicode="&#x38e;" horiz-adv-x="718" 
d="M143 645l-74 -134q-8 -15 -23 -9l-32 14q-15 7 -8 23l58 142q4 9 12 13t17 0l43 -21q17 -8 7 -28zM443 299h2q25 113 116 289l43 83q9 18 30 18h58q9 0 13 -6.5t0 -14.5l-62 -112q-48 -86 -76 -143t-54 -140t-26 -151v-101q0 -21 -20 -21h-52q-20 0 -20 21v100
q0 53 -12 108t-38 115t-47.5 102.5t-58.5 108.5l-62 112q-4 8 0 15t13 7h62q19 0 29 -18l44 -85q96 -186 118 -287z" />
    <glyph glyph-name="Omegatonos" unicode="&#x38f;" horiz-adv-x="772" 
d="M164 645l-74 -134q-8 -15 -23 -9l-32 14q-15 7 -8 23l58 142q4 9 12 13t17 0l43 -21q17 -8 7 -28zM367 69q9 -3 12 -6t3 -10v-36q0 -17 -15 -17h-233q-17 0 -17 17v36q0 16 17 16h101q-102 86 -102 275q0 161 81.5 256.5t212.5 95.5q135 0 210.5 -94t75.5 -253
q0 -190 -112 -280h110q15 0 15 -16v-36q0 -17 -15 -17h-236q-15 0 -15 17v36q0 13 15 16q70 14 106.5 89t36.5 188q0 134 -51.5 203t-143.5 69q-87 0 -142.5 -72.5t-55.5 -198.5q0 -115 35.5 -188t106.5 -90z" />
    <glyph glyph-name="iotadieresistonos" unicode="&#x390;" horiz-adv-x="253" 
d="M150 467v-323q0 -44 6 -60t22 -16q14 0 26 5q19 9 26 -7l12 -26q6 -15 -9 -24q-32 -21 -78 -21q-54 0 -72 33t-18 107v332q0 16 17 16h52q16 0 16 -16zM191 685l-74 -134q-8 -15 -23 -9l-26 12q-15 7 -8 23l58 142q4 9 12 13t17 0l37 -19q17 -8 7 -28zM39 618
q0 -20 -13 -31.5t-32 -11.5q-18 0 -31.5 12t-13.5 31q0 20 13 32t32 12q20 0 32.5 -12t12.5 -32zM285 617q0 -20 -13 -31.5t-32 -11.5q-18 0 -31.5 12t-13.5 31q0 20 13 32t32 12q20 0 32.5 -12t12.5 -32z" />
    <glyph glyph-name="Alpha" unicode="&#x391;" horiz-adv-x="608" 
d="M170 204l-69 -188q-5 -16 -24 -16h-55q-20 0 -12 20l251 655q5 14 18 14h53q14 0 18 -12l247 -657q8 -20 -13 -20h-64q-19 0 -24 16l-67 188h-259zM194 273h211l-103 297h-1z" />
    <glyph glyph-name="Beta" unicode="&#x392;" horiz-adv-x="569" 
d="M351 369q75 -3 124 -49.5t49 -121.5q0 -198 -260 -198h-168q-21 0 -21 23v643q0 23 21 23h141q234 0 234 -168q0 -56 -31.5 -97.5t-88.5 -53.5v-1zM168 618v-223h68q144 0 144 120q0 59 -39.5 81t-108.5 22h-64zM168 71h87q38 0 66 5t54 17.5t40 39t15 65.5
q0 129 -178 129h-84v-256z" />
    <glyph glyph-name="Gamma" unicode="&#x393;" horiz-adv-x="489" 
d="M169 614v-593q0 -21 -20 -21h-53q-20 0 -20 21v645q0 23 24 23h365q19 0 17 -18l-4 -39q-1 -18 -23 -18h-286z" />
    <glyph glyph-name="_36" unicode="&#x394;" horiz-adv-x="579" 
d="M38 105l204 566q5 18 22 18h55q18 0 24 -16l198 -565q14 -42 14 -54v-36q0 -18 -19 -18h-493q-19 0 -19 18v35q0 16 14 52zM116 74h340l-164 510h-2z" />
    <glyph glyph-name="Epsilon" unicode="&#x395;" horiz-adv-x="510" 
d="M169 616v-219h236q19 0 19 -16v-40q0 -16 -19 -16h-236v-252h278q19 0 19 -16v-41q0 -16 -19 -16h-350q-21 0 -21 23v643q0 23 21 23h350q20 0 17 -17l-6 -40q-2 -16 -22 -16h-267z" />
    <glyph glyph-name="Zeta" unicode="&#x396;" horiz-adv-x="541" 
d="M141 74v-1h350q19 0 19 -16v-41q0 -16 -19 -16h-444q-19 0 -19 16v28q0 15 11 31l347 540v1h-309q-19 0 -19 16v41q0 16 19 16h404q19 0 19 -16v-30q0 -15 -11 -31z" />
    <glyph glyph-name="Eta" unicode="&#x397;" horiz-adv-x="660" 
d="M491 397v272q0 20 19 20h54q20 0 20 -20v-649q0 -20 -19 -20h-54q-20 0 -20 20v305h-322v-305q0 -20 -19 -20h-54q-20 0 -20 20v649q0 20 19 20h54q20 0 20 -20v-272h322z" />
    <glyph glyph-name="Theta" unicode="&#x398;" horiz-adv-x="693" 
d="M643 347q0 -167 -84.5 -262.5t-216.5 -95.5q-138 0 -215 94t-77 260q0 163 82.5 261.5t217.5 98.5q139 0 216 -97.5t77 -258.5zM546 345q0 135 -51 208t-148 73q-91 0 -145.5 -78t-54.5 -204q0 -133 51.5 -206t147.5 -73q91 0 145.5 75t54.5 205zM219 383h255
q16 0 16 -14v-41q0 -17 -16 -17h-255q-16 0 -16 17v41q0 14 16 14z" />
    <glyph glyph-name="Iota" unicode="&#x399;" horiz-adv-x="371" 
d="M231 627v-564h58q19 0 19 -16v-31q0 -16 -19 -16h-204q-19 0 -19 16v31q0 16 19 16h56v564h-60q-19 0 -19 16v30q0 16 19 16h209q19 0 19 -16v-30q0 -16 -19 -16h-59z" />
    <glyph glyph-name="Kappa" unicode="&#x39a;" horiz-adv-x="553" 
d="M502 669l-254 -311l283 -334q8 -8 6.5 -16t-13.5 -8h-66q-23 0 -36 16l-252 303h-1v-299q0 -20 -19 -20h-54q-20 0 -20 20v649q0 20 19 20h54q20 0 20 -20v-290h1l239 295q12 15 33 15h51q11 0 13 -7t-4 -13z" />
    <glyph glyph-name="Lambda" unicode="&#x39b;" horiz-adv-x="591" 
d="M472 19l-177 558h-1l-181 -558q-6 -19 -28 -19h-54q-21 0 -13 21l226 650q5 18 22 18h58q18 0 24 -16l225 -652q8 -21 -13 -21h-60q-22 0 -28 19z" />
    <glyph glyph-name="Mu" unicode="&#x39c;" horiz-adv-x="838" 
d="M652 512h-2l-191 -498q-5 -14 -20 -14h-34q-16 0 -22 14l-207 498h-1l-12 -494q0 -10 -4.5 -14t-15.5 -4h-49q-19 0 -18 19l23 651q1 19 19 19h43q19 0 26 -15l240 -550h1l222 549q7 16 22 16h47q17 0 17 -16l27 -653q2 -20 -18 -20h-57q-19 0 -19 20z" />
    <glyph glyph-name="Nu" unicode="&#x39d;" horiz-adv-x="694" 
d="M530 152h2v517q0 20 19 20h47q20 0 20 -20v-649q0 -20 -19 -20h-44q-21 0 -34 20l-357 510h-2v-510q0 -20 -19 -20h-47q-20 0 -20 20v649q0 20 19 20h40q21 0 34 -20z" />
    <glyph glyph-name="Xi" unicode="&#x39e;" horiz-adv-x="498" 
d="M61 689h376q17 0 17 -15v-44q0 -18 -17 -18h-376q-17 0 -17 15v44q0 18 17 18zM51 77h396q17 0 17 -15v-44q0 -18 -17 -18h-396q-17 0 -17 15v44q0 18 17 18zM75 400h348q17 0 17 -15v-43q0 -18 -17 -18h-348q-17 0 -17 15v43q0 18 17 18z" />
    <glyph glyph-name="Omicron" unicode="&#x39f;" horiz-adv-x="676" 
d="M627 349q0 -166 -82.5 -262.5t-211.5 -96.5q-134 0 -209 94t-75 258q0 162 81 260.5t212 98.5q135 0 210 -96t75 -256zM529 346q0 133 -49 205.5t-140 72.5q-86 0 -139.5 -77.5t-53.5 -201.5q0 -131 50 -205t140 -74q86 0 139 76t53 204z" />
    <glyph glyph-name="Pi" unicode="&#x3a0;" horiz-adv-x="644" 
d="M169 614v-593q0 -21 -20 -21h-53q-20 0 -20 21v645q0 23 24 23h444q24 0 24 -23v-645q0 -21 -20 -21h-53q-20 0 -20 21v593h-306z" />
    <glyph glyph-name="Rho" unicode="&#x3a1;" horiz-adv-x="519" 
d="M488 479q0 -110 -70 -164t-190 -54h-59v-241q0 -20 -19 -20h-54q-20 0 -20 20v646q0 23 21 23h129q121 0 191.5 -50.5t70.5 -159.5zM169 618v-286h62q78 0 120.5 33t42.5 112q0 141 -170 141h-55z" />
    <glyph glyph-name="Sigma" unicode="&#x3a3;" horiz-adv-x="488" 
d="M130 75h309q17 0 17 -15v-42q0 -18 -17 -18h-396q-17 0 -17 16v41q0 17 15 35l221 264l-206 240q-16 20 -16 37v41q0 15 17 15h380q17 0 17 -15v-42q0 -18 -17 -18h-285l169 -199q20 -24 20 -39v-31q0 -17 -20 -41z" />
    <glyph glyph-name="Tau" unicode="&#x3a4;" 
d="M226 616h-190q-19 0 -19 16v41q0 16 19 16h484q20 0 17 -17l-6 -40q-2 -16 -22 -16h-190v-596q0 -20 -19 -20h-54q-20 0 -20 20v596z" />
    <glyph glyph-name="Upsilon" unicode="&#x3a5;" horiz-adv-x="554" 
d="M279 299h2q25 113 116 289l43 83q9 18 30 18h58q9 0 13 -6.5t0 -14.5l-62 -112q-48 -86 -76 -143t-54 -140t-26 -151v-101q0 -21 -20 -21h-52q-20 0 -20 21v100q0 53 -12 108t-38 115t-47.5 102.5t-58.5 108.5l-62 112q-4 8 0 15t13 7h62q19 0 29 -18l44 -85
q96 -186 118 -287z" />
    <glyph glyph-name="Phi" unicode="&#x3a6;" horiz-adv-x="728" 
d="M700 349q0 -133 -81 -214.5t-211 -93.5v-52q0 -21 -20 -21h-49q-20 0 -20 21v51q-137 10 -214 90t-77 213q0 128 79.5 210.5t211.5 96.5v47q0 21 20 21h49q20 0 20 -21v-46q140 -10 216 -91.5t76 -210.5zM605 346q0 101 -51.5 161t-146.5 68v-460q90 10 144 72t54 159z
M123 346q0 -100 51 -161t146 -71v461q-89 -11 -143 -74t-54 -155z" />
    <glyph glyph-name="Chi" unicode="&#x3a7;" horiz-adv-x="563" 
d="M330 365l210 -341q7 -9 4 -16.5t-15 -7.5h-63q-22 0 -32 18l-155 266h-1l-155 -265q-11 -19 -35 -19h-52q-10 0 -13.5 6.5t2.5 16.5l207 334l-189 311q-5 7 -2 14t14 7h59q22 0 31 -17l139 -236h1l138 237q9 16 30 16h57q10 0 13 -5.5t-2 -13.5z" />
    <glyph glyph-name="Psi" unicode="&#x3a8;" horiz-adv-x="683" 
d="M648 668v-165q0 -282 -260 -301v-181q0 -21 -20 -21h-51q-20 0 -20 21v179q-136 8 -199 79.5t-63 215.5v173q0 21 20 21h51q20 0 20 -21v-163q0 -113 40 -166.5t132 -60.5v390q0 21 20 21h50q20 0 20 -21v-389q86 7 127.5 61t41.5 158v170q0 21 20 21h51q20 0 20 -21z
" />
    <glyph glyph-name="_57" unicode="&#x3a9;" horiz-adv-x="701" 
d="M296 69q9 -3 12 -6t3 -10v-36q0 -17 -15 -17h-233q-17 0 -17 17v36q0 16 17 16h101q-102 86 -102 275q0 161 81.5 256.5t212.5 95.5q135 0 210.5 -94t75.5 -253q0 -190 -112 -280h110q15 0 15 -16v-36q0 -17 -15 -17h-236q-15 0 -15 17v36q0 13 15 16q70 14 106.5 89
t36.5 188q0 134 -51.5 203t-143.5 69q-87 0 -142.5 -72.5t-55.5 -198.5q0 -115 35.5 -188t106.5 -90z" />
    <glyph glyph-name="Iotadieresis" unicode="&#x3aa;" horiz-adv-x="371" 
d="M231 627v-564h58q19 0 19 -16v-31q0 -16 -19 -16h-204q-19 0 -19 16v31q0 16 19 16h56v564h-60q-19 0 -19 16v30q0 16 19 16h209q19 0 19 -16v-30q0 -16 -19 -16h-59zM100 865q21 0 35.5 -13t14.5 -35q0 -23 -15 -36t-36 -13t-36 13t-15 35q0 23 15 36t37 13zM277 865
q21 0 35.5 -13t14.5 -35q0 -23 -15 -36t-36 -13t-36 13t-15 35q0 23 15 36t37 13z" />
    <glyph glyph-name="Upsilondieresis" unicode="&#x3ab;" horiz-adv-x="554" 
d="M279 299h2q25 113 116 289l43 83q9 18 30 18h58q9 0 13 -6.5t0 -14.5l-62 -112q-48 -86 -76 -143t-54 -140t-26 -151v-101q0 -21 -20 -21h-52q-20 0 -20 21v100q0 53 -12 108t-38 115t-47.5 102.5t-58.5 108.5l-62 112q-4 8 0 15t13 7h62q19 0 29 -18l44 -85
q96 -186 118 -287zM193 865q21 0 35.5 -13t14.5 -35q0 -23 -15 -36t-36 -13t-36 13t-15 35q0 23 15 36t37 13zM370 865q21 0 35.5 -13t14.5 -35q0 -23 -15 -36t-36 -13t-36 13t-15 35q0 23 15 36t37 13z" />
    <glyph glyph-name="alphatonos" unicode="&#x3ac;" horiz-adv-x="582" 
d="M460 214q4 -38 8.5 -62t13 -48.5t23 -36t36.5 -11.5h9q14 0 14 -13v-35q0 -13 -15 -13h-19q-96 0 -118 120h-2q-41 -125 -167 -125q-91 0 -146.5 62.5t-55.5 188.5q0 69 18 120t49.5 79t68 41t79.5 13q132 0 166 -142h2q13 72 32 116q8 15 23 15h39q8 0 11.5 -6.5
t-0.5 -12.5q-45 -110 -69 -250zM129 248q0 -48 9.5 -87.5t37.5 -70t72 -30.5q102 0 131 163q-3 44 -10 76.5t-20.5 63t-38 47t-59.5 16.5q-58 0 -90 -46t-32 -132zM351 661l-103 -109q-12 -13 -25 -2l-22 19q-13 11 -2 24l90 121q6 8 15 9.5t17 -5.5l30 -28q14 -14 0 -29z
" />
    <glyph glyph-name="epsilontonos" unicode="&#x3ad;" horiz-adv-x="443" 
d="M139 258v2q-82 23 -82 104q0 130 196 130q75 0 143 -29q15 -6 9 -20l-14 -32q-5 -12 -21 -7q-63 23 -122 23q-97 0 -97 -66q0 -75 111 -75h64q14 0 14 -13v-37q0 -13 -15 -13h-66q-57 0 -91.5 -20.5t-34.5 -63.5q0 -86 124 -86q63 0 129 22q16 5 20 -6l12 -36
q4 -13 -9 -18q-72 -27 -164 -27q-97 0 -151.5 37t-54.5 107q0 48 26 81t74 43zM332 661l-103 -109q-12 -13 -25 -2l-22 19q-13 11 -2 24l90 121q6 8 15 9.5t17 -5.5l30 -28q14 -14 0 -29z" />
    <glyph glyph-name="etatonos" unicode="&#x3ae;" horiz-adv-x="556" 
d="M173 342v-322q0 -20 -20 -20h-45q-20 0 -20 20v355q0 31 -8 42t-28 11h-10q-14 0 -14 13v35q0 13 15 13h27q48 0 71.5 -18t28.5 -58q70 81 167 81q152 0 152 -175v-310q0 -120 16 -203q2 -10 -3 -15.5t-14 -5.5h-45q-18 0 -21 17q-18 78 -18 195v305q0 55 -19.5 85.5
t-74.5 30.5q-33 0 -71.5 -21.5t-65.5 -54.5zM379 661l-103 -109q-12 -13 -25 -2l-22 19q-13 11 -2 24l90 121q6 8 15 9.5t17 -5.5l30 -28q14 -14 0 -29z" />
    <glyph glyph-name="iotatonos" unicode="&#x3af;" horiz-adv-x="253" 
d="M150 467v-323q0 -44 6 -60t22 -16q14 0 26 5q19 9 26 -7l12 -26q6 -15 -9 -24q-32 -21 -78 -21q-54 0 -72 33t-18 107v332q0 16 17 16h52q16 0 16 -16zM211 661l-103 -109q-12 -13 -25 -2l-22 19q-13 11 -2 24l90 121q6 8 15 9.5t17 -5.5l30 -28q14 -14 0 -29z" />
    <glyph glyph-name="upsilondieresistonos" unicode="&#x3b0;" horiz-adv-x="527" 
d="M58 489q58 0 81.5 -26.5t23.5 -84.5v-171q0 -142 106 -142q64 0 98.5 50t34.5 146q0 111 -38 203q-8 19 16 19h44q17 0 24 -17q41 -88 41 -199q0 -52 -10.5 -97t-34 -87.5t-70 -67.5t-111.5 -25q-85 0 -135 50t-50 160v169q0 34 -8.5 46.5t-29.5 12.5h-7q-14 0 -14 13v35
q0 13 15 13h24zM348 685l-74 -134q-8 -15 -23 -9l-26 12q-15 7 -8 23l58 142q4 9 12 13t17 0l37 -19q17 -8 7 -28zM196 618q0 -20 -13 -31.5t-32 -11.5q-18 0 -31.5 12t-13.5 31q0 20 13 32t32 12q20 0 32.5 -12t12.5 -32zM442 617q0 -20 -13 -31.5t-32 -11.5
q-18 0 -31.5 12t-13.5 31q0 20 13 32t32 12q20 0 32.5 -12t12.5 -32z" />
    <glyph glyph-name="alpha" unicode="&#x3b1;" horiz-adv-x="582" 
d="M460 214q4 -38 8.5 -62t13 -48.5t23 -36t36.5 -11.5h9q14 0 14 -13v-35q0 -13 -15 -13h-19q-96 0 -118 120h-2q-41 -125 -167 -125q-91 0 -146.5 62.5t-55.5 188.5q0 69 18 120t49.5 79t68 41t79.5 13q132 0 166 -142h2q13 72 32 116q8 15 23 15h39q8 0 11.5 -6.5
t-0.5 -12.5q-45 -110 -69 -250zM129 248q0 -48 9.5 -87.5t37.5 -70t72 -30.5q102 0 131 163q-3 44 -10 76.5t-20.5 63t-38 47t-59.5 16.5q-58 0 -90 -46t-32 -132z" />
    <glyph glyph-name="beta" unicode="&#x3b2;" horiz-adv-x="558" 
d="M374 388v-1q72 -10 113 -59.5t41 -124.5q0 -95 -61.5 -154t-159.5 -59q-100 0 -151 55h-1v-36q0 -120 16 -203q2 -10 -3 -15.5t-14 -5.5h-45q-18 0 -21 17q-18 78 -18 195v490q0 119 54.5 178t154.5 59q85 0 142.5 -42t57.5 -128q0 -57 -26.5 -103t-78.5 -63zM155 128
q54 -70 142 -70q64 0 103.5 40t39.5 103q0 66 -44 105.5t-113 39.5h-33q-15 0 -15 14v35q0 14 16 14h13q55 0 91.5 34t36.5 96q0 56 -31.5 86.5t-84.5 30.5q-121 0 -121 -174v-354z" />
    <glyph glyph-name="gamma" unicode="&#x3b3;" horiz-adv-x="463" 
d="M263 -40q0 -79 -18 -157q-3 -18 -22 -18h-46q-10 0 -14.5 5.5t-2.5 13.5q18 77 18 144q0 110 -33 226q-43 156 -136 287q-6 7 -2.5 14.5t13.5 7.5h51q18 0 28 -15q84 -121 124 -270q13 -42 18 -95q122 200 122 328q0 17 -3 34q-3 18 18 18h45q16 0 19 -16q3 -20 3 -41
q0 -92 -55.5 -208t-128.5 -206q2 -30 2 -52z" />
    <glyph glyph-name="delta" unicode="&#x3b4;" horiz-adv-x="528" 
d="M443 665l-14 -32q-6 -14 -21 -6q-62 30 -108 30q-44 0 -71 -21.5t-27 -60.5q0 -26 16 -48t41.5 -38.5t56 -33.5t61 -37.5t56 -45.5t41.5 -63.5t16 -85.5q0 -101 -63.5 -167t-165.5 -66q-108 0 -166.5 62.5t-58.5 156.5q0 73 42.5 133t111.5 96q-72 57 -72 133
q0 64 48 107t129 43q74 0 140 -36q14 -8 8 -20zM247 402q-125 -61 -125 -193q0 -71 38.5 -112t101.5 -41t102 43.5t39 118.5q0 63 -36 103t-120 81z" />
    <glyph glyph-name="epsilon" unicode="&#x3b5;" horiz-adv-x="443" 
d="M139 258v2q-82 23 -82 104q0 130 196 130q75 0 143 -29q15 -6 9 -20l-14 -32q-5 -12 -21 -7q-63 23 -122 23q-97 0 -97 -66q0 -75 111 -75h64q14 0 14 -13v-37q0 -13 -15 -13h-66q-57 0 -91.5 -20.5t-34.5 -63.5q0 -86 124 -86q63 0 129 22q16 5 20 -6l12 -36
q4 -13 -9 -18q-72 -27 -164 -27q-97 0 -151.5 37t-54.5 107q0 48 26 81t74 43z" />
    <glyph glyph-name="zeta" unicode="&#x3b6;" horiz-adv-x="406" 
d="M278 655v2q-67 -12 -148 -12h-55q-15 0 -15 13v38q0 13 14 13h61q110 0 249 17q20 2 20 -14v-24q0 -14 -17 -23q-110 -61 -189.5 -176.5t-79.5 -238.5q0 -75 31 -108.5t95 -51.5q41 -12 66 -21.5t51 -27t38 -43t12 -60.5q0 -64 -40 -136q-9 -17 -27 -17h-42q-26 0 -14 23
q37 69 37 114q0 40 -30 61t-100 39q-34 9 -60 22t-52 37.5t-40 65.5t-14 96q0 126 72 240t177 172z" />
    <glyph glyph-name="eta" unicode="&#x3b7;" horiz-adv-x="556" 
d="M173 342v-322q0 -20 -20 -20h-45q-20 0 -20 20v355q0 31 -8 42t-28 11h-10q-14 0 -14 13v35q0 13 15 13h27q48 0 71.5 -18t28.5 -58q70 81 167 81q152 0 152 -175v-310q0 -120 16 -203q2 -10 -3 -15.5t-14 -5.5h-45q-18 0 -21 17q-18 78 -18 195v305q0 55 -19.5 85.5
t-74.5 30.5q-33 0 -71.5 -21.5t-65.5 -54.5z" />
    <glyph glyph-name="theta" unicode="&#x3b8;" horiz-adv-x="583" 
d="M540 358q0 -72 -13.5 -135t-42 -117t-78 -85.5t-115.5 -31.5q-65 0 -114.5 31t-78 83.5t-42 115.5t-13.5 134q0 57 8.5 109t28 100.5t48 84t71.5 56.5t96 21q66 0 115 -31t76.5 -84.5t40.5 -116t13 -134.5zM453 329h-322q2 -54 11 -100t27 -86t50 -63.5t74 -23.5t73.5 23
t49 63.5t26.5 86.5t11 100zM131 390h321q-4 116 -43 192t-115 76q-54 0 -91 -40t-53 -97.5t-19 -130.5z" />
    <glyph glyph-name="iota" unicode="&#x3b9;" horiz-adv-x="253" 
d="M150 467v-323q0 -44 6 -60t22 -16q14 0 26 5q19 9 26 -7l12 -26q6 -15 -9 -24q-32 -21 -78 -21q-54 0 -72 33t-18 107v332q0 16 17 16h52q16 0 16 -16z" />
    <glyph glyph-name="kappa" unicode="&#x3ba;" horiz-adv-x="501" 
d="M155 154v-134q0 -20 -20 -20h-45q-20 0 -20 20v304q0 81 -10 140q-3 19 18 19h42q19 0 23 -16q12 -53 12 -135v-85l145 156q79 86 155 86q19 0 19 -14v-31q0 -15 -17 -18q-27 -4 -49.5 -20.5t-56.5 -50.5l-66 -67l195 -266q7 -9 4 -15.5t-14 -6.5h-55q-22 0 -34 18
l-149 214z" />
    <glyph glyph-name="lambda" unicode="&#x3bb;" horiz-adv-x="496" 
d="M220 505l-15 41q-22 61 -48.5 83t-74.5 22q-9 0 -36 -3q-15 -2 -18 13l-6 34q-3 15 12 20q16 5 47 5q82 0 123.5 -32.5t75.5 -124.5l201 -545q6 -18 -13 -18h-56q-18 0 -23 16l-129 389l-134 -386q-7 -19 -27 -19h-46q-22 0 -13 23z" />
    <glyph glyph-name="mu" unicode="&#x3bc;" horiz-adv-x="558" 
d="M381 463q0 20 20 20h45q20 0 20 -20v-328q0 -40 4.5 -54t18.5 -14t25 7q4 4 12.5 2.5t11.5 -9.5l12 -26q7 -14 -9 -24q-33 -22 -75 -22q-62 0 -78 56q-61 -61 -142 -61q-67 0 -95 30v-169q0 -20 -20 -20h-44q-20 0 -20 20v612q0 20 20 20h45q20 0 20 -20v-282
q0 -69 25 -97q23 -26 73 -26q69 0 131 57v348z" />
    <glyph glyph-name="nu" unicode="&#x3bd;" horiz-adv-x="460" 
d="M108 467l122 -383h2q128 170 128 318q0 34 -6 64q-4 17 15 17h48q18 0 21 -17q7 -32 7 -63q0 -97 -48.5 -199t-124.5 -186q-16 -18 -35 -18h-42q-19 0 -26 20l-156 444q-7 19 15 19h57q18 0 23 -16z" />
    <glyph glyph-name="xi" unicode="&#x3be;" horiz-adv-x="410" 
d="M381 718v-35q0 -12 -14 -15q-106 -27 -163 -65.5t-57 -98.5q0 -29 12.5 -48.5t37 -28.5t51.5 -12.5t65 -3.5h32q14 0 14 -13v-38q0 -13 -15 -13h-35q-101 0 -153 -54q-39 -39 -39 -95q0 -52 31 -73.5t93 -35.5q84 -19 125.5 -49.5t41.5 -94.5q0 -67 -42 -142
q-9 -18 -26 -18h-47q-24 0 -12 21q37 66 37 119q0 46 -29.5 64t-91.5 31q-37 7 -63 17t-52.5 28.5t-40.5 50t-14 74.5q0 131 133 172v1q-102 31 -102 132q0 114 147 165v2q-39 -7 -89 -7h-41q-15 0 -15 13v35q0 13 14 13h61q81 0 230 13q16 2 16 -11z" />
    <glyph glyph-name="omicron" unicode="&#x3bf;" horiz-adv-x="535" 
d="M495 242q0 -110 -61.5 -181t-169.5 -71q-111 0 -167.5 70t-56.5 183q0 110 61 180.5t169 70.5q112 0 168.5 -69t56.5 -183zM407 241q0 79 -33 133t-105 54q-74 0 -107.5 -53t-33.5 -130q0 -80 32 -134.5t105 -54.5t107.5 53.5t34.5 131.5z" />
    <glyph glyph-name="pi" unicode="&#x3c0;" horiz-adv-x="618" 
d="M549 419h-96v-254q0 -54 7.5 -75.5t34.5 -21.5q22 0 43 12q18 11 26 -7l12 -27q6 -14 -9 -24q-41 -27 -94 -27q-63 0 -84 40t-21 121v263h-166v-399q0 -20 -20 -20h-45q-20 0 -20 20v399h-74q-15 0 -15 14v36q0 14 16 14h506q15 0 15 -14v-36q0 -14 -16 -14z" />
    <glyph glyph-name="rho" unicode="&#x3c1;" horiz-adv-x="532" 
d="M495 250q0 -113 -57 -187t-155 -74q-90 0 -137 52v-32q0 -120 16 -203q4 -21 -17 -21h-45q-18 0 -21 17q-18 78 -18 195v241q0 126 58.5 192t157.5 66q107 0 162.5 -68.5t55.5 -177.5zM407 247q0 78 -34 128.5t-99 50.5q-61 0 -94.5 -48t-33.5 -133v-129q18 -25 51 -41
t70 -16q67 0 103.5 52.5t36.5 135.5z" />
    <glyph glyph-name="sigma1" unicode="&#x3c2;" horiz-adv-x="432" 
d="M277 425q-73 0 -113 -46t-40 -130q0 -72 27.5 -104t81.5 -51q10 -3 40.5 -12.5t42.5 -14.5t34.5 -17t31.5 -24.5t17.5 -33.5t8.5 -48q0 -65 -45 -141q-11 -18 -28 -18h-43q-25 0 -13 21q40 72 40 124q0 16 -5.5 29t-12.5 20.5t-22 15t-25.5 11t-31.5 9.5t-33 10
q-33 11 -57.5 24.5t-48 37.5t-36 62t-12.5 89q0 116 64.5 186t177.5 70q59 0 114 -20q15 -5 10 -20l-13 -36q-5 -14 -22 -8q-51 15 -89 15z" />
    <glyph glyph-name="sigma" unicode="&#x3c3;" horiz-adv-x="562" 
d="M417 418q78 -71 78 -187q0 -101 -63 -171.5t-173 -70.5t-167.5 70t-57.5 174q0 109 64.5 179.5t187.5 70.5h247q16 0 16 -14v-37q0 -14 -17 -14h-115zM406 235q0 125 -83 183h-40q-85 0 -122.5 -52t-37.5 -130q0 -75 33 -127.5t107 -52.5t108.5 52t34.5 127z" />
    <glyph glyph-name="tau" unicode="&#x3c4;" horiz-adv-x="440" 
d="M148 419h-128q-15 0 -15 14v36q0 14 16 14h386q15 0 15 -14v-36q0 -14 -16 -14h-173v-254q0 -54 10 -75.5t47 -21.5q30 0 57 12q19 8 26 -7l12 -27q6 -14 -9 -24q-41 -27 -105 -27q-74 0 -98.5 40t-24.5 121v263z" />
    <glyph glyph-name="upsilon" unicode="&#x3c5;" horiz-adv-x="527" 
d="M58 489q58 0 81.5 -26.5t23.5 -84.5v-171q0 -142 106 -142q64 0 98.5 50t34.5 146q0 111 -38 203q-8 19 16 19h44q17 0 24 -17q41 -88 41 -199q0 -52 -10.5 -97t-34 -87.5t-70 -67.5t-111.5 -25q-85 0 -135 50t-50 160v169q0 34 -8.5 46.5t-29.5 12.5h-7q-14 0 -14 13v35
q0 13 15 13h24z" />
    <glyph glyph-name="phi" unicode="&#x3c6;" horiz-adv-x="641" 
d="M608 242q0 -102 -63.5 -173.5t-181.5 -83.5v-180q0 -20 -20 -20h-44q-20 0 -20 20v179q-125 9 -185.5 80.5t-60.5 179.5q0 101 64 173t182 84v182q0 21 17 23l49 6q18 2 18 -16v-194q123 -10 184 -82t61 -178zM522 242q0 75 -38 129t-122 63v-383q82 11 121 64.5
t39 126.5zM120 245q0 -76 37.5 -131t122.5 -64v383q-83 -10 -121.5 -62.5t-38.5 -125.5z" />
    <glyph glyph-name="chi" unicode="&#x3c7;" horiz-adv-x="444" 
d="M179 155l-27 115q-22 93 -42 124.5t-58 31.5h-10q-16 0 -16 15v33q0 15 16 15h25q71 0 105.5 -43.5t54.5 -136.5l16 -72h2l25 60l82 171q8 15 25 15h50q19 0 9 -21l-167 -317l31 -131q25 -103 49.5 -136.5t66.5 -33.5h10q14 0 14 -14v-35q0 -14 -15 -14h-26
q-69 0 -108.5 43t-60.5 139l-22 99h-2l-25 -65l-90 -195q-8 -17 -26 -17h-50q-21 0 -9 23z" />
    <glyph glyph-name="psi" unicode="&#x3c8;" horiz-adv-x="632" 
d="M282 60v527q0 18 17 20l47 6q18 2 18 -15v-537q141 20 141 197q0 114 -31 203q-8 22 17 22h38q19 0 27 -18q36 -88 36 -199q0 -49 -10 -91t-34 -83t-71 -67.5t-113 -32.5v-187q0 -20 -20 -20h-42q-20 0 -20 20v186q-218 14 -218 216v119q0 78 -10 137q-3 20 16 20h45
q18 0 21 -18q12 -60 12 -131v-122q0 -137 134 -152z" />
    <glyph glyph-name="omega" unicode="&#x3c9;" horiz-adv-x="722" 
d="M319 214v106q0 20 20 20h44q20 0 20 -20v-106q0 -89 23.5 -122.5t64.5 -33.5q100 0 100 208q0 108 -35 199q-8 18 14 18h45q16 0 23 -17q40 -91 40 -196q0 -281 -191 -281q-97 0 -125 93h-2q-30 -93 -131 -93q-52 0 -89.5 24t-57.5 64.5t-29 85.5t-9 97q0 115 38 205
q7 18 26 18h38q25 0 17 -20q-32 -81 -32 -194q0 -211 105 -211q38 0 60.5 33.5t22.5 122.5z" />
    <glyph glyph-name="iotadieresis" unicode="&#x3ca;" horiz-adv-x="253" 
d="M150 467v-323q0 -44 6 -60t22 -16q14 0 26 5q19 9 26 -7l12 -26q6 -15 -9 -24q-32 -21 -78 -21q-54 0 -72 33t-18 107v332q0 16 17 16h52q16 0 16 -16zM18 682q21 0 35.5 -13t14.5 -35q0 -23 -15 -36t-36 -13t-36 13t-15 35q0 23 15 36t37 13zM195 682q21 0 35.5 -13
t14.5 -35q0 -23 -15 -36t-36 -13t-36 13t-15 35q0 23 15 36t37 13z" />
    <glyph glyph-name="upsilondieresis" unicode="&#x3cb;" horiz-adv-x="527" 
d="M58 489q58 0 81.5 -26.5t23.5 -84.5v-171q0 -142 106 -142q64 0 98.5 50t34.5 146q0 111 -38 203q-8 19 16 19h44q17 0 24 -17q41 -88 41 -199q0 -52 -10.5 -97t-34 -87.5t-70 -67.5t-111.5 -25q-85 0 -135 50t-50 160v169q0 34 -8.5 46.5t-29.5 12.5h-7q-14 0 -14 13v35
q0 13 15 13h24zM172 682q21 0 35.5 -13t14.5 -35q0 -23 -15 -36t-36 -13t-36 13t-15 35q0 23 15 36t37 13zM349 682q21 0 35.5 -13t14.5 -35q0 -23 -15 -36t-36 -13t-36 13t-15 35q0 23 15 36t37 13z" />
    <glyph glyph-name="omicrontonos" unicode="&#x3cc;" horiz-adv-x="535" 
d="M495 242q0 -110 -61.5 -181t-169.5 -71q-111 0 -167.5 70t-56.5 183q0 110 61 180.5t169 70.5q112 0 168.5 -69t56.5 -183zM407 241q0 79 -33 133t-105 54q-74 0 -107.5 -53t-33.5 -130q0 -80 32 -134.5t105 -54.5t107.5 53.5t34.5 131.5zM361 661l-103 -109
q-12 -13 -25 -2l-22 19q-13 11 -2 24l90 121q6 8 15 9.5t17 -5.5l30 -28q14 -14 0 -29z" />
    <glyph glyph-name="upsilontonos" unicode="&#x3cd;" horiz-adv-x="527" 
d="M58 489q58 0 81.5 -26.5t23.5 -84.5v-171q0 -142 106 -142q64 0 98.5 50t34.5 146q0 111 -38 203q-8 19 16 19h44q17 0 24 -17q41 -88 41 -199q0 -52 -10.5 -97t-34 -87.5t-70 -67.5t-111.5 -25q-85 0 -135 50t-50 160v169q0 34 -8.5 46.5t-29.5 12.5h-7q-14 0 -14 13v35
q0 13 15 13h24zM366 661l-103 -109q-12 -13 -25 -2l-22 19q-13 11 -2 24l90 121q6 8 15 9.5t17 -5.5l30 -28q14 -14 0 -29z" />
    <glyph glyph-name="omegatonos" unicode="&#x3ce;" horiz-adv-x="722" 
d="M319 214v106q0 20 20 20h44q20 0 20 -20v-106q0 -89 23.5 -122.5t64.5 -33.5q100 0 100 208q0 108 -35 199q-8 18 14 18h45q16 0 23 -17q40 -91 40 -196q0 -281 -191 -281q-97 0 -125 93h-2q-30 -93 -131 -93q-52 0 -89.5 24t-57.5 64.5t-29 85.5t-9 97q0 115 38 205
q7 18 26 18h38q25 0 17 -20q-32 -81 -32 -194q0 -211 105 -211q38 0 60.5 33.5t22.5 122.5zM463 661l-103 -109q-12 -13 -25 -2l-22 19q-13 11 -2 24l90 121q6 8 15 9.5t17 -5.5l30 -28q14 -14 0 -29z" />
    <glyph glyph-name="uni0400" unicode="&#x400;" horiz-adv-x="510" 
d="M169 616v-219h236q19 0 19 -16v-40q0 -16 -19 -16h-236v-252h278q19 0 19 -16v-41q0 -16 -19 -16h-350q-21 0 -21 23v643q0 23 21 23h350q20 0 17 -17l-6 -40q-2 -16 -22 -16h-267zM365 786l-12 -21q-8 -13 -25 -5l-151 76q-18 9 -6 26l21 32q10 16 29 4l139 -89
q13 -9 5 -23z" />
    <glyph glyph-name="afii10023" unicode="&#x401;" horiz-adv-x="510" 
d="M169 616v-219h236q19 0 19 -16v-40q0 -16 -19 -16h-236v-252h278q19 0 19 -16v-41q0 -16 -19 -16h-350q-21 0 -21 23v643q0 23 21 23h350q20 0 17 -17l-6 -40q-2 -16 -22 -16h-267zM191 865q21 0 35.5 -13t14.5 -35q0 -23 -15 -36t-36 -13t-36 13t-15 35q0 23 15 36
t37 13zM368 865q21 0 35.5 -13t14.5 -35q0 -23 -15 -36t-36 -13t-36 13t-15 35q0 23 15 36t37 13z" />
    <glyph glyph-name="afii10051" unicode="&#x402;" horiz-adv-x="663" 
d="M267 337v-316q0 -21 -20 -21h-53q-20 0 -20 21v593h-155q-16 0 -16 17v44q0 14 16 14h475q18 0 15 -15l-4 -45q-3 -15 -24 -15h-214v-211q61 11 117 11q248 0 248 -202q0 -217 -238 -217h-34q-16 0 -16 17v41q0 14 16 14h26q70 0 110.5 30.5t40.5 111.5q0 77 -46 107.5
t-124 30.5q-46 0 -100 -10z" />
    <glyph glyph-name="afii10052" unicode="&#x403;" horiz-adv-x="489" 
d="M169 614v-593q0 -21 -20 -21h-53q-20 0 -20 21v645q0 23 24 23h365q19 0 17 -18l-4 -39q-1 -18 -23 -18h-286zM387 895l20 -33q13 -17 -6 -25l-153 -79q-15 -8 -24 6l-12 20q-9 15 5 24l141 91q18 12 29 -4z" />
    <glyph glyph-name="afii10053" unicode="&#x404;" horiz-adv-x="569" 
d="M135 395h332q18 0 18 -16v-46q0 -17 -18 -17h-333q7 -109 63 -178t156 -69q79 0 143 23q18 7 24 -9l13 -39q5 -17 -9 -23q-77 -31 -186 -31q-149 0 -227.5 97.5t-78.5 256.5q0 158 86.5 257.5t239.5 99.5q90 0 163 -29q15 -6 9 -21l-17 -44q-5 -15 -20 -7q-60 23 -141 23
q-97 0 -152 -63.5t-65 -164.5z" />
    <glyph glyph-name="afii10054" unicode="&#x405;" horiz-adv-x="508" 
d="M235 69q57 0 98.5 28t41.5 83q0 40 -21.5 65t-66.5 49l-127 68q-110 59 -110 162q0 82 63.5 129.5t148.5 47.5q98 0 163 -32q17 -8 11 -24l-15 -40q-6 -18 -26 -9q-66 29 -128 29q-48 0 -84.5 -23.5t-36.5 -69.5q0 -37 19 -59.5t59 -43.5l107 -57q67 -35 101.5 -77.5
t34.5 -107.5q0 -94 -67 -145.5t-165 -51.5q-87 0 -168 28q-18 6 -13 25l13 45q6 18 26 10q72 -29 142 -29z" />
    <glyph glyph-name="afii10055" unicode="&#x406;" horiz-adv-x="371" 
d="M231 627v-564h58q19 0 19 -16v-31q0 -16 -19 -16h-204q-19 0 -19 16v31q0 16 19 16h56v564h-60q-19 0 -19 16v30q0 16 19 16h209q19 0 19 -16v-30q0 -16 -19 -16h-59z" />
    <glyph glyph-name="afii10056" unicode="&#x407;" horiz-adv-x="371" 
d="M231 627v-564h58q19 0 19 -16v-31q0 -16 -19 -16h-204q-19 0 -19 16v31q0 16 19 16h56v564h-60q-19 0 -19 16v30q0 16 19 16h209q19 0 19 -16v-30q0 -16 -19 -16h-59zM100 865q21 0 35.5 -13t14.5 -35q0 -23 -15 -36t-36 -13t-36 13t-15 35q0 23 15 36t37 13zM277 865
q21 0 35.5 -13t14.5 -35q0 -23 -15 -36t-36 -13t-36 13t-15 35q0 23 15 36t37 13z" />
    <glyph glyph-name="afii10057" unicode="&#x408;" horiz-adv-x="381" 
d="M219 627h-112q-19 0 -19 16v30q0 16 19 16h181q21 0 21 -23v-435q0 -125 -40 -183t-151 -58q-34 0 -61 8q-16 5 -13 20l9 39q4 14 21 11q24 -6 47 -6q26 0 44.5 7.5t29 19.5t16 33t7 40t1.5 49v416z" />
    <glyph glyph-name="afii10058" unicode="&#x409;" horiz-adv-x="932" 
d="M559 335v-262h91q170 0 170 136t-158 136q-53 0 -103 -10zM262 614v-57q0 -98 -5 -172.5t-19 -146t-38 -119.5t-63.5 -81t-93.5 -43q-18 -3 -22 13l-11 43q-4 18 13 22q40 9 69 42.5t44 75.5t24 107t11 118t2 128v125q0 20 20 20h346q20 0 20 -20v-264q53 11 110 11
q109 0 177.5 -49t68.5 -156q0 -110 -70 -160.5t-188 -50.5h-165q-26 0 -26 26v588h-204z" />
    <glyph glyph-name="afii10059" unicode="&#x40a;" horiz-adv-x="931" 
d="M169 395h296v273q0 21 20 21h53q20 0 20 -21v-271q55 11 112 11q107 0 175 -48.5t68 -154.5q0 -108 -70 -156.5t-188 -48.5h-164q-26 0 -26 26v294h-296v-299q0 -21 -20 -21h-53q-20 0 -20 21v647q0 21 20 21h53q20 0 20 -21v-273zM558 327v-254h91q80 0 124.5 29
t44.5 102q0 133 -157 133q-53 0 -103 -10z" />
    <glyph glyph-name="afii10060" unicode="&#x40b;" horiz-adv-x="654" 
d="M260 614v-206q80 12 134 12q44 0 79 -7t69.5 -25t54 -56t19.5 -94v-217q0 -21 -20 -21h-53q-20 0 -20 21v213q0 68 -39.5 93t-107.5 25q-50 0 -116 -11v-320q0 -21 -20 -21h-53q-20 0 -20 21v593h-148q-16 0 -16 17v44q0 14 16 14h471q19 0 17 -17l-4 -41q-1 -17 -24 -17
h-219z" />
    <glyph glyph-name="afii10061" unicode="&#x40c;" horiz-adv-x="609" 
d="M169 317v-296q0 -21 -20 -21h-53q-20 0 -20 21v647q0 21 20 21h53q20 0 20 -21v-279h62q66 0 94.5 20t44.5 71l29 91q19 62 49.5 93t95.5 31h9q18 0 18 -16v-42q0 -18 -17 -18h-6q-30 0 -43 -20t-32 -79l-18 -58q-15 -47 -36 -74t-56 -39v-2q46 -14 86 -86l133 -236
q6 -9 3 -17t-14 -8h-63q-21 0 -30 18l-117 215q-28 52 -55.5 68t-88.5 16h-48zM406 895l20 -33q13 -17 -6 -25l-153 -79q-15 -8 -24 6l-12 20q-9 15 5 24l141 91q18 12 29 -4z" />
    <glyph glyph-name="uni040D" unicode="&#x40d;" horiz-adv-x="674" 
d="M169 201l336 409v58q0 21 20 21h53q20 0 20 -21v-647q0 -21 -20 -21h-53q-20 0 -20 21v471l-336 -406v-65q0 -21 -20 -21h-53q-20 0 -20 21v647q0 21 20 21h53q20 0 20 -21v-467zM437 786l-12 -21q-8 -13 -25 -5l-151 76q-18 9 -6 26l21 32q10 16 29 4l139 -89
q13 -9 5 -23z" />
    <glyph glyph-name="afii10062" unicode="&#x40e;" horiz-adv-x="548" 
d="M464 861q-2 -50 -44.5 -83t-115.5 -33q-72 0 -114 32t-46 84q-1 18 14 18h43q14 0 16 -17q9 -56 87 -56q80 0 87 56q4 17 17 17h41q9 0 12.5 -3.5t2.5 -14.5zM261 175l-223 494q-4 7 -1 13.5t12 6.5h68q17 0 25 -17l163 -391h2l142 390q6 18 26 18h56q19 0 11 -19
l-199 -510q-37 -95 -82.5 -132.5t-134.5 -37.5q-24 0 -47 6q-13 4 -10 19l6 39q3 15 19 14q17 -3 38 -3q88 0 118 81z" />
    <glyph glyph-name="afii10145" unicode="&#x40f;" horiz-adv-x="652" 
d="M169 76h314v592q0 21 20 21h53q20 0 20 -21v-645q0 -23 -24 -23h-183v-174q0 -20 -20 -20h-44q-20 0 -20 20v174h-185q-24 0 -24 23v645q0 21 20 21h53q20 0 20 -21v-592z" />
    <glyph glyph-name="afii10017" unicode="&#x410;" horiz-adv-x="608" 
d="M170 204l-69 -188q-5 -16 -24 -16h-55q-20 0 -12 20l251 655q5 14 18 14h53q14 0 18 -12l247 -657q8 -20 -13 -20h-64q-19 0 -24 16l-67 188h-259zM194 273h211l-103 297h-1z" />
    <glyph glyph-name="afii10018" unicode="&#x411;" horiz-adv-x="561" 
d="M436 211q0 79 -45 109.5t-123 30.5q-52 0 -99 -9v-270h89q40 0 68.5 5t55 19t40.5 43t14 72zM169 616v-209q55 10 116 10q247 0 247 -203q0 -214 -266 -214h-166q-24 0 -24 23v643q0 23 24 23h380q18 0 16 -16l-4 -42q-1 -15 -24 -15h-299z" />
    <glyph glyph-name="afii10019" unicode="&#x412;" horiz-adv-x="569" 
d="M351 369q75 -3 124 -49.5t49 -121.5q0 -198 -260 -198h-168q-21 0 -21 23v643q0 23 21 23h141q234 0 234 -168q0 -56 -31.5 -97.5t-88.5 -53.5v-1zM168 618v-223h68q144 0 144 120q0 59 -39.5 81t-108.5 22h-64zM168 71h87q38 0 66 5t54 17.5t40 39t15 65.5
q0 129 -178 129h-84v-256z" />
    <glyph glyph-name="afii10020" unicode="&#x413;" horiz-adv-x="489" 
d="M169 614v-593q0 -21 -20 -21h-53q-20 0 -20 21v645q0 23 24 23h365q19 0 17 -18l-4 -39q-1 -18 -23 -18h-286z" />
    <glyph glyph-name="afii10021" unicode="&#x414;" horiz-adv-x="669" 
d="M559 76h48q24 0 24 -23v-227q0 -20 -20 -20h-43q-20 0 -20 20v174h-457v-174q0 -20 -20 -20h-43q-20 0 -20 20v227q0 23 24 23h16q150 193 150 474v116q0 23 24 23h313q24 0 24 -23v-590zM286 614v-54q0 -291 -143 -484h323v538h-180z" />
    <glyph glyph-name="afii10022" unicode="&#x415;" horiz-adv-x="510" 
d="M169 616v-219h236q19 0 19 -16v-40q0 -16 -19 -16h-236v-252h278q19 0 19 -16v-41q0 -16 -19 -16h-350q-21 0 -21 23v643q0 23 21 23h350q20 0 17 -17l-6 -40q-2 -16 -22 -16h-267z" />
    <glyph glyph-name="afii10024" unicode="&#x416;" horiz-adv-x="904" 
d="M402 389v279q0 21 20 21h51q20 0 20 -21v-279h51q65 0 92.5 20t40.5 71l23 91q15 59 44.5 91.5t89.5 32.5h12q19 0 19 -16v-41q0 -18 -18 -18h-5q-29 0 -42.5 -18t-25.5 -66l-22 -88q-19 -76 -75 -99v-1q27 -11 43.5 -30t35.5 -57l116 -237q4 -8 1 -16t-14 -8h-61
q-21 0 -30 19l-100 214q-24 52 -50 68t-82 16h-43v-296q0 -21 -20 -21h-51q-20 0 -20 21v296h-39q-54 0 -80.5 -16.5t-50.5 -67.5l-99 -213q-8 -20 -30 -20h-58q-11 0 -14.5 7.5t1.5 16.5l115 237q18 36 34.5 54.5t43.5 31.5v1q-56 24 -75 100l-22 88q-12 48 -25 66t-42 18
h-6q-17 0 -17 18v41q0 16 19 16h12q62 0 91 -32t44 -92l23 -91q13 -50 39 -70.5t85 -20.5h51z" />
    <glyph glyph-name="afii10025" unicode="&#x417;" horiz-adv-x="518" 
d="M485 201q0 -98 -72 -154.5t-183 -56.5q-108 0 -184 34q-14 6 -9 22l15 40q6 16 23 10q77 -28 153 -28q74 0 118 34.5t44 94.5q0 72 -47.5 105t-121.5 33h-66q-17 0 -17 20v34q0 19 17 19h57q154 0 154 112q0 52 -38.5 78.5t-100.5 26.5q-79 0 -139 -27q-20 -9 -25 6
l-14 37q-5 15 9 23q77 37 180 37q97 0 159 -44t62 -128q0 -54 -29 -97t-81 -57v-2q58 -11 97 -59.5t39 -112.5z" />
    <glyph glyph-name="afii10026" unicode="&#x418;" horiz-adv-x="674" 
d="M169 201l336 409v58q0 21 20 21h53q20 0 20 -21v-647q0 -21 -20 -21h-53q-20 0 -20 21v471l-336 -406v-65q0 -21 -20 -21h-53q-20 0 -20 21v647q0 21 20 21h53q20 0 20 -21v-467z" />
    <glyph glyph-name="afii10027" unicode="&#x419;" horiz-adv-x="674" 
d="M498 861q-2 -50 -44.5 -83t-115.5 -33q-72 0 -114 32t-46 84q-1 18 14 18h43q14 0 16 -17q9 -56 87 -56q80 0 87 56q4 17 17 17h41q9 0 12.5 -3.5t2.5 -14.5zM169 201l336 409v58q0 21 20 21h53q20 0 20 -21v-647q0 -21 -20 -21h-53q-20 0 -20 21v471l-336 -406v-65
q0 -21 -20 -21h-53q-20 0 -20 21v647q0 21 20 21h53q20 0 20 -21v-467z" />
    <glyph glyph-name="afii10028" unicode="&#x41a;" horiz-adv-x="609" 
d="M169 317v-296q0 -21 -20 -21h-53q-20 0 -20 21v647q0 21 20 21h53q20 0 20 -21v-279h62q66 0 94.5 20t44.5 71l29 91q19 62 49.5 93t95.5 31h9q18 0 18 -16v-42q0 -18 -17 -18h-6q-30 0 -43 -20t-32 -79l-18 -58q-15 -47 -36 -74t-56 -39v-2q46 -14 86 -86l133 -236
q6 -9 3 -17t-14 -8h-63q-21 0 -30 18l-117 215q-28 52 -55.5 68t-88.5 16h-48z" />
    <glyph glyph-name="afii10029" unicode="&#x41b;" horiz-adv-x="643" 
d="M262 614v-57q0 -124 -8 -211t-30 -165.5t-66.5 -124.5t-111.5 -61q-20 -4 -24 13l-12 43q-5 18 14 23q34 8 60 31t41.5 61t25.5 77t14.5 95.5t6 100t1.5 105.5v125q0 20 20 20h354q20 0 20 -20v-648q0 -21 -20 -21h-53q-20 0 -20 21v593h-212z" />
    <glyph glyph-name="afii10030" unicode="&#x41c;" horiz-adv-x="838" 
d="M652 512h-2l-191 -498q-5 -14 -20 -14h-34q-16 0 -22 14l-207 498h-1l-12 -494q0 -10 -4.5 -14t-15.5 -4h-49q-19 0 -18 19l23 651q1 19 19 19h43q19 0 26 -15l240 -550h1l222 549q7 16 22 16h47q17 0 17 -16l27 -653q2 -20 -18 -20h-57q-19 0 -19 20z" />
    <glyph glyph-name="afii10031" unicode="&#x41d;" horiz-adv-x="660" 
d="M491 397v272q0 20 19 20h54q20 0 20 -20v-649q0 -20 -19 -20h-54q-20 0 -20 20v305h-322v-305q0 -20 -19 -20h-54q-20 0 -20 20v649q0 20 19 20h54q20 0 20 -20v-272h322z" />
    <glyph glyph-name="afii10032" unicode="&#x41e;" horiz-adv-x="676" 
d="M627 349q0 -166 -82.5 -262.5t-211.5 -96.5q-134 0 -209 94t-75 258q0 162 81 260.5t212 98.5q135 0 210 -96t75 -256zM529 346q0 133 -49 205.5t-140 72.5q-86 0 -139.5 -77.5t-53.5 -201.5q0 -131 50 -205t140 -74q86 0 139 76t53 204z" />
    <glyph glyph-name="afii10033" unicode="&#x41f;" horiz-adv-x="644" 
d="M169 614v-593q0 -21 -20 -21h-53q-20 0 -20 21v645q0 23 24 23h444q24 0 24 -23v-645q0 -21 -20 -21h-53q-20 0 -20 21v593h-306z" />
    <glyph glyph-name="afii10034" unicode="&#x420;" horiz-adv-x="519" 
d="M488 479q0 -110 -70 -164t-190 -54h-59v-241q0 -20 -19 -20h-54q-20 0 -20 20v646q0 23 21 23h129q121 0 191.5 -50.5t70.5 -159.5zM169 618v-286h62q78 0 120.5 33t42.5 112q0 141 -170 141h-55z" />
    <glyph glyph-name="afii10035" unicode="&#x421;" horiz-adv-x="591" 
d="M369 64q82 0 154 36q18 8 25 -9l12 -30q7 -19 -11 -28q-86 -43 -193 -43q-150 0 -228.5 99.5t-78.5 254.5q0 97 36 177t108.5 130t169.5 50q102 0 184 -45q16 -9 9 -26l-17 -36q-7 -15 -22 -7q-69 39 -148 39q-106 0 -163.5 -81.5t-57.5 -192.5q0 -123 56 -205.5
t165 -82.5z" />
    <glyph glyph-name="afii10036" unicode="&#x422;" 
d="M226 616h-190q-19 0 -19 16v41q0 16 19 16h484q20 0 17 -17l-6 -40q-2 -16 -22 -16h-190v-596q0 -20 -19 -20h-54q-20 0 -20 20v596z" />
    <glyph glyph-name="afii10037" unicode="&#x423;" horiz-adv-x="548" 
d="M261 175l-223 494q-4 7 -1 13.5t12 6.5h68q17 0 25 -17l163 -391h2l142 390q6 18 26 18h56q19 0 11 -19l-199 -510q-37 -95 -82.5 -132.5t-134.5 -37.5q-24 0 -47 6q-13 4 -10 19l6 39q3 15 19 14q17 -3 38 -3q88 0 118 81z" />
    <glyph glyph-name="afii10038" unicode="&#x424;" horiz-adv-x="709" 
d="M309 636v70q0 21 20 21h50q20 0 20 -21v-69q284 -16 284 -288q0 -138 -75.5 -211.5t-208.5 -83.5v-75q0 -21 -20 -21h-50q-20 0 -20 21v75q-142 8 -212.5 79t-70.5 210q0 134 73.5 208t209.5 85zM397 563v-435q93 8 142.5 62.5t49.5 155.5q0 104 -47 157t-145 60z
M310 128v434q-92 -9 -141 -64.5t-49 -151.5q0 -205 190 -218z" />
    <glyph glyph-name="afii10039" unicode="&#x425;" horiz-adv-x="563" 
d="M330 365l210 -341q7 -9 4 -16.5t-15 -7.5h-63q-22 0 -32 18l-155 266h-1l-155 -265q-11 -19 -35 -19h-52q-10 0 -13.5 6.5t2.5 16.5l207 334l-189 311q-5 7 -2 14t14 7h59q22 0 31 -17l139 -236h1l138 237q9 16 30 16h57q10 0 13 -5.5t-2 -13.5z" />
    <glyph glyph-name="afii10040" unicode="&#x426;" horiz-adv-x="681" 
d="M169 76h305v592q0 21 20 21h53q20 0 20 -21v-592h52q24 0 24 -23v-227q0 -20 -20 -20h-43q-20 0 -20 20v174h-460q-24 0 -24 23v645q0 21 20 21h53q20 0 20 -21v-592z" />
    <glyph glyph-name="afii10041" unicode="&#x427;" horiz-adv-x="582" 
d="M413 327v341q0 21 20 21h53q20 0 20 -21v-647q0 -21 -20 -21h-53q-20 0 -20 21v238q-80 -18 -149 -18q-110 0 -165 42q-68 50 -68 169v216q0 21 20 21h53q20 0 20 -21v-212q0 -80 38 -113q37 -32 121 -32q62 0 130 16z" />
    <glyph glyph-name="afii10042" unicode="&#x428;" horiz-adv-x="902" 
d="M169 76h236v592q0 21 20 21h53q20 0 20 -21v-592h235v592q0 21 20 21h53q20 0 20 -21v-648q0 -20 -20 -20h-710q-20 0 -20 20v648q0 21 20 21h53q20 0 20 -21v-592z" />
    <glyph glyph-name="afii10043" unicode="&#x429;" horiz-adv-x="932" 
d="M169 76h233v592q0 21 20 21h51q20 0 20 -21v-592h233v592q0 21 20 21h53q20 0 20 -21v-592h51q24 0 24 -23v-227q0 -20 -20 -20h-43q-20 0 -20 20v174h-711q-24 0 -24 23v645q0 21 20 21h53q20 0 20 -21v-592z" />
    <glyph glyph-name="afii10044" unicode="&#x42a;" horiz-adv-x="632" 
d="M172 614h-153q-16 0 -16 17v44q0 14 16 14h221q24 0 24 -23v-257q51 11 108 11q108 0 175.5 -50t67.5 -159q0 -111 -69.5 -161t-186.5 -50h-161q-26 0 -26 26v588zM264 338v-265h88q168 0 168 136q0 139 -156 139q-58 0 -100 -10z" />
    <glyph glyph-name="afii10045" unicode="&#x42b;" horiz-adv-x="776" 
d="M169 668v-259q51 11 107 11q51 0 93 -11t76.5 -34.5t53.5 -65t19 -98.5q0 -111 -69 -161t-186 -50h-162q-25 0 -25 26v642q0 21 20 21h53q20 0 20 -21zM169 338v-265h88q166 0 166 136q0 139 -154 139q-58 0 -100 -10zM700 668v-647q0 -21 -20 -21h-53q-20 0 -20 21v647
q0 21 20 21h53q20 0 20 -21z" />
    <glyph glyph-name="afii10046" unicode="&#x42c;" horiz-adv-x="551" 
d="M169 668v-259q53 11 113 11q111 0 181 -50t70 -159q0 -111 -71.5 -161t-192.5 -50h-167q-26 0 -26 26v642q0 21 20 21h53q20 0 20 -21zM169 338v-265h93q176 0 176 136q0 139 -163 139q-63 0 -106 -10z" />
    <glyph glyph-name="afii10047" unicode="&#x42d;" horiz-adv-x="576" 
d="M443 316h-309q-17 0 -17 17v46q0 15 17 15h307q-10 102 -66 165.5t-158 63.5q-76 0 -136 -22q-17 -6 -22 8l-15 43q-6 16 11 22q69 27 176 27q151 0 232 -96t81 -253q0 -160 -84 -261t-240 -101q-101 0 -174 32q-15 7 -9 22l16 42q6 14 23 7q55 -24 148 -24q99 0 156 69
t63 178z" />
    <glyph glyph-name="afii10048" unicode="&#x42e;" horiz-adv-x="873" 
d="M169 668v-276h115q11 143 85 226t188 83q127 0 197 -94.5t70 -253.5q0 -169 -77 -266t-198 -97t-190.5 87t-75.5 243h-114v-299q0 -21 -20 -21h-53q-20 0 -20 21v647q0 21 20 21h53q20 0 20 -21zM727 350q0 133 -44.5 203t-128.5 70q-79 0 -126.5 -74t-47.5 -199
q0 -136 44.5 -209t127.5 -73q80 0 127.5 75t47.5 207z" />
    <glyph glyph-name="afii10049" unicode="&#x42f;" horiz-adv-x="577" 
d="M408 279h-54q-60 0 -89 -18.5t-55 -74.5l-78 -167q-10 -19 -30 -19h-58q-25 0 -13 24l95 191q32 64 74 84q-56 14 -92 60.5t-36 122.5q0 107 67 157t184 50h157q21 0 21 -22v-646q0 -21 -20 -21h-53q-20 0 -20 21v258zM408 349v269h-88q-153 0 -153 -130q0 -139 146 -139
h95z" />
    <glyph glyph-name="afii10065" unicode="&#x430;" horiz-adv-x="543" 
d="M389 74h-2q-18 -34 -61.5 -59t-88.5 -25q-98 0 -148.5 70t-50.5 173q0 121 61.5 191t151.5 70q39 0 75.5 -16t58.5 -45l1 32q0 18 19 18h44q19 0 19 -19v-350q0 -31 3.5 -42.5t18.5 -11.5h4q17 0 17 -15v-30q0 -15 -17 -15h-40q-31 0 -48 21t-17 53zM383 162v192
q-18 33 -51 52.5t-70 19.5q-59 0 -97 -50t-38 -137q0 -81 34 -129.5t89 -48.5q45 0 81.5 30t51.5 71z" />
    <glyph glyph-name="afii10066" unicode="&#x431;" horiz-adv-x="539" 
d="M147 403q63 66 161 66q87 0 139 -58.5t52 -167.5q0 -115 -60 -184.5t-163 -69.5q-55 0 -95.5 19.5t-63.5 49.5t-37 74.5t-18 85.5t-4 91q0 108 15 178.5t57 117.5q69 80 221 97l104 12q14 2 14 -13v-47q0 -12 -15 -14l-87 -9q-139 -13 -185 -85q-28 -41 -35 -143z
M145 330v-14q0 -135 32 -197.5t102 -62.5q65 0 99 52.5t34 127.5q0 30 -6 57t-19 52.5t-39 41t-62 15.5q-80 0 -141 -72z" />
    <glyph glyph-name="afii10067" unicode="&#x432;" horiz-adv-x="488" 
d="M87 483h159q184 0 184 -118q0 -84 -83 -106v-1q51 -6 82.5 -36.5t31.5 -75.5q0 -146 -203 -146h-171q-20 0 -20 20v443q0 20 20 20zM152 426v-146h69q121 0 121 76q0 41 -31 55.5t-93 14.5h-66zM152 225v-168h84q136 0 136 84t-138 84h-82z" />
    <glyph glyph-name="afii10068" unicode="&#x433;" horiz-adv-x="378" 
d="M152 423v-403q0 -20 -20 -20h-45q-20 0 -20 20v443q0 20 20 20h268q14 0 14 -13v-34q0 -13 -15 -13h-202z" />
    <glyph glyph-name="afii10069" unicode="&#x434;" horiz-adv-x="547" 
d="M45 59q99 131 99 303v101q0 20 20 20h270q20 0 20 -20v-404h41q20 0 20 -20v-165q0 -19 -19 -19h-38q-19 0 -19 19v126h-348v-126q0 -19 -19 -19h-38q-19 0 -19 19v165q0 20 20 20h10zM226 423v-55q0 -176 -92 -308h235v363h-143z" />
    <glyph glyph-name="afii10070" unicode="&#x435;" horiz-adv-x="499" 
d="M436 229h-307q2 -74 42.5 -121.5t111.5 -47.5q75 0 123 21q17 7 22 -7l12 -33q5 -14 -10 -22q-57 -29 -158 -29q-112 0 -172 68.5t-60 183.5q0 112 62 182t168 70q94 0 145 -60t51 -152v-25q0 -18 -5.5 -23t-24.5 -5zM131 287h251v18q0 54 -30 88.5t-86 34.5
q-59 0 -94 -40t-41 -101z" />
    <glyph glyph-name="afii10072" unicode="&#x436;" horiz-adv-x="696" 
d="M388 271h23q48 0 71.5 17t31.5 57l11 54q9 44 31.5 67t76.5 23h12q14 0 14 -13v-36q0 -13 -14 -13h-7q-33 0 -44 -55l-11 -53q-13 -63 -61 -80v-2q38 -13 63 -65l75 -150q11 -22 -7 -22h-60q-18 0 -26 17l-62 130q-17 37 -37 50t-60 14h-20v-191q0 -20 -20 -20h-44
q-20 0 -20 20v191h-21q-39 -1 -58 -14t-37 -50l-61 -130q-8 -17 -26 -17h-56q-20 0 -9 20l76 152q23 46 61 64v2q-47 18 -61 81l-12 53q-7 29 -16 42t-27 13h-6q-15 0 -15 13v36q0 13 15 13h11q55 0 78 -23.5t32 -66.5l11 -54q8 -38 30 -56t66 -18h25v193q0 20 20 20h44
q20 0 20 -20v-193z" />
    <glyph glyph-name="afii10073" unicode="&#x437;" horiz-adv-x="434" 
d="M398 141q0 -73 -58 -112t-157 -39q-77 0 -143 26q-14 5 -9 19l14 33q6 13 21 8q58 -23 122 -23q54 0 85.5 23t31.5 64q0 44 -35 65t-93 21h-52q-14 0 -14 13v36q0 12 14 12h54q107 0 107 75q0 69 -96 69q-59 0 -110 -23q-14 -6 -19 6l-14 29q-7 14 8 20q62 31 146 31
q83 0 131 -30.5t48 -94.5q0 -86 -81 -109v-2q47 -10 73 -40.5t26 -76.5z" />
    <glyph glyph-name="afii10074" unicode="&#x438;" horiz-adv-x="539" 
d="M152 163l235 256v44q0 20 20 20h45q20 0 20 -20v-443q0 -20 -20 -20h-45q-20 0 -20 20v303l-235 -254v-49q0 -20 -20 -20h-45q-20 0 -20 20v443q0 20 20 20h45q20 0 20 -20v-300z" />
    <glyph glyph-name="afii10075" unicode="&#x439;" horiz-adv-x="539" 
d="M141 684h41q14 0 16 -14q2 -27 22 -45t54 -18q35 0 54.5 17.5t22.5 45.5q1 14 16 14h40q13 0 13 -15q-6 -50 -43 -83t-104 -33q-65 0 -103.5 32.5t-41.5 83.5q0 15 13 15zM152 163l235 256v44q0 20 20 20h45q20 0 20 -20v-443q0 -20 -20 -20h-45q-20 0 -20 20v303
l-235 -254v-49q0 -20 -20 -20h-45q-20 0 -20 20v443q0 20 20 20h45q20 0 20 -20v-300z" />
    <glyph glyph-name="afii10076" unicode="&#x43a;" horiz-adv-x="500" 
d="M152 271h47q51 1 75 18t37 56l18 55q10 30 18.5 46t32 29.5t60.5 13.5h12q14 0 14 -13v-36q0 -13 -15 -13h-6q-18 0 -27 -13t-19 -42l-17 -53q-21 -65 -74 -81v-2q39 -15 69 -64l91 -149q6 -10 3.5 -16.5t-12.5 -6.5h-54q-19 0 -31 19l-75 128q-23 39 -43.5 51.5
t-64.5 12.5h-39v-191q0 -20 -20 -20h-45q-20 0 -20 20v443q0 20 20 20h45q20 0 20 -20v-192z" />
    <glyph glyph-name="afii10077" unicode="&#x43b;" horiz-adv-x="521" 
d="M217 423v-72q0 -71 -6.5 -124.5t-24.5 -106t-54.5 -84.5t-90.5 -40q-16 -4 -19 10l-7 38q-3 15 12 18q109 22 109 272v129q0 20 20 20h278q20 0 20 -20v-443q0 -20 -20 -20h-45q-20 0 -20 20v403h-152z" />
    <glyph glyph-name="afii10078" unicode="&#x43c;" horiz-adv-x="644" 
d="M325 89h2l136 376q6 18 24 18h64q19 0 20 -20l16 -444q0 -19 -19 -19h-41q-19 0 -19 19l-7 360h-2l-125 -361q-7 -18 -22 -18h-54q-16 0 -23 18l-130 361h-2l-7 -360q0 -19 -19 -19h-40q-20 0 -19 19l17 444q1 20 20 20h68q17 0 23 -18z" />
    <glyph glyph-name="afii10079" unicode="&#x43d;" horiz-adv-x="537" 
d="M385 287v176q0 20 20 20h45q20 0 20 -20v-443q0 -20 -20 -20h-45q-20 0 -20 20v203h-233v-203q0 -20 -20 -20h-45q-20 0 -20 20v443q0 20 20 20h45q20 0 20 -20v-176h233z" />
    <glyph glyph-name="afii10080" unicode="&#x43e;" horiz-adv-x="535" 
d="M495 242q0 -110 -61.5 -181t-169.5 -71q-111 0 -167.5 70t-56.5 183q0 110 61 180.5t169 70.5q112 0 168.5 -69t56.5 -183zM407 241q0 79 -33 133t-105 54q-74 0 -107.5 -53t-33.5 -130q0 -80 32 -134.5t105 -54.5t107.5 53.5t34.5 131.5z" />
    <glyph glyph-name="afii10081" unicode="&#x43f;" horiz-adv-x="528" 
d="M376 423h-224v-403q0 -20 -20 -20h-45q-20 0 -20 20v443q0 20 20 20h354q20 0 20 -20v-443q0 -20 -20 -20h-45q-20 0 -20 20v403z" />
    <glyph glyph-name="afii10082" unicode="&#x440;" horiz-adv-x="541" 
d="M501 246q0 -107 -57 -181.5t-160 -74.5q-38 0 -74 14.5t-58 41.5v-240q0 -21 -20 -21h-45q-20 0 -20 21v657q0 20 19 20h41q19 0 19 -18l1 -35q24 29 65 46.5t84 17.5q101 0 153 -71.5t52 -176.5zM412 244q0 77 -31 129.5t-102 52.5q-35 0 -71.5 -18.5t-55.5 -45.5v-235
q16 -30 50.5 -50t70.5 -20q71 0 105 55t34 132z" />
    <glyph glyph-name="afii10083" unicode="&#x441;" horiz-adv-x="440" 
d="M417 444l-11 -31q-5 -15 -21 -8q-51 23 -102 23q-71 0 -113 -49.5t-42 -133.5q0 -83 37.5 -136.5t113.5 -53.5q59 0 111 23q15 6 20 -8l9 -28q5 -16 -11 -24q-60 -28 -135 -28q-114 0 -173.5 67.5t-59.5 183.5q0 112 64 182.5t175 70.5q73 0 129 -29q14 -8 9 -21z" />
    <glyph glyph-name="afii10084" unicode="&#x442;" horiz-adv-x="426" 
d="M171 423h-147q-15 0 -15 13v34q0 13 14 13h380q14 0 14 -13v-34q0 -13 -15 -13h-146v-403q0 -20 -20 -20h-45q-20 0 -20 20v403z" />
    <glyph glyph-name="afii10085" unicode="&#x443;" horiz-adv-x="478" 
d="M253 96l126 371q5 16 25 16h48q20 0 13 -20l-193 -521q-33 -90 -77.5 -126t-124.5 -36q-24 0 -46 6q-14 4 -12 18l7 40q3 14 16 13q28 -4 38 -4q78 0 109 76l25 63l-179 473q-7 18 14 18h57q20 0 24 -14z" />
    <glyph glyph-name="afii10086" unicode="&#x444;" horiz-adv-x="629" 
d="M118 242q0 -77 39 -127t116 -58v370q-77 -7 -116 -57.5t-39 -127.5zM511 242q0 77 -39 127.5t-116 57.5v-370q77 8 116 58t39 127zM356 -9v-186q0 -20 -20 -20h-43q-20 0 -20 20v186q-114 10 -177.5 79t-63.5 172t63.5 172t177.5 79v192q0 18 15 21l50 6q18 2 18 -16
v-203q114 -10 177.5 -79t63.5 -172t-63.5 -172t-177.5 -79z" />
    <glyph glyph-name="afii10087" unicode="&#x445;" horiz-adv-x="470" 
d="M240 317h1l103 152q10 14 26 14h53q11 0 13.5 -5.5t-4.5 -14.5l-149 -203l163 -238q6 -9 3 -15.5t-14 -6.5h-59q-22 0 -32 16l-112 179h-1l-117 -180q-9 -15 -29 -15h-57q-7 0 -9 6t3 13l167 232l-142 212q-5 7 -2 13.5t12 6.5h60q18 0 26 -14z" />
    <glyph glyph-name="afii10088" unicode="&#x446;" horiz-adv-x="549" 
d="M152 60h219v403q0 20 20 20h45q20 0 20 -20v-404h41q20 0 20 -20v-165q0 -19 -19 -19h-38q-19 0 -19 19v126h-354q-20 0 -20 20v443q0 20 20 20h45q20 0 20 -20v-403z" />
    <glyph glyph-name="afii10089" unicode="&#x447;" horiz-adv-x="485" 
d="M333 242v221q0 20 20 20h45q20 0 20 -20v-443q0 -20 -20 -20h-45q-20 0 -20 20v155q-65 -25 -142 -25q-87 0 -122.5 44t-35.5 131v138q0 20 20 20h45q20 0 20 -20v-126q0 -59 18.5 -86.5t81.5 -27.5q60 0 115 19z" />
    <glyph glyph-name="afii10090" unicode="&#x448;" horiz-adv-x="753" 
d="M152 60h183v403q0 20 20 20h43q20 0 20 -20v-403h183v403q0 20 20 20h45q20 0 20 -20v-447q0 -16 -17 -16h-582q-20 0 -20 20v443q0 20 20 20h45q20 0 20 -20v-403z" />
    <glyph glyph-name="afii10091" unicode="&#x449;" horiz-adv-x="759" 
d="M152 60h173v403q0 20 20 20h44q20 0 20 -20v-403h172v403q0 20 20 20h45q20 0 20 -20v-404h41q20 0 20 -20v-165q0 -19 -19 -19h-38q-19 0 -19 19v126h-564q-20 0 -20 20v443q0 20 20 20h45q20 0 20 -20v-403z" />
    <glyph glyph-name="afii10092" unicode="&#x44a;" horiz-adv-x="575" 
d="M164 423h-147q-15 0 -15 13v34q0 13 14 13h213q20 0 20 -20v-173q56 15 111 15q52 0 93.5 -12t72.5 -47t31 -89q0 -47 -22 -81t-60 -52t-79.5 -26t-89.5 -8q-64 0 -120 10q-22 4 -22 25v398zM248 228v-171q30 -5 67 -5q28 0 52.5 4t48.5 14t38 30.5t14 48.5
q0 50 -39.5 71t-94.5 21q-41 0 -86 -13z" />
    <glyph glyph-name="afii10093" unicode="&#x44b;" horiz-adv-x="683" 
d="M616 463v-443q0 -20 -20 -20h-45q-20 0 -20 20v443q0 20 20 20h45q20 0 20 -20zM152 463v-173q56 15 110 15q82 0 139 -34.5t57 -113.5q0 -47 -22 -81t-59.5 -52t-79.5 -26t-89 -8q-63 0 -119 10q-22 4 -22 25v438q0 20 20 20h45q20 0 20 -20zM151 228v-171q30 -5 67 -5
q27 0 51 4t48 14t38 30.5t14 48.5q0 50 -39 71t-93 21q-41 0 -86 -13z" />
    <glyph glyph-name="afii10094" unicode="&#x44c;" horiz-adv-x="485" 
d="M152 463v-173q58 15 114 15q39 0 73 -7.5t64.5 -23.5t48 -46t17.5 -71q0 -47 -22.5 -81t-61.5 -52t-81.5 -26t-91.5 -8q-66 0 -123 10q-22 4 -22 25v438q0 20 20 20h45q20 0 20 -20zM151 228v-171q32 -5 70 -5q29 0 54 4t50 14t40 30.5t15 48.5q0 50 -41 71t-98 21
q-44 0 -90 -13z" />
    <glyph glyph-name="afii10095" unicode="&#x44d;" horiz-adv-x="468" 
d="M346 220h-232q-14 0 -14 13v41q0 12 14 12h229q-9 65 -49 103.5t-115 38.5q-61 0 -108 -18q-14 -4 -17 8l-10 38q-3 11 12 16q60 22 129 22q119 0 184 -67t65 -180q0 -116 -68 -186.5t-191 -70.5q-69 0 -129 22q-14 5 -10 17l11 37q3 13 18 7q43 -17 108 -17
q80 0 124.5 41.5t48.5 122.5z" />
    <glyph glyph-name="afii10096" unicode="&#x44e;" horiz-adv-x="709" 
d="M670 242q0 -110 -55.5 -181t-159.5 -71q-99 0 -149.5 63t-56.5 167h-97v-200q0 -20 -20 -20h-45q-20 0 -20 20v443q0 20 20 20h45q20 0 20 -20v-182h98q10 95 64 154.5t148 59.5q107 0 157.5 -69.5t50.5 -183.5zM583 242q0 80 -28.5 132.5t-93.5 52.5q-66 0 -96.5 -51.5
t-30.5 -130.5q0 -81 28.5 -134t94.5 -53q65 0 95.5 52t30.5 132z" />
    <glyph glyph-name="afii10097" unicode="&#x44f;" horiz-adv-x="499" 
d="M347 202h-63q-39 0 -59 -14t-39 -52l-62 -119q-8 -17 -25 -17h-58q-20 0 -9 20l76 137q23 43 52 56v1q-98 24 -98 123q0 78 53 113q46 33 157 33h140q20 0 20 -20v-443q0 -20 -20 -20h-45q-20 0 -20 20v182zM347 260v163h-83q-55 0 -84.5 -18t-29.5 -63q0 -46 29.5 -64
t83.5 -18h84z" />
    <glyph glyph-name="uni0450" unicode="&#x450;" horiz-adv-x="499" 
d="M436 229h-307q2 -74 42.5 -121.5t111.5 -47.5q75 0 123 21q17 7 22 -7l12 -33q5 -14 -10 -22q-57 -29 -158 -29q-112 0 -172 68.5t-60 183.5q0 112 62 182t168 70q94 0 145 -60t51 -152v-25q0 -18 -5.5 -23t-24.5 -5zM131 287h251v18q0 54 -30 88.5t-86 34.5
q-59 0 -94 -40t-41 -101zM356 586l-12 -21q-8 -13 -25 -5l-151 76q-18 9 -6 26l21 32q10 16 29 4l139 -89q13 -9 5 -23z" />
    <glyph glyph-name="afii10071" unicode="&#x451;" horiz-adv-x="499" 
d="M436 229h-307q2 -74 42.5 -121.5t111.5 -47.5q75 0 123 21q17 7 22 -7l12 -33q5 -14 -10 -22q-57 -29 -158 -29q-112 0 -172 68.5t-60 183.5q0 112 62 182t168 70q94 0 145 -60t51 -152v-25q0 -18 -5.5 -23t-24.5 -5zM131 287h251v18q0 54 -30 88.5t-86 34.5
q-59 0 -94 -40t-41 -101zM177 681q21 0 35.5 -13t14.5 -35q0 -23 -15 -36t-36 -13t-36 13t-15 35q0 23 15 36t37 13zM354 681q21 0 35.5 -13t14.5 -35q0 -23 -15 -36t-36 -13t-36 13t-15 35q0 23 15 36t37 13z" />
    <glyph glyph-name="afii10099" unicode="&#x452;" horiz-adv-x="539" 
d="M83 621v63q0 18 15 21l52 6q18 2 18 -16v-74h184q14 0 14 -13v-33q0 -13 -15 -13h-183v-144q52 46 134 46q98 0 148.5 -80t50.5 -202q0 -127 -56.5 -206t-167.5 -79h-13q-16 0 -15 15l3 42q1 14 15 14h8q71 0 104.5 61t33.5 149q0 95 -31 154t-100 59q-66 0 -114 -43
v-328q0 -20 -20 -20h-45q-20 0 -20 20v542h-55q-15 0 -15 13v33q0 13 14 13h56z" />
    <glyph glyph-name="afii10100" unicode="&#x453;" horiz-adv-x="378" 
d="M307 692l20 -33q13 -17 -6 -25l-153 -79q-15 -7 -24 6l-12 20q-9 15 5 24l141 91q18 12 29 -4zM152 423v-403q0 -20 -20 -20h-45q-20 0 -20 20v443q0 20 20 20h268q14 0 14 -13v-34q0 -13 -15 -13h-202z" />
    <glyph glyph-name="afii10101" unicode="&#x454;" horiz-adv-x="466" 
d="M127 288h236q15 0 15 -13v-40q0 -14 -15 -14h-238q5 -74 46 -119.5t122 -45.5q55 0 109 19q15 6 18 -8l11 -33q3 -12 -11 -17q-62 -27 -138 -27q-120 0 -182.5 65.5t-62.5 183.5q0 116 68 186.5t189 70.5q75 0 124 -22q12 -6 9 -16l-10 -36q-4 -13 -17 -8q-49 18 -109 18
q-70 0 -112.5 -38t-51.5 -106z" />
    <glyph glyph-name="afii10102" unicode="&#x455;" horiz-adv-x="401" 
d="M208 209l-67 26q-100 39 -100 126q0 63 48 98t118 35q71 0 129 -27q13 -6 9 -19l-12 -33q-4 -14 -20 -8q-55 24 -104 24q-42 0 -63.5 -18.5t-21.5 -45.5q0 -24 15.5 -38.5t49.5 -29.5l77 -33q101 -42 101 -127q0 -68 -51 -108.5t-132 -40.5q-75 0 -137 32q-14 8 -9 20
l13 34q5 15 19 9q68 -30 116 -30q44 0 70.5 20.5t26.5 55.5q0 28 -18.5 46t-56.5 32z" />
    <glyph glyph-name="afii10103" unicode="&#x456;" horiz-adv-x="235" 
d="M117 649q22 0 37 -13.5t15 -34.5t-14.5 -34.5t-36.5 -13.5t-37 13.5t-15 34.5t14.5 34.5t36.5 13.5zM160 463v-442q0 -21 -20 -21h-45q-20 0 -20 21v442q0 20 20 20h46q19 0 19 -20z" />
    <glyph glyph-name="afii10104" unicode="&#x457;" horiz-adv-x="235" 
d="M32 680q21 0 35.5 -13t14.5 -35q0 -23 -15 -36t-36 -13t-36 13t-15 35q0 23 15 36t37 13zM209 680q21 0 35.5 -13t14.5 -35q0 -23 -15 -36t-36 -13t-36 13t-15 35q0 23 15 36t37 13zM160 463v-442q0 -21 -20 -21h-45q-20 0 -20 21v442q0 20 20 20h46q19 0 19 -20z" />
    <glyph glyph-name="afii10105" unicode="&#x458;" horiz-adv-x="262" 
d="M186 464v-440q0 -119 -40.5 -181.5t-145.5 -62.5q-33 0 -56 6q-15 4 -12 17l6 37q3 15 16 11q22 -5 49 -5q26 0 44 9t28.5 23t16.5 37t7.5 44.5t1.5 51.5v453q0 19 19 19h48q18 0 18 -19zM144 649q22 0 37 -13.5t15 -34.5t-14.5 -34.5t-36.5 -13.5t-37 13.5t-15 34.5
t14.5 34.5t36.5 13.5z" />
    <glyph glyph-name="afii10106" unicode="&#x459;" horiz-adv-x="770" 
d="M452 230v-173q30 -5 65 -5q37 0 67.5 7t55.5 30.5t25 60.5q0 50 -38 70.5t-92 20.5q-45 0 -83 -11zM216 423v-72q0 -56 -3.5 -100t-15 -91t-30 -79t-51.5 -55.5t-77 -29.5q-15 -3 -18 10l-8 39q-3 12 11 17q65 13 88 87t23 185v129q0 20 20 20h278q20 0 20 -20v-171
q47 13 108 13q37 0 69.5 -7t61 -23t45.5 -46t17 -71q0 -62 -39 -101.5t-91.5 -53t-116.5 -13.5q-60 0 -117 10q-22 4 -22 25v398h-152z" />
    <glyph glyph-name="afii10107" unicode="&#x45a;" horiz-adv-x="774" 
d="M152 285h221v178q0 20 20 20h45q20 0 20 -20v-170q47 13 108 13q37 0 69 -7.5t60.5 -23.5t45.5 -46t17 -71q0 -62 -39 -101.5t-91 -53.5t-116 -14q-53 0 -116 10q-23 4 -23 28v197h-221v-204q0 -20 -20 -20h-45q-20 0 -20 20v443q0 20 20 20h45q20 0 20 -20v-178z
M457 231v-175q28 -5 64 -5q37 0 68 7t56 30.5t25 60.5q0 50 -38 70.5t-92 20.5q-49 0 -83 -9z" />
    <glyph glyph-name="afii10108" unicode="&#x45b;" horiz-adv-x="558" 
d="M80 621v63q0 18 15 21l53 6q18 2 18 -16v-74h176q15 0 15 -12v-33q0 -14 -15 -14h-176v-160q28 27 73 44.5t91 17.5q81 0 121.5 -47t40.5 -131v-266q0 -20 -20 -20h-45q-20 0 -20 20v249q0 118 -99 118q-81 0 -143 -60v-307q0 -20 -20 -20h-45q-20 0 -20 20v542h-55
q-15 0 -15 14v33q0 12 15 12h55z" />
    <glyph glyph-name="afii10109" unicode="&#x45c;" horiz-adv-x="500" 
d="M347 692l20 -33q13 -17 -6 -25l-153 -79q-15 -7 -24 6l-12 20q-9 15 5 24l141 91q18 12 29 -4zM152 271h47q51 1 75 18t37 56l18 55q10 30 18.5 46t32 29.5t60.5 13.5h12q14 0 14 -13v-36q0 -13 -15 -13h-6q-18 0 -27 -13t-19 -42l-17 -53q-21 -65 -74 -81v-2
q39 -15 69 -64l91 -149q6 -10 3.5 -16.5t-12.5 -6.5h-54q-19 0 -31 19l-75 128q-23 39 -43.5 51.5t-64.5 12.5h-39v-191q0 -20 -20 -20h-45q-20 0 -20 20v443q0 20 20 20h45q20 0 20 -20v-192z" />
    <glyph glyph-name="uni045D" unicode="&#x45d;" horiz-adv-x="539" 
d="M353 586l-12 -21q-8 -13 -25 -5l-151 76q-18 9 -6 26l21 32q10 16 29 4l139 -89q13 -9 5 -23zM152 163l235 256v44q0 20 20 20h45q20 0 20 -20v-443q0 -20 -20 -20h-45q-20 0 -20 20v303l-235 -254v-49q0 -20 -20 -20h-45q-20 0 -20 20v443q0 20 20 20h45q20 0 20 -20
v-300z" />
    <glyph glyph-name="afii10110" unicode="&#x45e;" horiz-adv-x="478" 
d="M116 684h41q14 0 16 -14q2 -27 22 -45t54 -18q35 0 54.5 17.5t22.5 45.5q1 14 16 14h40q13 0 13 -15q-6 -50 -43 -83t-104 -33q-65 0 -103.5 32.5t-41.5 83.5q0 15 13 15zM253 96l126 371q5 16 25 16h48q20 0 13 -20l-193 -521q-33 -90 -77.5 -126t-124.5 -36
q-24 0 -46 6q-14 4 -12 18l7 40q3 14 16 13q28 -4 38 -4q78 0 109 76l25 63l-179 473q-7 18 14 18h57q20 0 24 -14z" />
    <glyph glyph-name="afii10193" unicode="&#x45f;" horiz-adv-x="540" 
d="M152 60h236v403q0 20 20 20h45q20 0 20 -20v-447q0 -16 -16 -16h-149v-126q0 -19 -19 -19h-38q-19 0 -19 19v126h-149q-16 0 -16 16v447q0 20 20 20h45q20 0 20 -20v-403z" />
    <glyph glyph-name="afii10146" unicode="&#x462;" horiz-adv-x="606" 
d="M217 548v-153q49 9 111 9q107 0 176 -48.5t69 -153.5t-70 -153.5t-188 -48.5h-164q-26 0 -26 26v522h-101q-16 0 -16 17v41q0 14 16 14h101v99q0 21 20 21h52q20 0 20 -21v-99h233q9 0 13.5 -4t3.5 -12l-4 -39q-2 -17 -21 -17h-225zM217 326v-254h89q173 0 173 127
q0 134 -160 134q-67 0 -102 -7z" />
    <glyph glyph-name="afii10194" unicode="&#x463;" horiz-adv-x="536" 
d="M184 248v-191q32 -5 72 -5q41 0 74.5 7.5t61 32.5t27.5 66q0 55 -42 78t-101 23q-44 0 -92 -11zM100 426h-69q-15 0 -15 13v32q0 12 14 12h70v201q0 20 15 21l57 7q6 1 9.5 -3t3.5 -11v-215h181q14 0 14 -12v-32q0 -13 -14 -13h-181v-116q59 13 116 13q40 0 74.5 -7.5
t65.5 -24.5t49 -49t18 -76q0 -65 -41.5 -106.5t-96.5 -55.5t-123 -14q-66 0 -125 10q-22 4 -22 25v401z" />
    <glyph glyph-name="afii10147" unicode="&#x472;" horiz-adv-x="673" 
d="M621 349q0 -178 -77 -268.5t-212 -90.5q-280 0 -280 353q0 174 75 266t213 92q281 0 281 -352zM336 65q87 0 135.5 63.5t52.5 188.5h-376q4 -128 50 -190t138 -62zM338 625q-86 0 -134 -61.5t-55 -176.5h375q-6 122 -51 180t-135 58z" />
    <glyph glyph-name="afii10195" unicode="&#x473;" horiz-adv-x="539" 
d="M499 242q0 -109 -62 -180.5t-171 -71.5q-112 0 -169 70t-57 183q0 109 61.5 180t170.5 71q112 0 169.5 -69t57.5 -183zM267 56q66 0 101 44t42 113h-281q7 -69 40 -113t98 -44zM271 428q-67 0 -101.5 -44t-40.5 -111h280q-6 67 -40 111t-98 44z" />
    <glyph glyph-name="afii10148" unicode="&#x474;" horiz-adv-x="661" 
d="M306 123h2l115 367q34 107 84.5 156t135.5 49q18 0 18 -17v-42q0 -18 -18 -18q-51 0 -81 -35t-60 -125l-147 -439q-6 -19 -26 -19h-50q-19 0 -27 21l-235 648q-7 20 11 20h64q20 0 25 -15z" />
    <glyph glyph-name="afii10196" unicode="&#x475;" horiz-adv-x="482" 
d="M227 109h1l26 84l51 158q22 68 61.5 103t107.5 35q13 0 13 -12v-34q0 -13 -13 -13q-36 0 -60.5 -28t-43.5 -82l-106 -305q-5 -15 -20 -15h-37q-16 0 -22 14l-169 452q-6 17 12 17h59q17 0 21 -15l94 -275z" />
    <glyph glyph-name="afii10050" unicode="&#x490;" horiz-adv-x="509" 
d="M168 615v-594q0 -21 -20 -21h-52q-20 0 -20 21v645q0 23 24 23h320v166q0 17 17 20l47 7q20 3 20 -16v-228q0 -23 -24 -23h-312z" />
    <glyph glyph-name="afii10098" unicode="&#x491;" horiz-adv-x="414" 
d="M152 423v-403q0 -20 -20 -20h-45q-20 0 -20 20v443q0 20 20 20h238v120q0 16 13 18l48 6q15 2 15 -14v-170q0 -20 -20 -20h-229z" />
    <glyph glyph-name="uni0492" unicode="&#x492;" horiz-adv-x="510" 
d="M22 377h75v289q0 23 24 23h365q19 0 17 -18l-4 -39q-1 -18 -23 -18h-286v-237h143q12 0 15.5 -4.5t3.5 -17.5v-27q0 -12 -3.5 -16.5t-15.5 -4.5h-143v-286q0 -21 -20 -21h-53q-20 0 -20 21v286h-75q-12 0 -15.5 4.5t-3.5 16.5v27q0 13 3.5 17.5t15.5 4.5z" />
    <glyph glyph-name="uni0493" unicode="&#x493;" horiz-adv-x="412" 
d="M290 204h-107v-184q0 -20 -20 -20h-45q-20 0 -20 20v184h-59q-15 0 -15 13v34q0 13 14 13h60v199q0 20 20 20h268q14 0 14 -13v-34q0 -13 -15 -13h-202v-159h108q14 0 14 -13v-34q0 -13 -15 -13z" />
    <glyph glyph-name="uni049A" unicode="&#x49a;" horiz-adv-x="596" 
d="M487 0h-15q-21 0 -30 19l-100 214q-24 52 -50 68t-82 16h-43v-296q0 -21 -20 -21h-51q-20 0 -20 21v647q0 21 20 21h51q20 0 20 -21v-279h51q65 0 92.5 20t40.5 71l23 91q15 59 44.5 91.5t89.5 32.5h12q19 0 19 -16v-41q0 -18 -18 -18h-5q-29 0 -42.5 -18t-25.5 -66
l-22 -88q-19 -76 -75 -99v-1q27 -11 43.5 -30t35.5 -57l90 -185h26q24 0 24 -23v-227q0 -20 -20 -20h-43q-20 0 -20 20v174z" />
    <glyph glyph-name="uni049B" unicode="&#x49b;" horiz-adv-x="480" 
d="M378 0h-11q-18 0 -26 17l-62 130q-17 37 -37 50t-60 14h-31v-191q0 -20 -20 -20h-44q-20 0 -20 20v444q0 20 20 20h44q20 0 20 -20v-193h34q48 0 71.5 17t31.5 57l11 54q9 44 31.5 67t76.5 23h12q14 0 14 -13v-36q0 -13 -14 -13h-7q-33 0 -44 -55l-11 -53
q-13 -63 -61 -80v-2q38 -13 63 -65l56 -113h19q20 0 20 -20v-165q0 -19 -19 -19h-38q-19 0 -19 19v126z" />
    <glyph glyph-name="uni04A2" unicode="&#x4a2;" horiz-adv-x="705" 
d="M491 397v272q0 20 19 20h54q20 0 20 -20v-593h59q24 0 24 -23v-227q0 -20 -20 -20h-43q-20 0 -20 20v174h-73q-20 0 -20 20v305h-322v-305q0 -20 -19 -20h-54q-20 0 -20 20v649q0 20 19 20h54q20 0 20 -20v-272h322z" />
    <glyph glyph-name="uni04A3" unicode="&#x4a3;" horiz-adv-x="549" 
d="M385 287v176q0 20 20 20h45q20 0 20 -20v-404h19q20 0 20 -20v-165q0 -19 -19 -19h-38q-19 0 -19 19v126h-28q-20 0 -20 20v203h-233v-203q0 -20 -20 -20h-45q-20 0 -20 20v443q0 20 20 20h45q20 0 20 -20v-176h233z" />
    <glyph glyph-name="uni04AE" unicode="&#x4ae;" 
d="M234 20v250l-212 395q-6 10 -3 17t15 7h57q21 0 30 -17l164 -324h1l159 324q9 17 29 17h43q23 0 13 -21l-203 -396v-252q0 -20 -19 -20h-54q-20 0 -20 20z" />
    <glyph glyph-name="uni04AF" unicode="&#x4af;" horiz-adv-x="471" 
d="M453 463l-172 -464v-193q0 -21 -20 -21h-45q-20 0 -20 21v193l-180 466q-7 18 14 18h57q20 0 24 -14l130 -373l126 371q5 16 25 16h48q20 0 13 -20z" />
    <glyph glyph-name="uni04B0" unicode="&#x4b0;" horiz-adv-x="563" 
d="M240 20v207h-120q-12 0 -15.5 4.5t-3.5 16.5v27q0 13 3.5 17.5t15.5 4.5h105l-197 368q-6 10 -3 17t15 7h57q21 0 30 -17l164 -324h1l159 324q9 17 29 17h43q23 0 13 -21l-190 -371h108q12 0 15.5 -4.5t3.5 -17.5v-27q0 -12 -3.5 -16.5t-15.5 -4.5h-121v-207
q0 -20 -19 -20h-54q-20 0 -20 20z" />
    <glyph glyph-name="uni04B1" unicode="&#x4b1;" horiz-adv-x="471" 
d="M93 26h92l-169 439q-7 18 14 18h57q20 0 24 -14l130 -373l126 371q5 16 25 16h48q20 0 13 -20l-162 -437h93q14 0 14 -13v-34q0 -13 -15 -13h-102v-160q0 -21 -20 -21h-45q-20 0 -20 21v160h-102q-15 0 -15 13v34q0 13 14 13z" />
    <glyph glyph-name="uni04BA" unicode="&#x4ba;" horiz-adv-x="593" 
d="M169 668v-238q80 12 140 12q44 0 79 -7t69.5 -25t54 -56t19.5 -94v-239q0 -21 -20 -21h-53q-20 0 -20 21v235q0 68 -39.5 93t-107.5 25q-56 0 -122 -11v-342q0 -21 -20 -21h-53q-20 0 -20 21v647q0 21 20 21h53q20 0 20 -21z" />
    <glyph glyph-name="uni04BB" unicode="&#x4bb;" horiz-adv-x="538" 
d="M152 365v-344q0 -21 -20 -21h-45q-20 0 -20 21v662q0 19 15 21l50 7q20 3 20 -17v-259q67 59 164 59q157 0 157 -179v-294q0 -21 -20 -21h-45q-20 0 -20 21v280q0 59 -21 90.5t-76 31.5q-34 0 -73 -16.5t-66 -41.5z" />
    <glyph glyph-name="uni04D8" unicode="&#x4d8;" horiz-adv-x="657" 
d="M70 366h439q-6 113 -61 187t-153 74q-84 0 -163 -37q-18 -8 -25 9l-12 30q-7 19 11 28q88 44 195 44q149 0 228 -101t79 -253q0 -99 -28 -177t-93 -129t-161 -51q-137 0 -207 95t-70 258q0 13 4.5 18t16.5 5zM508 296h-369q5 -103 51 -167t134 -64q86 0 132 64t52 167z
" />
    <glyph glyph-name="afii10846" unicode="&#x4d9;" horiz-adv-x="506" 
d="M70 255h307q-2 74 -42.5 121.5t-111.5 47.5q-75 0 -123 -21q-17 -7 -22 7l-12 33q-5 14 10 22q57 29 158 29q112 0 172 -68.5t60 -183.5q0 -112 -62 -182t-168 -70q-94 0 -145 60t-51 152v25q0 18 5.5 23t24.5 5zM375 197h-251v-18q0 -54 30 -88.5t86 -34.5q59 0 94 40
t41 101z" />
    <glyph glyph-name="uni04E8" unicode="&#x4e8;" horiz-adv-x="676" 
d="M627 349q0 -166 -82.5 -262.5t-211.5 -96.5q-134 0 -209 94t-75 258q0 162 81 260.5t212 98.5q135 0 210 -96t75 -256zM337 66q79 0 131.5 66.5t59.5 180.5h-380q6 -117 55.5 -182t133.5 -65zM340 624q-80 0 -132.5 -67.5t-59.5 -178.5h380q-5 117 -54 181.5t-134 64.5z
" />
    <glyph glyph-name="uni04E9" unicode="&#x4e9;" horiz-adv-x="535" 
d="M495 242q0 -110 -61.5 -181t-169.5 -71q-111 0 -167.5 70t-56.5 183q0 110 61 180.5t169 70.5q112 0 168.5 -69t56.5 -183zM269 428q-68 0 -101.5 -44.5t-38.5 -112.5h277q-6 69 -39 113t-98 44zM265 56q65 0 99.5 43.5t41.5 111.5h-277q7 -69 39 -112t97 -43z" />
    <glyph glyph-name="Wgrave" unicode="&#x1e80;" horiz-adv-x="899" 
d="M638 142h2l143 528q5 19 25 19h55q21 0 14 -21l-193 -652q-5 -16 -23 -16h-50q-19 0 -24 17l-137 523h-1l-138 -523q-5 -17 -24 -17h-49q-19 0 -23 16l-191 648q-8 25 15 25h63q21 0 26 -19l141 -528h1l136 530q5 17 24 17h45q20 0 24 -17zM535 786l-12 -21
q-8 -13 -25 -5l-151 76q-18 9 -6 26l21 32q10 16 29 4l139 -89q13 -9 5 -23z" />
    <glyph glyph-name="wgrave" unicode="&#x1e81;" horiz-adv-x="691" 
d="M494 98h2l94 368q5 17 24 17h47q18 0 12 -20l-132 -445q-6 -18 -24 -18h-54q-19 0 -24 18l-95 339h-1l-92 -340q-5 -17 -25 -17h-53q-19 0 -24 18l-132 445q-6 20 15 20h52q21 0 24 -14l95 -370h2l102 369q4 15 20 15h45q14 0 18 -12zM438 586l-12 -21q-8 -13 -25 -5
l-151 76q-18 9 -6 26l21 32q10 16 29 4l139 -89q13 -9 5 -23z" />
    <glyph glyph-name="Wacute" unicode="&#x1e82;" horiz-adv-x="899" 
d="M638 142h2l143 528q5 19 25 19h55q21 0 14 -21l-193 -652q-5 -16 -23 -16h-50q-19 0 -24 17l-137 523h-1l-138 -523q-5 -17 -24 -17h-49q-19 0 -23 16l-191 648q-8 25 15 25h63q21 0 26 -19l141 -528h1l136 530q5 17 24 17h45q20 0 24 -17zM539 895l20 -33q13 -17 -6 -25
l-153 -79q-15 -8 -24 6l-12 20q-9 15 5 24l141 91q18 12 29 -4z" />
    <glyph glyph-name="wacute" unicode="&#x1e83;" horiz-adv-x="691" 
d="M494 98h2l94 368q5 17 24 17h47q18 0 12 -20l-132 -445q-6 -18 -24 -18h-54q-19 0 -24 18l-95 339h-1l-92 -340q-5 -17 -25 -17h-53q-19 0 -24 18l-132 445q-6 20 15 20h52q21 0 24 -14l95 -370h2l102 369q4 15 20 15h45q14 0 18 -12zM432 692l20 -33q13 -17 -6 -25
l-153 -79q-15 -7 -24 6l-12 20q-9 15 5 24l141 91q18 12 29 -4z" />
    <glyph glyph-name="Wdieresis" unicode="&#x1e84;" horiz-adv-x="899" 
d="M638 142h2l143 528q5 19 25 19h55q21 0 14 -21l-193 -652q-5 -16 -23 -16h-50q-19 0 -24 17l-137 523h-1l-138 -523q-5 -17 -24 -17h-49q-19 0 -23 16l-191 648q-8 25 15 25h63q21 0 26 -19l141 -528h1l136 530q5 17 24 17h45q20 0 24 -17zM363 865q21 0 35.5 -13
t14.5 -35q0 -23 -15 -36t-36 -13t-36 13t-15 35q0 23 15 36t37 13zM540 865q21 0 35.5 -13t14.5 -35q0 -23 -15 -36t-36 -13t-36 13t-15 35q0 23 15 36t37 13z" />
    <glyph glyph-name="wdieresis" unicode="&#x1e85;" horiz-adv-x="691" 
d="M494 98h2l94 368q5 17 24 17h47q18 0 12 -20l-132 -445q-6 -18 -24 -18h-54q-19 0 -24 18l-95 339h-1l-92 -340q-5 -17 -25 -17h-53q-19 0 -24 18l-132 445q-6 20 15 20h52q21 0 24 -14l95 -370h2l102 369q4 15 20 15h45q14 0 18 -12zM257 678q21 0 35.5 -13t14.5 -35
q0 -23 -15 -36t-36 -13t-36 13t-15 35q0 23 15 36t37 13zM434 678q21 0 35.5 -13t14.5 -35q0 -23 -15 -36t-36 -13t-36 13t-15 35q0 23 15 36t37 13z" />
    <glyph glyph-name="Ygrave" unicode="&#x1ef2;" 
d="M234 20v250l-212 395q-6 10 -3 17t15 7h57q21 0 30 -17l164 -324h1l159 324q9 17 29 17h43q23 0 13 -21l-203 -396v-252q0 -20 -19 -20h-54q-20 0 -20 20zM374 786l-12 -21q-8 -13 -25 -5l-151 76q-18 9 -6 26l21 32q10 16 29 4l139 -89q13 -9 5 -23z" />
    <glyph glyph-name="ygrave" unicode="&#x1ef3;" horiz-adv-x="478" 
d="M253 96l126 371q5 16 25 16h48q20 0 13 -20l-193 -521q-33 -90 -77.5 -126t-124.5 -36q-24 0 -46 6q-14 4 -12 18l7 40q3 14 16 13q28 -4 38 -4q78 0 109 76l25 63l-179 473q-7 18 14 18h57q20 0 24 -14zM346 586l-12 -21q-8 -13 -25 -5l-151 76q-18 9 -6 26l21 32
q10 16 29 4l139 -89q13 -9 5 -23z" />
    <glyph glyph-name="endash" unicode="&#x2013;" horiz-adv-x="500" 
d="M19 301h462q19 0 19 -20v-39q0 -19 -19 -19h-462q-19 0 -19 19v39q0 20 19 20z" />
    <glyph glyph-name="emdash" unicode="&#x2014;" horiz-adv-x="1000" 
d="M19 301h962q19 0 19 -20v-39q0 -19 -19 -19h-962q-19 0 -19 19v39q0 20 19 20z" />
    <glyph glyph-name="afii00208" unicode="&#x2015;" horiz-adv-x="1000" 
d="M19 301h962q19 0 19 -20v-39q0 -19 -19 -19h-962q-19 0 -19 19v39q0 20 19 20z" />
    <glyph glyph-name="quoteleft" unicode="&#x2018;" horiz-adv-x="191" 
d="M34 547q0 44 25 88t60 65q13 7 20 -1l10 -11q8 -10 -2 -18q-35 -33 -35 -65q0 -13 17 -35.5t17 -37.5q0 -23 -15.5 -38t-38.5 -15q-25 0 -41.5 21t-16.5 47z" />
    <glyph glyph-name="quoteright" unicode="&#x2019;" horiz-adv-x="191" 
d="M157 636q0 -44 -25 -88t-60 -65q-13 -7 -20 1l-10 11q-8 10 2 18q35 33 35 65q0 13 -17 35.5t-17 37.5q0 23 15.5 38t38.5 15q25 0 41.5 -21t16.5 -47z" />
    <glyph glyph-name="quotesinglbase" unicode="&#x201a;" horiz-adv-x="191" 
d="M157 17q0 -44 -25 -88t-60 -65q-13 -7 -20 1l-10 11q-8 10 2 18q35 33 35 65q0 13 -17 35.5t-17 37.5q0 23 15.5 38t38.5 15q25 0 41.5 -21t16.5 -47z" />
    <glyph glyph-name="quotedblleft" unicode="&#x201c;" horiz-adv-x="367" 
d="M34 547q0 44 25 88t60 65q13 7 20 -1l10 -11q8 -10 -2 -18q-35 -33 -35 -65q0 -13 17 -35.5t17 -37.5q0 -23 -15.5 -38t-38.5 -15q-25 0 -41.5 21t-16.5 47zM210 547q0 44 25 88t60 65q13 7 20 -1l10 -11q8 -10 -2 -18q-35 -33 -35 -65q0 -13 17 -35.5t17 -37.5
q0 -23 -15.5 -38t-38.5 -15q-25 0 -41.5 21t-16.5 47z" />
    <glyph glyph-name="quotedblright" unicode="&#x201d;" horiz-adv-x="367" 
d="M157 636q0 -44 -25 -88t-60 -65q-13 -7 -20 1l-10 11q-8 10 2 18q35 33 35 65q0 13 -17 35.5t-17 37.5q0 23 15.5 38t38.5 15q25 0 41.5 -21t16.5 -47zM333 636q0 -44 -25 -88t-60 -65q-13 -7 -20 1l-10 11q-8 10 2 18q35 33 35 65q0 13 -17 35.5t-17 37.5q0 23 15.5 38
t38.5 15q25 0 41.5 -21t16.5 -47z" />
    <glyph glyph-name="quotedblbase" unicode="&#x201e;" horiz-adv-x="367" 
d="M157 17q0 -44 -25 -88t-60 -65q-13 -7 -20 1l-10 11q-8 10 2 18q35 33 35 65q0 13 -17 35.5t-17 37.5q0 23 15.5 38t38.5 15q25 0 41.5 -21t16.5 -47zM333 17q0 -44 -25 -88t-60 -65q-13 -7 -20 1l-10 11q-8 10 2 18q35 33 35 65q0 13 -17 35.5t-17 37.5q0 23 15.5 38
t38.5 15q25 0 41.5 -21t16.5 -47z" />
    <glyph glyph-name="dagger" unicode="&#x2020;" horiz-adv-x="514" 
d="M69 449l148 -1l-3 221q0 20 19 20h46q20 0 20 -20l-2 -221l149 1q16 0 16 -16v-40q0 -16 -16 -16l-149 2l-4 -359q0 -20 -19 -20h-33q-20 0 -20 20l-4 359l-148 -2q-16 0 -16 16v40q0 16 16 16z" />
    </font>
</defs>
</svg>
